<?xml version="1.0" encoding="UTF-8" standalone="no"?><svg xmlns="http://www.w3.org/2000/svg" xmlns:xlink="http://www.w3.org/1999/xlink" contentScriptType="application/ecmascript" contentStyleType="text/css" height="528px" preserveAspectRatio="none" style="width:351px;height:528px;" version="1.1" viewBox="0 0 351 528" width="351px" zoomAndPan="magnify"><defs><filter height="300%" id="f9tq23vlczlad" width="300%" x="-1" y="-1"><feGaussianBlur result="blurOut" stdDeviation="2.0"/><feColorMatrix in="blurOut" result="blurOut2" type="matrix" values="0 0 0 0 0 0 0 0 0 0 0 0 0 0 0 0 0 0 .4 0"/><feOffset dx="4.0" dy="4.0" in="blurOut2" result="blurOut3"/><feBlend in="SourceGraphic" in2="blurOut3" mode="normal"/></filter></defs><g><polygon fill="#FFFFFF" filter="url(#f9tq23vlczlad)" points="133.5,6,221.5,6,228.5,29.6094,235.5,29.6094,235.5,61.2188,133.5,61.2188,133.5,6" style="stroke: #000000; stroke-width: 1.5;"/><line style="stroke: #000000; stroke-width: 1.5;" x1="133.5" x2="228.5" y1="29.6094" y2="29.6094"/><text fill="#000000" font-family="sans-serif" font-size="14" font-weight="bold" lengthAdjust="spacingAndGlyphs" textLength="82" x="137.5" y="22.5332">mastermind</text><polygon fill="#FFFFFF" filter="url(#f9tq23vlczlad)" points="81,121,274,121,281,144.6094,288,144.6094,288,176.2188,81,176.2188,81,121" style="stroke: #000000; stroke-width: 1.5;"/><line style="stroke: #000000; stroke-width: 1.5;" x1="81" x2="281" y1="144.6094" y2="144.6094"/><text fill="#000000" font-family="sans-serif" font-size="14" font-weight="bold" lengthAdjust="spacingAndGlyphs" textLength="187" x="85" y="137.5332">mastermind.views.console</text><polygon fill="#FFFFFF" filter="url(#f9tq23vlczlad)" points="16,236,149,236,156,259.6094,163,259.6094,163,291.2188,16,291.2188,16,236" style="stroke: #000000; stroke-width: 1.5;"/><line style="stroke: #000000; stroke-width: 1.5;" x1="16" x2="156" y1="259.6094" y2="259.6094"/><text fill="#000000" font-family="sans-serif" font-size="14" font-weight="bold" lengthAdjust="spacingAndGlyphs" textLength="127" x="20" y="252.5332">mastermind.views</text><polygon fill="#FFFFFF" filter="url(#f9tq23vlczlad)" points="143,351,312,351,319,374.6094,326,374.6094,326,406.2188,143,406.2188,143,351" style="stroke: #000000; stroke-width: 1.5;"/><line style="stroke: #000000; stroke-width: 1.5;" x1="143" x2="319" y1="374.6094" y2="374.6094"/><text fill="#000000" font-family="sans-serif" font-size="14" font-weight="bold" lengthAdjust="spacingAndGlyphs" textLength="163" x="147" y="367.5332">mastermind.controllers</text><polygon fill="#FFFFFF" filter="url(#f9tq23vlczlad)" points="156,466,299,466,306,489.6094,313,489.6094,313,521.2188,156,521.2188,156,466" style="stroke: #000000; stroke-width: 1.5;"/><line style="stroke: #000000; stroke-width: 1.5;" x1="156" x2="306" y1="489.6094" y2="489.6094"/><text fill="#000000" font-family="sans-serif" font-size="14" font-weight="bold" lengthAdjust="spacingAndGlyphs" textLength="137" x="160" y="482.5332">mastermind.models</text><polygon fill="#FFFFFF" filter="url(#f9tq23vlczlad)" points="198.5,236,234.5,236,241.5,259.6094,248.5,259.6094,248.5,291.2188,198.5,291.2188,198.5,236" style="stroke: #000000; stroke-width: 1.5;"/><line style="stroke: #000000; stroke-width: 1.5;" x1="198.5" x2="241.5" y1="259.6094" y2="259.6094"/><text fill="#000000" font-family="sans-serif" font-size="14" font-weight="bold" lengthAdjust="spacingAndGlyphs" textLength="30" x="202.5" y="252.5332">utils</text><!--MD5=[5a7375d6d2c9f55bf8e92f7679cbf013]
link mastermind to mastermind.views.console--><path d="M184.5,61.28 C184.5,77.6 184.5,98.56 184.5,115.72 " fill="none" id="mastermind-to-mastermind.views.console" style="stroke: #A80036; stroke-width: 1.0; stroke-dasharray: 7.0,7.0;"/><polygon fill="#A80036" points="184.5,120.91,188.5,111.91,184.5,115.91,180.5,111.91,184.5,120.91" style="stroke: #A80036; stroke-width: 1.0;"/><!--MD5=[e35537eb96f5ac075f1f91433273a808]
link mastermind to mastermind.views--><path d="M133.47,56.72 C107.46,71 78.26,92.3 63.5,121 C45.55,155.89 59.42,201.25 72.82,231.08 " fill="none" id="mastermind-to-mastermind.views" style="stroke: #A80036; stroke-width: 1.0; stroke-dasharray: 7.0,7.0;"/><polygon fill="#A80036" points="74.96,235.73,74.84,225.8819,72.8738,231.186,67.5696,229.2198,74.96,235.73" style="stroke: #A80036; stroke-width: 1.0;"/><!--MD5=[86c1962777201360fa5ae99939f12e24]
link mastermind.views.console to utils--><path d="M193.74,176.28 C199.43,192.74 206.73,213.92 212.68,231.16 " fill="none" id="mastermind.views.console-to-utils" style="stroke: #A80036; stroke-width: 1.0; stroke-dasharray: 7.0,7.0;"/><polygon fill="#A80036" points="214.32,235.91,215.1712,226.098,212.6918,231.1825,207.6073,228.7031,214.32,235.91" style="stroke: #A80036; stroke-width: 1.0;"/><!--MD5=[95e5d34310c7b2ccc3e2879af69b26a7]
link mastermind.views.console to mastermind.views--><path d="M161.99,176.28 C147.91,193.03 129.73,214.64 115.11,232.04 " fill="none" id="mastermind.views.console-to-mastermind.views" style="stroke: #A80036; stroke-width: 1.0; stroke-dasharray: 7.0,7.0;"/><polygon fill="#A80036" points="111.85,235.91,120.7004,231.5891,115.065,232.0806,114.5734,226.4452,111.85,235.91" style="stroke: #A80036; stroke-width: 1.0;"/><!--MD5=[6fc048f6b1de606c6880f99a5c425bb6]
link mastermind to mastermind.controllers--><path d="M235.53,56.72 C261.54,71 290.74,92.3 305.5,121 C344.48,196.78 290.44,296.5 257.18,346.34 " fill="none" id="mastermind-to-mastermind.controllers" style="stroke: #A80036; stroke-width: 1.0; stroke-dasharray: 7.0,7.0;"/><polygon fill="#A80036" points="254.23,350.71,262.5837,345.4932,257.0298,346.5674,255.9556,341.0135,254.23,350.71" style="stroke: #A80036; stroke-width: 1.0;"/><!--MD5=[30de4fc6c32658d919a213b14ff8bc39]
link mastermind.views to mastermind.controllers--><path d="M123.86,291.28 C145.62,308.24 173.79,330.19 196.26,347.7 " fill="none" id="mastermind.views-to-mastermind.controllers" style="stroke: #A80036; stroke-width: 1.0; stroke-dasharray: 7.0,7.0;"/><polygon fill="#A80036" points="200.38,350.91,195.7577,342.2132,196.4425,347.8285,190.8272,348.5132,200.38,350.91" style="stroke: #A80036; stroke-width: 1.0;"/><!--MD5=[8035456145fb3f65c7b57a291323142f]
link mastermind.controllers to mastermind.models--><path d="M234.5,406.28 C234.5,422.6 234.5,443.56 234.5,460.72 " fill="none" id="mastermind.controllers-to-mastermind.models" style="stroke: #A80036; stroke-width: 1.0; stroke-dasharray: 7.0,7.0;"/><polygon fill="#A80036" points="234.5,465.91,238.5,456.91,234.5,460.91,230.5,456.91,234.5,465.91" style="stroke: #A80036; stroke-width: 1.0;"/><!--MD5=[8c342ef1c520aa80d903c0e19368e780]
@startuml architecture

package mastermind {}
package mastermind.views.console{}
package mastermind.views{}
package mastermind.controllers{}
package mastermind.models{}
package utils{}

mastermind ..> mastermind.views.console
mastermind ..> mastermind.views
mastermind.views.console ..> utils
mastermind.views.console ..> mastermind.views
mastermind ..> mastermind.controllers
mastermind.views ..> mastermind.controllers
mastermind.controllers ..> mastermind.models

@enduml

PlantUML version 1.2020.18(Wed Sep 30 21:40:44 CEST 2020)
(GPL source distribution)
Java Runtime: OpenJDK Runtime Environment
JVM: OpenJDK 64-Bit Server VM
Default Encoding: Cp1252
Language: es
Country: ES
--></g></svg>