<?xml version="1.0" encoding="UTF-8" standalone="no"?><svg xmlns="http://www.w3.org/2000/svg" xmlns:xlink="http://www.w3.org/1999/xlink" contentScriptType="application/ecmascript" contentStyleType="text/css" height="318px" preserveAspectRatio="none" style="width:579px;height:318px;" version="1.1" viewBox="0 0 579 318" width="579px" zoomAndPan="magnify"><defs><filter height="300%" id="fynqljjq1y98t" width="300%" x="-1" y="-1"><feGaussianBlur result="blurOut" stdDeviation="2.0"/><feColorMatrix in="blurOut" result="blurOut2" type="matrix" values="0 0 0 0 0 0 0 0 0 0 0 0 0 0 0 0 0 0 .4 0"/><feOffset dx="4.0" dy="4.0" in="blurOut2" result="blurOut3"/><feBlend in="SourceGraphic" in2="blurOut3" mode="normal"/></filter></defs><g><!--MD5=[b56d8ef9af079015670ad96965866810]
cluster mastermind--><polygon fill="#FFFFFF" filter="url(#fynqljjq1y98t)" points="16,6,104,6,111,29.6094,192,29.6094,192,311,16,311,16,6" style="stroke: #000000; stroke-width: 1.5;"/><line style="stroke: #000000; stroke-width: 1.5;" x1="16" x2="111" y1="29.6094" y2="29.6094"/><text fill="#000000" font-family="sans-serif" font-size="14" font-weight="bold" lengthAdjust="spacingAndGlyphs" textLength="82" x="20" y="22.5332">mastermind</text><!--MD5=[57ab11106b6017d1c059bb8de6501622]
cluster mastermind.views--><polygon fill="#FFFFFF" filter="url(#fynqljjq1y98t)" points="216,197,349,197,356,220.6094,359,220.6094,359,297,216,297,216,197" style="stroke: #000000; stroke-width: 1.5;"/><line style="stroke: #000000; stroke-width: 1.5;" x1="216" x2="356" y1="220.6094" y2="220.6094"/><text fill="#000000" font-family="sans-serif" font-size="14" font-weight="bold" lengthAdjust="spacingAndGlyphs" textLength="127" x="220" y="213.5332">mastermind.views</text><!--MD5=[f4a8416df5d5f7c80a7d3a30f9e0f7a6]
cluster mastermind.controllers--><polygon fill="#FFFFFF" filter="url(#fynqljjq1y98t)" points="383,197,552,197,559,220.6094,562,220.6094,562,297,383,297,383,197" style="stroke: #000000; stroke-width: 1.5;"/><line style="stroke: #000000; stroke-width: 1.5;" x1="383" x2="559" y1="220.6094" y2="220.6094"/><text fill="#000000" font-family="sans-serif" font-size="14" font-weight="bold" lengthAdjust="spacingAndGlyphs" textLength="163" x="387" y="213.5332">mastermind.controllers</text><!--MD5=[9d86695c102c0f315477fb61b956f99d]
class mastermind.ConsoleMastermind--><rect codeLine="2" fill="#FEFECE" filter="url(#fynqljjq1y98t)" height="75.6719" id="mastermind.ConsoleMastermind" style="stroke: #A80036; stroke-width: 1.5;" width="144" x="32" y="219"/><ellipse cx="47" cy="235" fill="#ADD1B2" rx="11" ry="11" style="stroke: #A80036; stroke-width: 1.0;"/><path d="M49.7656,230.875 Q49.9219,230.6563 50.1094,230.5469 Q50.2969,230.4375 50.5156,230.4375 Q50.8906,230.4375 51.125,230.7031 Q51.3594,230.9531 51.3594,231.5625 L51.3594,233.0156 Q51.3594,233.625 51.125,233.8906 Q50.8906,234.1563 50.5156,234.1563 Q50.1719,234.1563 49.9688,233.9531 Q49.7656,233.7656 49.6563,233.25 Q49.6094,232.8906 49.4219,232.7031 Q49.0938,232.3281 48.4844,232.1094 Q47.875,231.8906 47.25,231.8906 Q46.4844,231.8906 45.8438,232.2188 Q45.2188,232.5469 44.7188,233.2969 Q44.2344,234.0469 44.2344,235.0781 L44.2344,236.1719 Q44.2344,237.4063 45.125,238.2344 Q46.0156,239.0469 47.6094,239.0469 Q48.5469,239.0469 49.2031,238.7969 Q49.5938,238.6406 50.0156,238.2031 Q50.2813,237.9375 50.4219,237.8594 Q50.5781,237.7813 50.7813,237.7813 Q51.1094,237.7813 51.3594,238.0469 Q51.625,238.2969 51.625,238.6406 Q51.625,238.9844 51.2813,239.3906 Q50.7813,239.9688 49.9844,240.2969 Q48.9063,240.75 47.6094,240.75 Q46.0938,240.75 44.8906,240.125 Q43.9063,239.625 43.2188,238.5625 Q42.5313,237.4844 42.5313,236.2031 L42.5313,235.0469 Q42.5313,233.7188 43.1406,232.5781 Q43.7656,231.4219 44.8594,230.8125 Q45.9531,230.1875 47.1875,230.1875 Q47.9219,230.1875 48.5625,230.3594 Q49.2188,230.5156 49.7656,230.875 Z "/><text fill="#000000" font-family="sans-serif" font-size="12" lengthAdjust="spacingAndGlyphs" textLength="112" x="61" y="239.9102">ConsoleMastermind</text><line style="stroke: #A80036; stroke-width: 1.5;" x1="33" x2="175" y1="251" y2="251"/><line style="stroke: #A80036; stroke-width: 1.5;" x1="33" x2="175" y1="259" y2="259"/><ellipse cx="43" cy="270" fill="#84BE84" rx="3" ry="3" style="stroke: #038048; stroke-width: 1.0;"/><text fill="#000000" font-family="sans-serif" font-size="11" lengthAdjust="spacingAndGlyphs" text-decoration="underline" textLength="90" x="52" y="274.4189">main(String[]): void</text><polygon fill="#FFFF44" points="43,278.8359,47,282.8359,43,286.8359,39,282.8359" style="stroke: #B38D22; stroke-width: 1.0;"/><text fill="#000000" font-family="sans-serif" font-size="11" lengthAdjust="spacingAndGlyphs" textLength="97" x="52" y="288.2549">createView(): View</text><!--MD5=[3690083fa3c0b91189e580515c0d9fca]
class mastermind.Mastermind--><rect codeLine="9" fill="#FEFECE" filter="url(#fynqljjq1y98t)" height="117.1797" id="mastermind.Mastermind" style="stroke: #A80036; stroke-width: 1.5;" width="117" x="58.5" y="42"/><ellipse cx="82.5" cy="58" fill="#ADD1B2" rx="11" ry="11" style="stroke: #A80036; stroke-width: 1.0;"/><path d="M85.2656,53.875 Q85.4219,53.6563 85.6094,53.5469 Q85.7969,53.4375 86.0156,53.4375 Q86.3906,53.4375 86.625,53.7031 Q86.8594,53.9531 86.8594,54.5625 L86.8594,56.0156 Q86.8594,56.625 86.625,56.8906 Q86.3906,57.1563 86.0156,57.1563 Q85.6719,57.1563 85.4688,56.9531 Q85.2656,56.7656 85.1563,56.25 Q85.1094,55.8906 84.9219,55.7031 Q84.5938,55.3281 83.9844,55.1094 Q83.375,54.8906 82.75,54.8906 Q81.9844,54.8906 81.3438,55.2188 Q80.7188,55.5469 80.2188,56.2969 Q79.7344,57.0469 79.7344,58.0781 L79.7344,59.1719 Q79.7344,60.4063 80.625,61.2344 Q81.5156,62.0469 83.1094,62.0469 Q84.0469,62.0469 84.7031,61.7969 Q85.0938,61.6406 85.5156,61.2031 Q85.7813,60.9375 85.9219,60.8594 Q86.0781,60.7813 86.2813,60.7813 Q86.6094,60.7813 86.8594,61.0469 Q87.125,61.2969 87.125,61.6406 Q87.125,61.9844 86.7813,62.3906 Q86.2813,62.9688 85.4844,63.2969 Q84.4063,63.75 83.1094,63.75 Q81.5938,63.75 80.3906,63.125 Q79.4063,62.625 78.7188,61.5625 Q78.0313,60.4844 78.0313,59.2031 L78.0313,58.0469 Q78.0313,56.7188 78.6406,55.5781 Q79.2656,54.4219 80.3594,53.8125 Q81.4531,53.1875 82.6875,53.1875 Q83.4219,53.1875 84.0625,53.3594 Q84.7188,53.5156 85.2656,53.875 Z "/><text fill="#000000" font-family="sans-serif" font-size="12" lengthAdjust="spacingAndGlyphs" textLength="65" x="98.5" y="62.9102">Mastermind</text><line style="stroke: #A80036; stroke-width: 1.5;" x1="59.5" x2="174.5" y1="74" y2="74"/><rect fill="none" height="6" style="stroke: #C82930; stroke-width: 1.0;" width="6" x="66.5" y="82"/><text fill="#000000" font-family="sans-serif" font-size="11" lengthAdjust="spacingAndGlyphs" textLength="54" x="78.5" y="89.4189">logic: Logic</text><rect fill="none" height="6" style="stroke: #C82930; stroke-width: 1.0;" width="6" x="66.5" y="95.8359"/><text fill="#000000" font-family="sans-serif" font-size="11" lengthAdjust="spacingAndGlyphs" textLength="56" x="78.5" y="103.2549">view: View</text><line style="stroke: #A80036; stroke-width: 1.5;" x1="59.5" x2="174.5" y1="109.6719" y2="109.6719"/><polygon fill="#FFFF44" points="69.5,115.6719,73.5,119.6719,69.5,123.6719,65.5,119.6719" style="stroke: #B38D22; stroke-width: 1.0;"/><text fill="#000000" font-family="sans-serif" font-size="11" lengthAdjust="spacingAndGlyphs" textLength="63" x="78.5" y="125.0908">Mastermind()</text><polygon fill="#FFFF44" points="69.5,129.5078,73.5,133.5078,69.5,137.5078,65.5,133.5078" style="stroke: #B38D22; stroke-width: 1.0;"/><text fill="#000000" font-family="sans-serif" font-size="11" font-style="italic" lengthAdjust="spacingAndGlyphs" textLength="91" x="78.5" y="138.9268">createView(): View</text><polygon fill="#FFFF44" points="69.5,143.3438,73.5,147.3438,69.5,151.3438,65.5,147.3438" style="stroke: #B38D22; stroke-width: 1.0;"/><text fill="#000000" font-family="sans-serif" font-size="11" lengthAdjust="spacingAndGlyphs" textLength="54" x="78.5" y="152.7627">play(): void</text><!--MD5=[904c44326bfc30ddc4fe4077c1b9164d]
class mastermind.views.View--><rect fill="#FEFECE" filter="url(#fynqljjq1y98t)" height="48" id="mastermind.views.View" style="stroke: #A80036; stroke-width: 1.5;" width="58" x="232" y="233"/><ellipse cx="247" cy="249" fill="#ADD1B2" rx="11" ry="11" style="stroke: #A80036; stroke-width: 1.0;"/><path d="M249.7656,244.875 Q249.9219,244.6563 250.1094,244.5469 Q250.2969,244.4375 250.5156,244.4375 Q250.8906,244.4375 251.125,244.7031 Q251.3594,244.9531 251.3594,245.5625 L251.3594,247.0156 Q251.3594,247.625 251.125,247.8906 Q250.8906,248.1563 250.5156,248.1563 Q250.1719,248.1563 249.9688,247.9531 Q249.7656,247.7656 249.6563,247.25 Q249.6094,246.8906 249.4219,246.7031 Q249.0938,246.3281 248.4844,246.1094 Q247.875,245.8906 247.25,245.8906 Q246.4844,245.8906 245.8438,246.2188 Q245.2188,246.5469 244.7188,247.2969 Q244.2344,248.0469 244.2344,249.0781 L244.2344,250.1719 Q244.2344,251.4063 245.125,252.2344 Q246.0156,253.0469 247.6094,253.0469 Q248.5469,253.0469 249.2031,252.7969 Q249.5938,252.6406 250.0156,252.2031 Q250.2813,251.9375 250.4219,251.8594 Q250.5781,251.7813 250.7813,251.7813 Q251.1094,251.7813 251.3594,252.0469 Q251.625,252.2969 251.625,252.6406 Q251.625,252.9844 251.2813,253.3906 Q250.7813,253.9688 249.9844,254.2969 Q248.9063,254.75 247.6094,254.75 Q246.0938,254.75 244.8906,254.125 Q243.9063,253.625 243.2188,252.5625 Q242.5313,251.4844 242.5313,250.2031 L242.5313,249.0469 Q242.5313,247.7188 243.1406,246.5781 Q243.7656,245.4219 244.8594,244.8125 Q245.9531,244.1875 247.1875,244.1875 Q247.9219,244.1875 248.5625,244.3594 Q249.2188,244.5156 249.7656,244.875 Z "/><text fill="#000000" font-family="sans-serif" font-size="12" lengthAdjust="spacingAndGlyphs" textLength="26" x="261" y="253.9102">View</text><line style="stroke: #A80036; stroke-width: 1.5;" x1="233" x2="289" y1="265" y2="265"/><line style="stroke: #A80036; stroke-width: 1.5;" x1="233" x2="289" y1="273" y2="273"/><!--MD5=[23fa68f5dd51b02db50930b64c1246c4]
class mastermind.controllers.Logic--><rect fill="#FEFECE" filter="url(#fynqljjq1y98t)" height="48" id="mastermind.controllers.Logic" style="stroke: #A80036; stroke-width: 1.5;" width="62" x="399" y="233"/><ellipse cx="414" cy="249" fill="#ADD1B2" rx="11" ry="11" style="stroke: #A80036; stroke-width: 1.0;"/><path d="M416.7656,244.875 Q416.9219,244.6563 417.1094,244.5469 Q417.2969,244.4375 417.5156,244.4375 Q417.8906,244.4375 418.125,244.7031 Q418.3594,244.9531 418.3594,245.5625 L418.3594,247.0156 Q418.3594,247.625 418.125,247.8906 Q417.8906,248.1563 417.5156,248.1563 Q417.1719,248.1563 416.9688,247.9531 Q416.7656,247.7656 416.6563,247.25 Q416.6094,246.8906 416.4219,246.7031 Q416.0938,246.3281 415.4844,246.1094 Q414.875,245.8906 414.25,245.8906 Q413.4844,245.8906 412.8438,246.2188 Q412.2188,246.5469 411.7188,247.2969 Q411.2344,248.0469 411.2344,249.0781 L411.2344,250.1719 Q411.2344,251.4063 412.125,252.2344 Q413.0156,253.0469 414.6094,253.0469 Q415.5469,253.0469 416.2031,252.7969 Q416.5938,252.6406 417.0156,252.2031 Q417.2813,251.9375 417.4219,251.8594 Q417.5781,251.7813 417.7813,251.7813 Q418.1094,251.7813 418.3594,252.0469 Q418.625,252.2969 418.625,252.6406 Q418.625,252.9844 418.2813,253.3906 Q417.7813,253.9688 416.9844,254.2969 Q415.9063,254.75 414.6094,254.75 Q413.0938,254.75 411.8906,254.125 Q410.9063,253.625 410.2188,252.5625 Q409.5313,251.4844 409.5313,250.2031 L409.5313,249.0469 Q409.5313,247.7188 410.1406,246.5781 Q410.7656,245.4219 411.8594,244.8125 Q412.9531,244.1875 414.1875,244.1875 Q414.9219,244.1875 415.5625,244.3594 Q416.2188,244.5156 416.7656,244.875 Z "/><text fill="#000000" font-family="sans-serif" font-size="12" lengthAdjust="spacingAndGlyphs" textLength="30" x="428" y="253.9102">Logic</text><line style="stroke: #A80036; stroke-width: 1.5;" x1="400" x2="460" y1="265" y2="265"/><line style="stroke: #A80036; stroke-width: 1.5;" x1="400" x2="460" y1="273" y2="273"/><!--MD5=[35c5f555007c474ca51d8184c5afaa67]
reverse link mastermind.Mastermind to mastermind.ConsoleMastermind--><path codeLine="7" d="M110.48,179.02 C109.32,192.8 108.16,206.57 107.15,218.58 " fill="none" id="mastermind.Mastermind-backto-mastermind.ConsoleMastermind" style="stroke: #A80036; stroke-width: 1.0;"/><polygon fill="none" points="103.51,178.37,112.16,159.03,117.46,179.55,103.51,178.37" style="stroke: #A80036; stroke-width: 1.0;"/><!--MD5=[23bff7e45a9767c7c92fa52d4f427052]
link mastermind.Mastermind to mastermind.views.View--><path codeLine="17" d="M170.62,159.03 C192.96,183 217.83,209.68 235.82,228.98 " fill="none" id="mastermind.Mastermind-to-mastermind.views.View" style="stroke: #A80036; stroke-width: 1.0;"/><polygon fill="#A80036" points="239.32,232.74,236.1215,223.425,235.9156,229.0781,230.2624,228.8721,239.32,232.74" style="stroke: #A80036; stroke-width: 1.0;"/><!--MD5=[f8f665bea3764aed7a8af8c932bae351]
link mastermind.Mastermind to mastermind.controllers.Logic--><path codeLine="18" d="M186.6985,132.5367 C186.6985,132.5367 267.39,169.66 306,189 C333.42,202.74 363.71,219.08 387.49,232.19 " fill="none" id="mastermind.Mastermind-mastermind.controllers.Logic" style="stroke: #A80036; stroke-width: 1.0;"/><polygon fill="#A80036" points="398.94,238.53,393.0059,230.6695,394.5664,236.1069,389.129,237.6674,398.94,238.53" style="stroke: #A80036; stroke-width: 1.0;"/><line style="stroke: #A80036; stroke-width: 1.0;" x1="394.5664" x2="387.565" y1="236.1069" y2="232.23"/><polygon fill="#A80036" points="175.77,127.58,179.582,133.7012,186.6985,132.5367,182.8865,126.4155,175.77,127.58" style="stroke: #A80036; stroke-width: 1.0;"/><!--MD5=[8e3d338c07ac2ae48328db1cc0b7c57a]
@startuml mastermind

class  mastermind.ConsoleMastermind{
+ {static} main(String[]): void
# createView(): View
}

mastermind.Mastermind <|-down- mastermind.ConsoleMastermind

class  mastermind.Mastermind{
- logic: Logic
- view: View
# Mastermind()
# {abstract} createView(): View
# play(): void
}

mastermind.Mastermind - -> mastermind.views.View
mastermind.Mastermind *-down-> mastermind.controllers.Logic

@enduml

PlantUML version 1.2020.18(Wed Sep 30 21:40:44 CEST 2020)
(GPL source distribution)
Java Runtime: OpenJDK Runtime Environment
JVM: OpenJDK 64-Bit Server VM
Default Encoding: Cp1252
Language: es
Country: ES
--></g></svg>