<?xml version="1.0" encoding="UTF-8" standalone="no"?><svg xmlns="http://www.w3.org/2000/svg" xmlns:xlink="http://www.w3.org/1999/xlink" contentScriptType="application/ecmascript" contentStyleType="text/css" height="810px" preserveAspectRatio="none" style="width:1315px;height:810px;" version="1.1" viewBox="0 0 1315 810" width="1315px" zoomAndPan="magnify"><defs><filter height="300%" id="fvs13m9duo553" width="300%" x="-1" y="-1"><feGaussianBlur result="blurOut" stdDeviation="2.0"/><feColorMatrix in="blurOut" result="blurOut2" type="matrix" values="0 0 0 0 0 0 0 0 0 0 0 0 0 0 0 0 0 0 .4 0"/><feOffset dx="4.0" dy="4.0" in="blurOut2" result="blurOut3"/><feBlend in="SourceGraphic" in2="blurOut3" mode="normal"/></filter></defs><g><!--MD5=[f4a8416df5d5f7c80a7d3a30f9e0f7a6]
cluster mastermind.controllers--><polygon fill="#FFFFFF" filter="url(#fvs13m9duo553)" points="16,6,185,6,192,29.6094,732,29.6094,732,679,16,679,16,6" style="stroke: #000000; stroke-width: 1.5;"/><line style="stroke: #000000; stroke-width: 1.5;" x1="16" x2="192" y1="29.6094" y2="29.6094"/><text fill="#000000" font-family="sans-serif" font-size="14" font-weight="bold" lengthAdjust="spacingAndGlyphs" textLength="163" x="20" y="22.5332">mastermind.controllers</text><!--MD5=[8e0b9655f0966c29230933410523611d]
cluster mastermind.models--><polygon fill="#FFFFFF" filter="url(#fvs13m9duo553)" points="516,703,659,703,666,726.6094,1029,726.6094,1029,803,516,803,516,703" style="stroke: #000000; stroke-width: 1.5;"/><line style="stroke: #000000; stroke-width: 1.5;" x1="516" x2="666" y1="726.6094" y2="726.6094"/><text fill="#000000" font-family="sans-serif" font-size="14" font-weight="bold" lengthAdjust="spacingAndGlyphs" textLength="137" x="520" y="719.5332">mastermind.models</text><!--MD5=[7db3c59d38ae5b37b484eb2df9368145]
cluster java.util--><polygon fill="#FFFFFF" filter="url(#fvs13m9duo553)" points="1090,210.5,1151,210.5,1158,234.1094,1298,234.1094,1298,310.5,1090,310.5,1090,210.5" style="stroke: #000000; stroke-width: 1.5;"/><line style="stroke: #000000; stroke-width: 1.5;" x1="1090" x2="1158" y1="234.1094" y2="234.1094"/><text fill="#000000" font-family="sans-serif" font-size="14" font-weight="bold" lengthAdjust="spacingAndGlyphs" textLength="55" x="1094" y="227.0332">java.util</text><!--MD5=[9ef1e7f546bb4ae5e950499a1a7841f6]
class mastermind.controllers.UseCaseController--><rect codeLine="2" fill="#FEFECE" filter="url(#fvs13m9duo553)" height="103.3438" id="mastermind.controllers.UseCaseController" style="stroke: #A80036; stroke-width: 1.5;" width="183" x="492.5" y="219"/><ellipse cx="527.3" cy="235" fill="#ADD1B2" rx="11" ry="11" style="stroke: #A80036; stroke-width: 1.0;"/><path d="M530.0656,230.875 Q530.2219,230.6563 530.4094,230.5469 Q530.5969,230.4375 530.8156,230.4375 Q531.1906,230.4375 531.425,230.7031 Q531.6594,230.9531 531.6594,231.5625 L531.6594,233.0156 Q531.6594,233.625 531.425,233.8906 Q531.1906,234.1563 530.8156,234.1563 Q530.4719,234.1563 530.2688,233.9531 Q530.0656,233.7656 529.9563,233.25 Q529.9094,232.8906 529.7219,232.7031 Q529.3938,232.3281 528.7844,232.1094 Q528.175,231.8906 527.55,231.8906 Q526.7844,231.8906 526.1438,232.2188 Q525.5188,232.5469 525.0188,233.2969 Q524.5344,234.0469 524.5344,235.0781 L524.5344,236.1719 Q524.5344,237.4063 525.425,238.2344 Q526.3156,239.0469 527.9094,239.0469 Q528.8469,239.0469 529.5031,238.7969 Q529.8938,238.6406 530.3156,238.2031 Q530.5813,237.9375 530.7219,237.8594 Q530.8781,237.7813 531.0813,237.7813 Q531.4094,237.7813 531.6594,238.0469 Q531.925,238.2969 531.925,238.6406 Q531.925,238.9844 531.5813,239.3906 Q531.0813,239.9688 530.2844,240.2969 Q529.2063,240.75 527.9094,240.75 Q526.3938,240.75 525.1906,240.125 Q524.2063,239.625 523.5188,238.5625 Q522.8313,237.4844 522.8313,236.2031 L522.8313,235.0469 Q522.8313,233.7188 523.4406,232.5781 Q524.0656,231.4219 525.1594,230.8125 Q526.2531,230.1875 527.4875,230.1875 Q528.2219,230.1875 528.8625,230.3594 Q529.5188,230.5156 530.0656,230.875 Z "/><text fill="#000000" font-family="sans-serif" font-size="12" lengthAdjust="spacingAndGlyphs" textLength="107" x="545.7" y="239.9102">UseCaseController</text><line style="stroke: #A80036; stroke-width: 1.5;" x1="493.5" x2="674.5" y1="251" y2="251"/><polygon fill="none" points="503.5,257,507.5,261,503.5,265,499.5,261" style="stroke: #B38D22; stroke-width: 1.0;"/><text fill="#000000" font-family="sans-serif" font-size="11" lengthAdjust="spacingAndGlyphs" textLength="60" x="512.5" y="266.4189">game: Game</text><polygon fill="none" points="503.5,270.8359,507.5,274.8359,503.5,278.8359,499.5,274.8359" style="stroke: #B38D22; stroke-width: 1.0;"/><text fill="#000000" font-family="sans-serif" font-size="11" lengthAdjust="spacingAndGlyphs" textLength="55" x="512.5" y="280.2549">state: State</text><line style="stroke: #A80036; stroke-width: 1.5;" x1="493.5" x2="674.5" y1="286.6719" y2="286.6719"/><polygon fill="#4177AF" points="503.5,293.6719,499.5,299.6719,507.5,299.6719" style="stroke: #1963A0; stroke-width: 1.0;"/><text fill="#000000" font-family="sans-serif" font-size="11" lengthAdjust="spacingAndGlyphs" textLength="157" x="512.5" y="302.0908">UseCaseController(Game, State)</text><ellipse cx="503.5" cy="311.5078" fill="#84BE84" rx="3" ry="3" style="stroke: #038048; stroke-width: 1.0;"/><text fill="#000000" font-family="sans-serif" font-size="11" font-style="italic" lengthAdjust="spacingAndGlyphs" textLength="154" x="512.5" y="315.9268">accept(ControllersVisitor): void</text><!--MD5=[f19b5103d8f53e22ec21b559cf627f49]
class mastermind.controllers.ControllersVisitor--><rect codeLine="11" fill="#FEFECE" filter="url(#fvs13m9duo553)" height="89.5078" id="mastermind.controllers.ControllersVisitor" style="stroke: #A80036; stroke-width: 1.5;" width="164" x="416" y="382"/><ellipse cx="447.65" cy="398" fill="#ADD1B2" rx="11" ry="11" style="stroke: #A80036; stroke-width: 1.0;"/><path d="M450.4156,393.875 Q450.5719,393.6563 450.7594,393.5469 Q450.9469,393.4375 451.1656,393.4375 Q451.5406,393.4375 451.775,393.7031 Q452.0094,393.9531 452.0094,394.5625 L452.0094,396.0156 Q452.0094,396.625 451.775,396.8906 Q451.5406,397.1563 451.1656,397.1563 Q450.8219,397.1563 450.6188,396.9531 Q450.4156,396.7656 450.3063,396.25 Q450.2594,395.8906 450.0719,395.7031 Q449.7438,395.3281 449.1344,395.1094 Q448.525,394.8906 447.9,394.8906 Q447.1344,394.8906 446.4938,395.2188 Q445.8688,395.5469 445.3688,396.2969 Q444.8844,397.0469 444.8844,398.0781 L444.8844,399.1719 Q444.8844,400.4063 445.775,401.2344 Q446.6656,402.0469 448.2594,402.0469 Q449.1969,402.0469 449.8531,401.7969 Q450.2438,401.6406 450.6656,401.2031 Q450.9313,400.9375 451.0719,400.8594 Q451.2281,400.7813 451.4313,400.7813 Q451.7594,400.7813 452.0094,401.0469 Q452.275,401.2969 452.275,401.6406 Q452.275,401.9844 451.9313,402.3906 Q451.4313,402.9688 450.6344,403.2969 Q449.5563,403.75 448.2594,403.75 Q446.7438,403.75 445.5406,403.125 Q444.5563,402.625 443.8688,401.5625 Q443.1813,400.4844 443.1813,399.2031 L443.1813,398.0469 Q443.1813,396.7188 443.7906,395.5781 Q444.4156,394.4219 445.5094,393.8125 Q446.6031,393.1875 447.8375,393.1875 Q448.5719,393.1875 449.2125,393.3594 Q449.8688,393.5156 450.4156,393.875 Z "/><text fill="#000000" font-family="sans-serif" font-size="12" lengthAdjust="spacingAndGlyphs" textLength="95" x="465.35" y="402.9102">ControllersVisitor</text><line style="stroke: #A80036; stroke-width: 1.5;" x1="417" x2="579" y1="414" y2="414"/><line style="stroke: #A80036; stroke-width: 1.5;" x1="417" x2="579" y1="422" y2="422"/><polygon fill="#4177AF" points="427,429,423,435,431,435" style="stroke: #1963A0; stroke-width: 1.0;"/><text fill="#000000" font-family="sans-serif" font-size="11" lengthAdjust="spacingAndGlyphs" textLength="122" x="436" y="437.4189">visit(StartController): void</text><polygon fill="#4177AF" points="427,442.8359,423,448.8359,431,448.8359" style="stroke: #1963A0; stroke-width: 1.0;"/><text fill="#000000" font-family="sans-serif" font-size="11" lengthAdjust="spacingAndGlyphs" textLength="119" x="436" y="451.2549">visit(PlayController): void</text><polygon fill="#4177AF" points="427,456.6719,423,462.6719,431,462.6719" style="stroke: #1963A0; stroke-width: 1.0;"/><text fill="#000000" font-family="sans-serif" font-size="11" lengthAdjust="spacingAndGlyphs" textLength="138" x="436" y="465.0908">visit(ResumeController): void</text><!--MD5=[d9d5430157ad572c27b2bdfc27cdb4ea]
class mastermind.controllers.ResumeController--><rect codeLine="45" fill="#FEFECE" filter="url(#fvs13m9duo553)" height="89.5078" id="mastermind.controllers.ResumeController" style="stroke: #A80036; stroke-width: 1.5;" width="178" x="32" y="552.5"/><ellipse cx="66.8" cy="568.5" fill="#ADD1B2" rx="11" ry="11" style="stroke: #A80036; stroke-width: 1.0;"/><path d="M69.5656,564.375 Q69.7219,564.1563 69.9094,564.0469 Q70.0969,563.9375 70.3156,563.9375 Q70.6906,563.9375 70.925,564.2031 Q71.1594,564.4531 71.1594,565.0625 L71.1594,566.5156 Q71.1594,567.125 70.925,567.3906 Q70.6906,567.6563 70.3156,567.6563 Q69.9719,567.6563 69.7688,567.4531 Q69.5656,567.2656 69.4563,566.75 Q69.4094,566.3906 69.2219,566.2031 Q68.8938,565.8281 68.2844,565.6094 Q67.675,565.3906 67.05,565.3906 Q66.2844,565.3906 65.6438,565.7188 Q65.0188,566.0469 64.5188,566.7969 Q64.0344,567.5469 64.0344,568.5781 L64.0344,569.6719 Q64.0344,570.9063 64.925,571.7344 Q65.8156,572.5469 67.4094,572.5469 Q68.3469,572.5469 69.0031,572.2969 Q69.3938,572.1406 69.8156,571.7031 Q70.0813,571.4375 70.2219,571.3594 Q70.3781,571.2813 70.5813,571.2813 Q70.9094,571.2813 71.1594,571.5469 Q71.425,571.7969 71.425,572.1406 Q71.425,572.4844 71.0813,572.8906 Q70.5813,573.4688 69.7844,573.7969 Q68.7063,574.25 67.4094,574.25 Q65.8938,574.25 64.6906,573.625 Q63.7063,573.125 63.0188,572.0625 Q62.3313,570.9844 62.3313,569.7031 L62.3313,568.5469 Q62.3313,567.2188 62.9406,566.0781 Q63.5656,564.9219 64.6594,564.3125 Q65.7531,563.6875 66.9875,563.6875 Q67.7219,563.6875 68.3625,563.8594 Q69.0188,564.0156 69.5656,564.375 Z "/><text fill="#000000" font-family="sans-serif" font-size="12" lengthAdjust="spacingAndGlyphs" textLength="102" x="85.2" y="573.4102">ResumeController</text><line style="stroke: #A80036; stroke-width: 1.5;" x1="33" x2="209" y1="584.5" y2="584.5"/><line style="stroke: #A80036; stroke-width: 1.5;" x1="33" x2="209" y1="592.5" y2="592.5"/><ellipse cx="43" cy="603.5" fill="#84BE84" rx="3" ry="3" style="stroke: #038048; stroke-width: 1.0;"/><text fill="#000000" font-family="sans-serif" font-size="11" lengthAdjust="spacingAndGlyphs" textLength="152" x="52" y="607.9189">ResumeController(Game, State)</text><ellipse cx="43" cy="617.3359" fill="#84BE84" rx="3" ry="3" style="stroke: #038048; stroke-width: 1.0;"/><text fill="#000000" font-family="sans-serif" font-size="11" lengthAdjust="spacingAndGlyphs" textLength="108" x="52" y="621.7549">resume(boolean): void</text><ellipse cx="43" cy="631.1719" fill="#84BE84" rx="3" ry="3" style="stroke: #038048; stroke-width: 1.0;"/><text fill="#000000" font-family="sans-serif" font-size="11" lengthAdjust="spacingAndGlyphs" textLength="150" x="52" y="635.5908">accept(ControllersVisitor): void</text><!--MD5=[ef6fc8a83c8eb455c00aa47991605c31]
class mastermind.controllers.StartController--><rect codeLine="52" fill="#FEFECE" filter="url(#fvs13m9duo553)" height="89.5078" id="mastermind.controllers.StartController" style="stroke: #A80036; stroke-width: 1.5;" width="176" x="540" y="552.5"/><ellipse cx="584.25" cy="568.5" fill="#ADD1B2" rx="11" ry="11" style="stroke: #A80036; stroke-width: 1.0;"/><path d="M587.0156,564.375 Q587.1719,564.1563 587.3594,564.0469 Q587.5469,563.9375 587.7656,563.9375 Q588.1406,563.9375 588.375,564.2031 Q588.6094,564.4531 588.6094,565.0625 L588.6094,566.5156 Q588.6094,567.125 588.375,567.3906 Q588.1406,567.6563 587.7656,567.6563 Q587.4219,567.6563 587.2188,567.4531 Q587.0156,567.2656 586.9063,566.75 Q586.8594,566.3906 586.6719,566.2031 Q586.3438,565.8281 585.7344,565.6094 Q585.125,565.3906 584.5,565.3906 Q583.7344,565.3906 583.0938,565.7188 Q582.4688,566.0469 581.9688,566.7969 Q581.4844,567.5469 581.4844,568.5781 L581.4844,569.6719 Q581.4844,570.9063 582.375,571.7344 Q583.2656,572.5469 584.8594,572.5469 Q585.7969,572.5469 586.4531,572.2969 Q586.8438,572.1406 587.2656,571.7031 Q587.5313,571.4375 587.6719,571.3594 Q587.8281,571.2813 588.0313,571.2813 Q588.3594,571.2813 588.6094,571.5469 Q588.875,571.7969 588.875,572.1406 Q588.875,572.4844 588.5313,572.8906 Q588.0313,573.4688 587.2344,573.7969 Q586.1563,574.25 584.8594,574.25 Q583.3438,574.25 582.1406,573.625 Q581.1563,573.125 580.4688,572.0625 Q579.7813,570.9844 579.7813,569.7031 L579.7813,568.5469 Q579.7813,567.2188 580.3906,566.0781 Q581.0156,564.9219 582.1094,564.3125 Q583.2031,563.6875 584.4375,563.6875 Q585.1719,563.6875 585.8125,563.8594 Q586.4688,564.0156 587.0156,564.375 Z "/><text fill="#000000" font-family="sans-serif" font-size="12" lengthAdjust="spacingAndGlyphs" textLength="79" x="604.75" y="573.4102">StartController</text><line style="stroke: #A80036; stroke-width: 1.5;" x1="541" x2="715" y1="584.5" y2="584.5"/><line style="stroke: #A80036; stroke-width: 1.5;" x1="541" x2="715" y1="592.5" y2="592.5"/><ellipse cx="551" cy="603.5" fill="#84BE84" rx="3" ry="3" style="stroke: #038048; stroke-width: 1.0;"/><text fill="#000000" font-family="sans-serif" font-size="11" lengthAdjust="spacingAndGlyphs" textLength="136" x="560" y="607.9189">StartController(Game, State)</text><ellipse cx="551" cy="617.3359" fill="#84BE84" rx="3" ry="3" style="stroke: #038048; stroke-width: 1.0;"/><text fill="#000000" font-family="sans-serif" font-size="11" lengthAdjust="spacingAndGlyphs" textLength="56" x="560" y="621.7549">start(): void</text><ellipse cx="551" cy="631.1719" fill="#84BE84" rx="3" ry="3" style="stroke: #038048; stroke-width: 1.0;"/><text fill="#000000" font-family="sans-serif" font-size="11" lengthAdjust="spacingAndGlyphs" textLength="150" x="560" y="635.5908">accept(ControllersVisitor): void</text><!--MD5=[ff345c89f878e0f573ea2dc92593b33d]
class mastermind.controllers.PlayController--><rect codeLine="34" fill="#FEFECE" filter="url(#fvs13m9duo553)" height="131.0156" id="mastermind.controllers.PlayController" style="stroke: #A80036; stroke-width: 1.5;" width="260" x="245" y="532"/><ellipse cx="332.25" cy="548" fill="#ADD1B2" rx="11" ry="11" style="stroke: #A80036; stroke-width: 1.0;"/><path d="M335.0156,543.875 Q335.1719,543.6563 335.3594,543.5469 Q335.5469,543.4375 335.7656,543.4375 Q336.1406,543.4375 336.375,543.7031 Q336.6094,543.9531 336.6094,544.5625 L336.6094,546.0156 Q336.6094,546.625 336.375,546.8906 Q336.1406,547.1563 335.7656,547.1563 Q335.4219,547.1563 335.2188,546.9531 Q335.0156,546.7656 334.9063,546.25 Q334.8594,545.8906 334.6719,545.7031 Q334.3438,545.3281 333.7344,545.1094 Q333.125,544.8906 332.5,544.8906 Q331.7344,544.8906 331.0938,545.2188 Q330.4688,545.5469 329.9688,546.2969 Q329.4844,547.0469 329.4844,548.0781 L329.4844,549.1719 Q329.4844,550.4063 330.375,551.2344 Q331.2656,552.0469 332.8594,552.0469 Q333.7969,552.0469 334.4531,551.7969 Q334.8438,551.6406 335.2656,551.2031 Q335.5313,550.9375 335.6719,550.8594 Q335.8281,550.7813 336.0313,550.7813 Q336.3594,550.7813 336.6094,551.0469 Q336.875,551.2969 336.875,551.6406 Q336.875,551.9844 336.5313,552.3906 Q336.0313,552.9688 335.2344,553.2969 Q334.1563,553.75 332.8594,553.75 Q331.3438,553.75 330.1406,553.125 Q329.1563,552.625 328.4688,551.5625 Q327.7813,550.4844 327.7813,549.2031 L327.7813,548.0469 Q327.7813,546.7188 328.3906,545.5781 Q329.0156,544.4219 330.1094,543.8125 Q331.2031,543.1875 332.4375,543.1875 Q333.1719,543.1875 333.8125,543.3594 Q334.4688,543.5156 335.0156,543.875 Z "/><text fill="#000000" font-family="sans-serif" font-size="12" lengthAdjust="spacingAndGlyphs" textLength="77" x="352.75" y="552.9102">PlayController</text><line style="stroke: #A80036; stroke-width: 1.5;" x1="246" x2="504" y1="564" y2="564"/><line style="stroke: #A80036; stroke-width: 1.5;" x1="246" x2="504" y1="572" y2="572"/><ellipse cx="256" cy="583" fill="#84BE84" rx="3" ry="3" style="stroke: #038048; stroke-width: 1.0;"/><text fill="#000000" font-family="sans-serif" font-size="11" lengthAdjust="spacingAndGlyphs" textLength="133" x="265" y="587.4189">PlayController(Game, State)</text><ellipse cx="256" cy="596.8359" fill="#84BE84" rx="3" ry="3" style="stroke: #038048; stroke-width: 1.0;"/><text fill="#000000" font-family="sans-serif" font-size="11" lengthAdjust="spacingAndGlyphs" textLength="234" x="265" y="601.2549">addProposedCombination(ProposedCombination)</text><ellipse cx="256" cy="610.6719" fill="#84BE84" rx="3" ry="3" style="stroke: #038048; stroke-width: 1.0;"/><text fill="#000000" font-family="sans-serif" font-size="11" lengthAdjust="spacingAndGlyphs" textLength="95" x="265" y="615.0908">isWinner(): Boolean</text><ellipse cx="256" cy="624.5078" fill="#84BE84" rx="3" ry="3" style="stroke: #038048; stroke-width: 1.0;"/><text fill="#000000" font-family="sans-serif" font-size="11" lengthAdjust="spacingAndGlyphs" textLength="95" x="265" y="628.9268">isLooser(): Boolean</text><ellipse cx="256" cy="638.3438" fill="#84BE84" rx="3" ry="3" style="stroke: #038048; stroke-width: 1.0;"/><text fill="#000000" font-family="sans-serif" font-size="11" lengthAdjust="spacingAndGlyphs" textLength="100" x="265" y="642.7627">continueState(): void</text><ellipse cx="256" cy="652.1797" fill="#84BE84" rx="3" ry="3" style="stroke: #038048; stroke-width: 1.0;"/><text fill="#000000" font-family="sans-serif" font-size="11" lengthAdjust="spacingAndGlyphs" textLength="150" x="265" y="656.5986">accept(ControllersVisitor): void</text><!--MD5=[23fa68f5dd51b02db50930b64c1246c4]
class mastermind.controllers.Logic--><rect codeLine="20" fill="#FEFECE" filter="url(#fvs13m9duo553)" height="117.1797" id="mastermind.controllers.Logic" style="stroke: #A80036; stroke-width: 1.5;" width="264" x="452" y="42"/><ellipse cx="564.75" cy="58" fill="#ADD1B2" rx="11" ry="11" style="stroke: #A80036; stroke-width: 1.0;"/><path d="M567.5156,53.875 Q567.6719,53.6563 567.8594,53.5469 Q568.0469,53.4375 568.2656,53.4375 Q568.6406,53.4375 568.875,53.7031 Q569.1094,53.9531 569.1094,54.5625 L569.1094,56.0156 Q569.1094,56.625 568.875,56.8906 Q568.6406,57.1563 568.2656,57.1563 Q567.9219,57.1563 567.7188,56.9531 Q567.5156,56.7656 567.4063,56.25 Q567.3594,55.8906 567.1719,55.7031 Q566.8438,55.3281 566.2344,55.1094 Q565.625,54.8906 565,54.8906 Q564.2344,54.8906 563.5938,55.2188 Q562.9688,55.5469 562.4688,56.2969 Q561.9844,57.0469 561.9844,58.0781 L561.9844,59.1719 Q561.9844,60.4063 562.875,61.2344 Q563.7656,62.0469 565.3594,62.0469 Q566.2969,62.0469 566.9531,61.7969 Q567.3438,61.6406 567.7656,61.2031 Q568.0313,60.9375 568.1719,60.8594 Q568.3281,60.7813 568.5313,60.7813 Q568.8594,60.7813 569.1094,61.0469 Q569.375,61.2969 569.375,61.6406 Q569.375,61.9844 569.0313,62.3906 Q568.5313,62.9688 567.7344,63.2969 Q566.6563,63.75 565.3594,63.75 Q563.8438,63.75 562.6406,63.125 Q561.6563,62.625 560.9688,61.5625 Q560.2813,60.4844 560.2813,59.2031 L560.2813,58.0469 Q560.2813,56.7188 560.8906,55.5781 Q561.5156,54.4219 562.6094,53.8125 Q563.7031,53.1875 564.9375,53.1875 Q565.6719,53.1875 566.3125,53.3594 Q566.9688,53.5156 567.5156,53.875 Z "/><text fill="#000000" font-family="sans-serif" font-size="12" lengthAdjust="spacingAndGlyphs" textLength="30" x="585.25" y="62.9102">Logic</text><line style="stroke: #A80036; stroke-width: 1.5;" x1="453" x2="715" y1="74" y2="74"/><rect fill="none" height="6" style="stroke: #C82930; stroke-width: 1.0;" width="6" x="460" y="82"/><text fill="#000000" font-family="sans-serif" font-size="11" lengthAdjust="spacingAndGlyphs" textLength="55" x="472" y="89.4189">state: State</text><rect fill="none" height="6" style="stroke: #C82930; stroke-width: 1.0;" width="6" x="460" y="95.8359"/><text fill="#000000" font-family="sans-serif" font-size="11" lengthAdjust="spacingAndGlyphs" textLength="60" x="472" y="103.2549">game: Game</text><rect fill="none" height="6" style="stroke: #C82930; stroke-width: 1.0;" width="6" x="460" y="109.6719"/><text fill="#000000" font-family="sans-serif" font-size="11" lengthAdjust="spacingAndGlyphs" textLength="238" x="472" y="117.0908">controllers: Map&lt;StateValue, UseCaseController&gt;</text><line style="stroke: #A80036; stroke-width: 1.5;" x1="453" x2="715" y1="123.5078" y2="123.5078"/><ellipse cx="463" cy="134.5078" fill="#84BE84" rx="3" ry="3" style="stroke: #038048; stroke-width: 1.0;"/><text fill="#000000" font-family="sans-serif" font-size="11" lengthAdjust="spacingAndGlyphs" textLength="34" x="472" y="138.9268">Logic()</text><ellipse cx="463" cy="148.3438" fill="#84BE84" rx="3" ry="3" style="stroke: #038048; stroke-width: 1.0;"/><text fill="#000000" font-family="sans-serif" font-size="11" lengthAdjust="spacingAndGlyphs" textLength="209" x="472" y="152.7627">getUseCaseController(): UseCaseController</text><!--MD5=[5e669b60aaac1a014a32b452096260f0]
class mastermind.models.Game--><rect fill="#FEFECE" filter="url(#fvs13m9duo553)" height="48" id="mastermind.models.Game" style="stroke: #A80036; stroke-width: 1.5;" width="66" x="820" y="739"/><ellipse cx="835" cy="755" fill="#ADD1B2" rx="11" ry="11" style="stroke: #A80036; stroke-width: 1.0;"/><path d="M837.7656,750.875 Q837.9219,750.6563 838.1094,750.5469 Q838.2969,750.4375 838.5156,750.4375 Q838.8906,750.4375 839.125,750.7031 Q839.3594,750.9531 839.3594,751.5625 L839.3594,753.0156 Q839.3594,753.625 839.125,753.8906 Q838.8906,754.1563 838.5156,754.1563 Q838.1719,754.1563 837.9688,753.9531 Q837.7656,753.7656 837.6563,753.25 Q837.6094,752.8906 837.4219,752.7031 Q837.0938,752.3281 836.4844,752.1094 Q835.875,751.8906 835.25,751.8906 Q834.4844,751.8906 833.8438,752.2188 Q833.2188,752.5469 832.7188,753.2969 Q832.2344,754.0469 832.2344,755.0781 L832.2344,756.1719 Q832.2344,757.4063 833.125,758.2344 Q834.0156,759.0469 835.6094,759.0469 Q836.5469,759.0469 837.2031,758.7969 Q837.5938,758.6406 838.0156,758.2031 Q838.2813,757.9375 838.4219,757.8594 Q838.5781,757.7813 838.7813,757.7813 Q839.1094,757.7813 839.3594,758.0469 Q839.625,758.2969 839.625,758.6406 Q839.625,758.9844 839.2813,759.3906 Q838.7813,759.9688 837.9844,760.2969 Q836.9063,760.75 835.6094,760.75 Q834.0938,760.75 832.8906,760.125 Q831.9063,759.625 831.2188,758.5625 Q830.5313,757.4844 830.5313,756.2031 L830.5313,755.0469 Q830.5313,753.7188 831.1406,752.5781 Q831.7656,751.4219 832.8594,750.8125 Q833.9531,750.1875 835.1875,750.1875 Q835.9219,750.1875 836.5625,750.3594 Q837.2188,750.5156 837.7656,750.875 Z "/><text fill="#000000" font-family="sans-serif" font-size="12" lengthAdjust="spacingAndGlyphs" textLength="34" x="849" y="759.9102">Game</text><line style="stroke: #A80036; stroke-width: 1.5;" x1="821" x2="885" y1="771" y2="771"/><line style="stroke: #A80036; stroke-width: 1.5;" x1="821" x2="885" y1="779" y2="779"/><!--MD5=[3fa5b68df7c2e74eea52f74658e5066a]
class mastermind.models.State--><rect fill="#FEFECE" filter="url(#fvs13m9duo553)" height="48" id="mastermind.models.State" style="stroke: #A80036; stroke-width: 1.5;" width="60" x="725" y="739"/><ellipse cx="740" cy="755" fill="#ADD1B2" rx="11" ry="11" style="stroke: #A80036; stroke-width: 1.0;"/><path d="M742.7656,750.875 Q742.9219,750.6563 743.1094,750.5469 Q743.2969,750.4375 743.5156,750.4375 Q743.8906,750.4375 744.125,750.7031 Q744.3594,750.9531 744.3594,751.5625 L744.3594,753.0156 Q744.3594,753.625 744.125,753.8906 Q743.8906,754.1563 743.5156,754.1563 Q743.1719,754.1563 742.9688,753.9531 Q742.7656,753.7656 742.6563,753.25 Q742.6094,752.8906 742.4219,752.7031 Q742.0938,752.3281 741.4844,752.1094 Q740.875,751.8906 740.25,751.8906 Q739.4844,751.8906 738.8438,752.2188 Q738.2188,752.5469 737.7188,753.2969 Q737.2344,754.0469 737.2344,755.0781 L737.2344,756.1719 Q737.2344,757.4063 738.125,758.2344 Q739.0156,759.0469 740.6094,759.0469 Q741.5469,759.0469 742.2031,758.7969 Q742.5938,758.6406 743.0156,758.2031 Q743.2813,757.9375 743.4219,757.8594 Q743.5781,757.7813 743.7813,757.7813 Q744.1094,757.7813 744.3594,758.0469 Q744.625,758.2969 744.625,758.6406 Q744.625,758.9844 744.2813,759.3906 Q743.7813,759.9688 742.9844,760.2969 Q741.9063,760.75 740.6094,760.75 Q739.0938,760.75 737.8906,760.125 Q736.9063,759.625 736.2188,758.5625 Q735.5313,757.4844 735.5313,756.2031 L735.5313,755.0469 Q735.5313,753.7188 736.1406,752.5781 Q736.7656,751.4219 737.8594,750.8125 Q738.9531,750.1875 740.1875,750.1875 Q740.9219,750.1875 741.5625,750.3594 Q742.2188,750.5156 742.7656,750.875 Z "/><text fill="#000000" font-family="sans-serif" font-size="12" lengthAdjust="spacingAndGlyphs" textLength="28" x="754" y="759.9102">State</text><line style="stroke: #A80036; stroke-width: 1.5;" x1="726" x2="784" y1="771" y2="771"/><line style="stroke: #A80036; stroke-width: 1.5;" x1="726" x2="784" y1="779" y2="779"/><!--MD5=[ec0d7954693320b8f20d2ff1330d13b4]
class mastermind.models.StateValue--><rect fill="#FEFECE" filter="url(#fvs13m9duo553)" height="48" id="mastermind.models.StateValue" style="stroke: #A80036; stroke-width: 1.5;" width="91" x="921.5" y="739"/><ellipse cx="936.5" cy="755" fill="#ADD1B2" rx="11" ry="11" style="stroke: #A80036; stroke-width: 1.0;"/><path d="M939.2656,750.875 Q939.4219,750.6563 939.6094,750.5469 Q939.7969,750.4375 940.0156,750.4375 Q940.3906,750.4375 940.625,750.7031 Q940.8594,750.9531 940.8594,751.5625 L940.8594,753.0156 Q940.8594,753.625 940.625,753.8906 Q940.3906,754.1563 940.0156,754.1563 Q939.6719,754.1563 939.4688,753.9531 Q939.2656,753.7656 939.1563,753.25 Q939.1094,752.8906 938.9219,752.7031 Q938.5938,752.3281 937.9844,752.1094 Q937.375,751.8906 936.75,751.8906 Q935.9844,751.8906 935.3438,752.2188 Q934.7188,752.5469 934.2188,753.2969 Q933.7344,754.0469 933.7344,755.0781 L933.7344,756.1719 Q933.7344,757.4063 934.625,758.2344 Q935.5156,759.0469 937.1094,759.0469 Q938.0469,759.0469 938.7031,758.7969 Q939.0938,758.6406 939.5156,758.2031 Q939.7813,757.9375 939.9219,757.8594 Q940.0781,757.7813 940.2813,757.7813 Q940.6094,757.7813 940.8594,758.0469 Q941.125,758.2969 941.125,758.6406 Q941.125,758.9844 940.7813,759.3906 Q940.2813,759.9688 939.4844,760.2969 Q938.4063,760.75 937.1094,760.75 Q935.5938,760.75 934.3906,760.125 Q933.4063,759.625 932.7188,758.5625 Q932.0313,757.4844 932.0313,756.2031 L932.0313,755.0469 Q932.0313,753.7188 932.6406,752.5781 Q933.2656,751.4219 934.3594,750.8125 Q935.4531,750.1875 936.6875,750.1875 Q937.4219,750.1875 938.0625,750.3594 Q938.7188,750.5156 939.2656,750.875 Z "/><text fill="#000000" font-family="sans-serif" font-size="12" lengthAdjust="spacingAndGlyphs" textLength="59" x="950.5" y="759.9102">StateValue</text><line style="stroke: #A80036; stroke-width: 1.5;" x1="922.5" x2="1011.5" y1="771" y2="771"/><line style="stroke: #A80036; stroke-width: 1.5;" x1="922.5" x2="1011.5" y1="779" y2="779"/><!--MD5=[ce8dc00f64766c3d9ddc5c23d11e019b]
class mastermind.models.ProposedCombination--><rect fill="#FEFECE" filter="url(#fvs13m9duo553)" height="48" id="mastermind.models.ProposedCombination" style="stroke: #A80036; stroke-width: 1.5;" width="157" x="532.5" y="739"/><ellipse cx="547.5" cy="755" fill="#ADD1B2" rx="11" ry="11" style="stroke: #A80036; stroke-width: 1.0;"/><path d="M550.2656,750.875 Q550.4219,750.6563 550.6094,750.5469 Q550.7969,750.4375 551.0156,750.4375 Q551.3906,750.4375 551.625,750.7031 Q551.8594,750.9531 551.8594,751.5625 L551.8594,753.0156 Q551.8594,753.625 551.625,753.8906 Q551.3906,754.1563 551.0156,754.1563 Q550.6719,754.1563 550.4688,753.9531 Q550.2656,753.7656 550.1563,753.25 Q550.1094,752.8906 549.9219,752.7031 Q549.5938,752.3281 548.9844,752.1094 Q548.375,751.8906 547.75,751.8906 Q546.9844,751.8906 546.3438,752.2188 Q545.7188,752.5469 545.2188,753.2969 Q544.7344,754.0469 544.7344,755.0781 L544.7344,756.1719 Q544.7344,757.4063 545.625,758.2344 Q546.5156,759.0469 548.1094,759.0469 Q549.0469,759.0469 549.7031,758.7969 Q550.0938,758.6406 550.5156,758.2031 Q550.7813,757.9375 550.9219,757.8594 Q551.0781,757.7813 551.2813,757.7813 Q551.6094,757.7813 551.8594,758.0469 Q552.125,758.2969 552.125,758.6406 Q552.125,758.9844 551.7813,759.3906 Q551.2813,759.9688 550.4844,760.2969 Q549.4063,760.75 548.1094,760.75 Q546.5938,760.75 545.3906,760.125 Q544.4063,759.625 543.7188,758.5625 Q543.0313,757.4844 543.0313,756.2031 L543.0313,755.0469 Q543.0313,753.7188 543.6406,752.5781 Q544.2656,751.4219 545.3594,750.8125 Q546.4531,750.1875 547.6875,750.1875 Q548.4219,750.1875 549.0625,750.3594 Q549.7188,750.5156 550.2656,750.875 Z "/><text fill="#000000" font-family="sans-serif" font-size="12" lengthAdjust="spacingAndGlyphs" textLength="125" x="561.5" y="759.9102">ProposedCombination</text><line style="stroke: #A80036; stroke-width: 1.5;" x1="533.5" x2="688.5" y1="771" y2="771"/><line style="stroke: #A80036; stroke-width: 1.5;" x1="533.5" x2="688.5" y1="779" y2="779"/><!--MD5=[a8a83881b90490f923aa71f2c5ea5dc6]
class java.util.Map--><rect fill="#FEFECE" filter="url(#fvs13m9duo553)" height="48" id="java.util.Map" style="stroke: #A80036; stroke-width: 1.5;" width="55" x="1226.5" y="246.5"/><ellipse cx="1241.5" cy="262.5" fill="#ADD1B2" rx="11" ry="11" style="stroke: #A80036; stroke-width: 1.0;"/><path d="M1244.2656,258.375 Q1244.4219,258.1563 1244.6094,258.0469 Q1244.7969,257.9375 1245.0156,257.9375 Q1245.3906,257.9375 1245.625,258.2031 Q1245.8594,258.4531 1245.8594,259.0625 L1245.8594,260.5156 Q1245.8594,261.125 1245.625,261.3906 Q1245.3906,261.6563 1245.0156,261.6563 Q1244.6719,261.6563 1244.4688,261.4531 Q1244.2656,261.2656 1244.1563,260.75 Q1244.1094,260.3906 1243.9219,260.2031 Q1243.5938,259.8281 1242.9844,259.6094 Q1242.375,259.3906 1241.75,259.3906 Q1240.9844,259.3906 1240.3438,259.7188 Q1239.7188,260.0469 1239.2188,260.7969 Q1238.7344,261.5469 1238.7344,262.5781 L1238.7344,263.6719 Q1238.7344,264.9063 1239.625,265.7344 Q1240.5156,266.5469 1242.1094,266.5469 Q1243.0469,266.5469 1243.7031,266.2969 Q1244.0938,266.1406 1244.5156,265.7031 Q1244.7813,265.4375 1244.9219,265.3594 Q1245.0781,265.2813 1245.2813,265.2813 Q1245.6094,265.2813 1245.8594,265.5469 Q1246.125,265.7969 1246.125,266.1406 Q1246.125,266.4844 1245.7813,266.8906 Q1245.2813,267.4688 1244.4844,267.7969 Q1243.4063,268.25 1242.1094,268.25 Q1240.5938,268.25 1239.3906,267.625 Q1238.4063,267.125 1237.7188,266.0625 Q1237.0313,264.9844 1237.0313,263.7031 L1237.0313,262.5469 Q1237.0313,261.2188 1237.6406,260.0781 Q1238.2656,258.9219 1239.3594,258.3125 Q1240.4531,257.6875 1241.6875,257.6875 Q1242.4219,257.6875 1243.0625,257.8594 Q1243.7188,258.0156 1244.2656,258.375 Z "/><text fill="#000000" font-family="sans-serif" font-size="12" lengthAdjust="spacingAndGlyphs" textLength="23" x="1255.5" y="267.4102">Map</text><line style="stroke: #A80036; stroke-width: 1.5;" x1="1227.5" x2="1280.5" y1="278.5" y2="278.5"/><line style="stroke: #A80036; stroke-width: 1.5;" x1="1227.5" x2="1280.5" y1="286.5" y2="286.5"/><!--MD5=[488307e9d2e04720ff540b64278e65ae]
class java.util.HashMap--><rect fill="#FEFECE" filter="url(#fvs13m9duo553)" height="48" id="java.util.HashMap" style="stroke: #A80036; stroke-width: 1.5;" width="85" x="1106.5" y="246.5"/><ellipse cx="1121.5" cy="262.5" fill="#ADD1B2" rx="11" ry="11" style="stroke: #A80036; stroke-width: 1.0;"/><path d="M1124.2656,258.375 Q1124.4219,258.1563 1124.6094,258.0469 Q1124.7969,257.9375 1125.0156,257.9375 Q1125.3906,257.9375 1125.625,258.2031 Q1125.8594,258.4531 1125.8594,259.0625 L1125.8594,260.5156 Q1125.8594,261.125 1125.625,261.3906 Q1125.3906,261.6563 1125.0156,261.6563 Q1124.6719,261.6563 1124.4688,261.4531 Q1124.2656,261.2656 1124.1563,260.75 Q1124.1094,260.3906 1123.9219,260.2031 Q1123.5938,259.8281 1122.9844,259.6094 Q1122.375,259.3906 1121.75,259.3906 Q1120.9844,259.3906 1120.3438,259.7188 Q1119.7188,260.0469 1119.2188,260.7969 Q1118.7344,261.5469 1118.7344,262.5781 L1118.7344,263.6719 Q1118.7344,264.9063 1119.625,265.7344 Q1120.5156,266.5469 1122.1094,266.5469 Q1123.0469,266.5469 1123.7031,266.2969 Q1124.0938,266.1406 1124.5156,265.7031 Q1124.7813,265.4375 1124.9219,265.3594 Q1125.0781,265.2813 1125.2813,265.2813 Q1125.6094,265.2813 1125.8594,265.5469 Q1126.125,265.7969 1126.125,266.1406 Q1126.125,266.4844 1125.7813,266.8906 Q1125.2813,267.4688 1124.4844,267.7969 Q1123.4063,268.25 1122.1094,268.25 Q1120.5938,268.25 1119.3906,267.625 Q1118.4063,267.125 1117.7188,266.0625 Q1117.0313,264.9844 1117.0313,263.7031 L1117.0313,262.5469 Q1117.0313,261.2188 1117.6406,260.0781 Q1118.2656,258.9219 1119.3594,258.3125 Q1120.4531,257.6875 1121.6875,257.6875 Q1122.4219,257.6875 1123.0625,257.8594 Q1123.7188,258.0156 1124.2656,258.375 Z "/><text fill="#000000" font-family="sans-serif" font-size="12" lengthAdjust="spacingAndGlyphs" textLength="53" x="1135.5" y="267.4102">HashMap</text><line style="stroke: #A80036; stroke-width: 1.5;" x1="1107.5" x2="1190.5" y1="278.5" y2="278.5"/><line style="stroke: #A80036; stroke-width: 1.5;" x1="1107.5" x2="1190.5" y1="286.5" y2="286.5"/><!--MD5=[4b9886894fe937e7a7a225fffc451dde]
link mastermind.controllers.UseCaseController to mastermind.models.Game--><path codeLine="8" d="M654.72,322.04 C675.23,339.28 696.29,359.85 712,382 C794.1,497.81 834.37,667.09 847.75,733.64 " fill="none" id="mastermind.controllers.UseCaseController-to-mastermind.models.Game" style="stroke: #A80036; stroke-width: 1.0;"/><polygon fill="#A80036" points="848.74,738.62,850.9134,729.014,847.7677,733.7155,843.0662,730.5697,848.74,738.62" style="stroke: #A80036; stroke-width: 1.0;"/><!--MD5=[9f540c17515d186d34e5676ace271934]
link mastermind.controllers.UseCaseController to mastermind.models.State--><path codeLine="9" d="M621.84,322.3 C657.17,372.7 708.09,453.54 733,532 C755.22,601.99 756.91,689.49 756.07,733.67 " fill="none" id="mastermind.controllers.UseCaseController-to-mastermind.models.State" style="stroke: #A80036; stroke-width: 1.0;"/><polygon fill="#A80036" points="755.96,738.84,760.1646,729.9338,756.0743,733.8413,752.1667,729.7509,755.96,738.84" style="stroke: #A80036; stroke-width: 1.0;"/><!--MD5=[26e34df065725a1640f8e9f55c8f328e]
link mastermind.controllers.UseCaseController to mastermind.controllers.ControllersVisitor--><path codeLine="10" d="M555.84,322.09 C545.95,339.86 534.87,359.77 525.07,377.37 " fill="none" id="mastermind.controllers.UseCaseController-to-mastermind.controllers.ControllersVisitor" style="stroke: #A80036; stroke-width: 1.0; stroke-dasharray: 7.0,7.0;"/><polygon fill="#A80036" points="522.61,381.79,530.4922,375.8848,525.0491,377.4253,523.5086,371.9822,522.61,381.79" style="stroke: #A80036; stroke-width: 1.0;"/><!--MD5=[15edb0e560576a4df9a101b4b7deca6f]
link mastermind.controllers.ControllersVisitor to mastermind.controllers.ResumeController--><path codeLine="16" d="M415.74,455.22 C361.16,474.32 288.52,501.79 227,532 C216.08,537.37 204.81,543.5 193.89,549.81 " fill="none" id="mastermind.controllers.ControllersVisitor-to-mastermind.controllers.ResumeController" style="stroke: #A80036; stroke-width: 1.0; stroke-dasharray: 7.0,7.0;"/><polygon fill="#A80036" points="189.55,552.33,199.3399,551.2543,193.8699,549.8124,195.3118,544.3424,189.55,552.33" style="stroke: #A80036; stroke-width: 1.0;"/><!--MD5=[a717f76ebf50cca36e12a395c24b4956]
link mastermind.controllers.ControllersVisitor to mastermind.controllers.StartController--><path codeLine="17" d="M532.16,472.27 C550.15,495.59 572.24,524.23 590.68,548.13 " fill="none" id="mastermind.controllers.ControllersVisitor-to-mastermind.controllers.StartController" style="stroke: #A80036; stroke-width: 1.0; stroke-dasharray: 7.0,7.0;"/><polygon fill="#A80036" points="593.85,552.23,591.5131,542.6624,590.7932,548.2733,585.1823,547.5533,593.85,552.23" style="stroke: #A80036; stroke-width: 1.0;"/><!--MD5=[4691c15bcde212caafae5be85aafea84]
link mastermind.controllers.ControllersVisitor to mastermind.controllers.PlayController--><path codeLine="18" d="M465.68,472.27 C453.31,489.22 438.88,508.99 425.22,527.7 " fill="none" id="mastermind.controllers.ControllersVisitor-to-mastermind.controllers.PlayController" style="stroke: #A80036; stroke-width: 1.0; stroke-dasharray: 7.0,7.0;"/><polygon fill="#A80036" points="422.14,531.92,430.6819,527.0173,425.0919,527.8844,424.2248,522.2943,422.14,531.92" style="stroke: #A80036; stroke-width: 1.0;"/><!--MD5=[1362c68a077cf7f69106526d0b29b97f]
link mastermind.controllers.Logic to mastermind.models.Game--><path codeLine="27" d="M712.2063,166.4916 C712.2063,166.4916 738.8,189.41 749,202.5 C874.47,363.52 865.16,629.08 856.89,725.55 " fill="none" id="mastermind.controllers.Logic-mastermind.models.Game" style="stroke: #A80036; stroke-width: 1.0;"/><polygon fill="#A80036" points="855.67,738.78,860.4829,730.1872,856.1311,733.8013,852.517,729.4495,855.67,738.78" style="stroke: #A80036; stroke-width: 1.0;"/><line style="stroke: #A80036; stroke-width: 1.0;" x1="856.1311" x2="856.865" y1="733.8013" y2="725.83"/><polygon fill="#A80036" points="702.6,159.3,705.006,166.0979,712.2063,166.4916,709.8003,159.6937,702.6,159.3" style="stroke: #A80036; stroke-width: 1.0;"/><!--MD5=[b2128c61d986d82cc1c54858f2adf26c]
link mastermind.controllers.Logic to mastermind.models.State--><path codeLine="28" d="M666.8989,167.9377 C666.8989,167.9377 686.03,190.56 693,202.5 C802.88,390.91 793.88,470.1 771,687 C769.65,699.79 767.04,713.62 764.31,725.87 " fill="none" id="mastermind.controllers.Logic-mastermind.models.State" style="stroke: #A80036; stroke-width: 1.0;"/><polygon fill="#A80036" points="761.25,738.89,767.2114,731.0503,762.3992,734.0239,759.4256,729.2116,761.25,738.89" style="stroke: #A80036; stroke-width: 1.0;"/><line style="stroke: #A80036; stroke-width: 1.0;" x1="762.3992" x2="764.225" y1="734.0239" y2="726.235"/><polygon fill="#A80036" points="658.6,159.27,659.8602,166.3701,666.8989,167.9377,665.6387,160.8376,658.6,159.27" style="stroke: #A80036; stroke-width: 1.0;"/><!--MD5=[df1e5c4205056df8bbbd88f46de27f8a]
link mastermind.controllers.Logic to mastermind.controllers.UseCaseController--><path codeLine="29" d="M584,159.32 C584,176.86 584,196.1 584,213.53 " fill="none" id="mastermind.controllers.Logic-to-mastermind.controllers.UseCaseController" style="stroke: #A80036; stroke-width: 1.0;"/><polygon fill="#A80036" points="584,218.87,588,209.87,584,213.87,580,209.87,584,218.87" style="stroke: #A80036; stroke-width: 1.0;"/><!--MD5=[b131d1a5d23c22ebb8fbc631711b442e]
link mastermind.controllers.Logic to mastermind.models.StateValue--><path codeLine="30" d="M726.8942,144.7646 C726.8942,144.7646 786.16,178.33 808,202.5 C948.36,357.81 965.66,628.48 967.17,725.83 " fill="none" id="mastermind.controllers.Logic-mastermind.models.StateValue" style="stroke: #A80036; stroke-width: 1.0;"/><polygon fill="#A80036" points="967.29,738.9,971.2107,729.8652,967.246,733.9002,963.211,729.9355,967.29,738.9" style="stroke: #A80036; stroke-width: 1.0;"/><line style="stroke: #A80036; stroke-width: 1.0;" x1="967.246" x2="967.17" y1="733.9002" y2="725.9"/><polygon fill="#A80036" points="716.02,139.69,719.7656,145.852,726.8942,144.7646,723.1486,138.6026,716.02,139.69" style="stroke: #A80036; stroke-width: 1.0;"/><!--MD5=[fc24b75630ff8e398ba55db0f8ccdfce]
link mastermind.controllers.Logic to java.util.Map--><path codeLine="31" d="M727.9692,111.5089 C727.9692,111.5089 1131.58,152.9 1209,202.5 C1221.12,210.27 1230.76,222.59 1237.96,234.57 " fill="none" id="mastermind.controllers.Logic-java.util.Map" style="stroke: #A80036; stroke-width: 1.0;"/><polygon fill="#A80036" points="1244.35,246.24,1243.5356,236.4249,1241.9484,241.8545,1236.5188,240.2674,1244.35,246.24" style="stroke: #A80036; stroke-width: 1.0;"/><line style="stroke: #A80036; stroke-width: 1.0;" x1="1241.9484" x2="1238.11" y1="241.8545" y2="234.835"/><polygon fill="#A80036" points="716.01,110.52,721.66,115.0008,727.9692,111.5089,722.3192,107.0281,716.01,110.52" style="stroke: #A80036; stroke-width: 1.0;"/><!--MD5=[9d6de47f9d1fe622ff97f14110e56140]
link mastermind.controllers.Logic to java.util.HashMap--><path codeLine="32" d="M727.9385,109.6536 C727.9385,109.6536 969.93,145.39 1079,202.5 C1095.11,210.94 1110.1,224.19 1122.04,236.7 " fill="none" id="mastermind.controllers.Logic-java.util.HashMap" style="stroke: #A80036; stroke-width: 1.0;"/><polygon fill="#A80036" points="1130.92,246.46,1127.8167,237.1128,1127.5531,242.7635,1121.9024,242.4999,1130.92,246.46" style="stroke: #A80036; stroke-width: 1.0;"/><line style="stroke: #A80036; stroke-width: 1.0;" x1="1127.5531" x2="1122.165" y1="242.7635" y2="236.845"/><polygon fill="#A80036" points="716,108.44,721.5647,113.0263,727.9385,109.6536,722.3738,105.0673,716,108.44" style="stroke: #A80036; stroke-width: 1.0;"/><!--MD5=[85db86fd37da35459992536c6247cdfd]
reverse link mastermind.controllers.UseCaseController to mastermind.controllers.PlayController--><path codeLine="42" d="M474.51,314.36 C445.11,331.11 416.4,353.34 398,382 C369.57,426.28 365.42,486.57 367.46,531.95 " fill="none" id="mastermind.controllers.UseCaseController-backto-mastermind.controllers.PlayController" style="stroke: #A80036; stroke-width: 1.0;"/><polygon fill="none" points="471.38,308.1,492.33,304.88,477.96,320.46,471.38,308.1" style="stroke: #A80036; stroke-width: 1.0;"/><!--MD5=[893151d77f19b7bce7150383e5663b58]
link mastermind.controllers.PlayController to mastermind.models.ProposedCombination--><path codeLine="43" d="M468.27,663.12 C504.96,688.54 544.99,716.27 573.29,735.88 " fill="none" id="mastermind.controllers.PlayController-to-mastermind.models.ProposedCombination" style="stroke: #A80036; stroke-width: 1.0; stroke-dasharray: 7.0,7.0;"/><polygon fill="#A80036" points="577.73,738.95,572.6132,730.5346,573.6211,736.101,568.0548,737.1089,577.73,738.95" style="stroke: #A80036; stroke-width: 1.0;"/><!--MD5=[78ff6aa21193db7499e542dd818146e4]
reverse link mastermind.controllers.UseCaseController to mastermind.controllers.ResumeController--><path codeLine="51" d="M474.09,319.07 C437.28,336.85 396.78,358.48 362,382 C286.37,433.14 209.34,506.12 163.36,552.39 " fill="none" id="mastermind.controllers.UseCaseController-backto-mastermind.controllers.ResumeController" style="stroke: #A80036; stroke-width: 1.0;"/><polygon fill="none" points="471.32,312.64,492.39,310.4,477.31,325.29,471.32,312.64" style="stroke: #A80036; stroke-width: 1.0;"/><!--MD5=[a3279039686b49f9022ff978b41b4a0f]
reverse link mastermind.controllers.UseCaseController to mastermind.controllers.StartController--><path codeLine="57" d="M593.6,342.38 C602.25,406.31 614.71,498.35 622.02,552.33 " fill="none" id="mastermind.controllers.UseCaseController-backto-mastermind.controllers.StartController" style="stroke: #A80036; stroke-width: 1.0;"/><polygon fill="none" points="586.62,343.04,590.88,322.28,600.5,341.16,586.62,343.04" style="stroke: #A80036; stroke-width: 1.0;"/><!--MD5=[7885de62f692781b98b554720fa23d88]
link mastermind.controllers.StartController to mastermind.models.Game--><path codeLine="58" d="M716.41,637.88 C745.71,653.28 777.37,672.66 803,695 C815.98,706.31 827.66,721.52 836.46,734.59 " fill="none" id="mastermind.controllers.StartController-to-mastermind.models.Game" style="stroke: #A80036; stroke-width: 1.0; stroke-dasharray: 7.0,7.0;"/><polygon fill="#A80036" points="839.34,738.93,837.6913,729.2201,836.5731,734.7654,831.0278,733.6472,839.34,738.93" style="stroke: #A80036; stroke-width: 1.0;"/><!--MD5=[0703926e559431e4b6cc8ab73d048f58]
link mastermind.controllers.StartController to mastermind.models.State--><path codeLine="59" d="M665.18,642.7 C678.6,658.96 693.7,677.64 707,695 C716.77,707.75 727.19,722.19 735.83,734.4 " fill="none" id="mastermind.controllers.StartController-to-mastermind.models.State" style="stroke: #A80036; stroke-width: 1.0; stroke-dasharray: 7.0,7.0;"/><polygon fill="#A80036" points="738.92,738.79,736.9951,729.1311,736.0355,734.706,730.4606,733.7463,738.92,738.79" style="stroke: #A80036; stroke-width: 1.0;"/><!--MD5=[b6cd3bfc7a2bb2f9be0706d84ef07e77]
@startuml mastermind.controllers

class  mastermind.controllers.UseCaseController{
# game: Game
# state: State
~ UseCaseController(Game, State)
+ {abstract} accept(ControllersVisitor): void
}
mastermind.controllers.UseCaseController -down-> mastermind.models.Game
mastermind.controllers.UseCaseController -down-> mastermind.models.State
mastermind.controllers.UseCaseController ..> mastermind.controllers.ControllersVisitor
class  mastermind.controllers.ControllersVisitor{
~ visit(StartController): void
~ visit(PlayController): void
~ visit(ResumeController): void
}
mastermind.controllers.ControllersVisitor ..> mastermind.controllers.ResumeController
mastermind.controllers.ControllersVisitor ..> mastermind.controllers.StartController
mastermind.controllers.ControllersVisitor ..> mastermind.controllers.PlayController

class  mastermind.controllers.Logic{
- state: State
- game: Game
- controllers: Map<StateValue, UseCaseController>
+ Logic()
+ getUseCaseController(): UseCaseController
}
mastermind.controllers.Logic *-down-> mastermind.models.Game
mastermind.controllers.Logic *-down-> mastermind.models.State
mastermind.controllers.Logic - -> mastermind.controllers.UseCaseController
mastermind.controllers.Logic *-down-> mastermind.models.StateValue
mastermind.controllers.Logic *-down-> java.util.Map
mastermind.controllers.Logic *-down-> java.util.HashMap

class  mastermind.controllers.PlayController{
+ PlayController(Game, State)
+ addProposedCombination(ProposedCombination)
+ isWinner(): Boolean
+ isLooser(): Boolean
+ continueState(): void
+ accept(ControllersVisitor): void
}
mastermind.controllers.UseCaseController <|-down- mastermind.controllers.PlayController
mastermind.controllers.PlayController ..> mastermind.models.ProposedCombination

class  mastermind.controllers.ResumeController{
+ ResumeController(Game, State)
+ resume(boolean): void
+ accept(ControllersVisitor): void
}

mastermind.controllers.UseCaseController <|-down- mastermind.controllers.ResumeController
class  mastermind.controllers.StartController{
+ StartController(Game, State)
+ start(): void
+ accept(ControllersVisitor): void
}
mastermind.controllers.UseCaseController <|-down- mastermind.controllers.StartController
mastermind.controllers.StartController ..> mastermind.models.Game
mastermind.controllers.StartController ..> mastermind.models.State

@enduml

PlantUML version 1.2020.18(Wed Sep 30 21:40:44 CEST 2020)
(GPL source distribution)
Java Runtime: OpenJDK Runtime Environment
JVM: OpenJDK 64-Bit Server VM
Default Encoding: Cp1252
Language: es
Country: ES
--></g></svg>