<?xml version="1.0" encoding="UTF-8" standalone="no"?><svg xmlns="http://www.w3.org/2000/svg" xmlns:xlink="http://www.w3.org/1999/xlink" contentScriptType="application/ecmascript" contentStyleType="text/css" height="1120px" preserveAspectRatio="none" style="width:1357px;height:1120px;" version="1.1" viewBox="0 0 1357 1120" width="1357px" zoomAndPan="magnify"><defs><filter height="300%" id="f1421m8cqjzfy7" width="300%" x="-1" y="-1"><feGaussianBlur result="blurOut" stdDeviation="2.0"/><feColorMatrix in="blurOut" result="blurOut2" type="matrix" values="0 0 0 0 0 0 0 0 0 0 0 0 0 0 0 0 0 0 .4 0"/><feOffset dx="4.0" dy="4.0" in="blurOut2" result="blurOut3"/><feBlend in="SourceGraphic" in2="blurOut3" mode="normal"/></filter></defs><g><!--MD5=[57ab11106b6017d1c059bb8de6501622]
cluster mastermind.views--><polygon fill="#FFFFFF" filter="url(#f1421m8cqjzfy7)" points="930.99,6,1063.99,6,1070.99,29.6094,1229.99,29.6094,1229.99,120,930.99,120,930.99,6" style="stroke: #000000; stroke-width: 1.5;"/><line style="stroke: #000000; stroke-width: 1.5;" x1="930.99" x2="1070.99" y1="29.6094" y2="29.6094"/><text fill="#000000" font-family="sans-serif" font-size="14" font-weight="bold" lengthAdjust="spacingAndGlyphs" textLength="127" x="934.99" y="22.5332">mastermind.views</text><!--MD5=[8c6b41bbfaf6869d5f633b0372feec04]
cluster mastermind.views.console--><polygon fill="#FFFFFF" filter="url(#f1421m8cqjzfy7)" points="641.99,144,834.99,144,841.99,167.6094,1340.99,167.6094,1340.99,989,641.99,989,641.99,144" style="stroke: #000000; stroke-width: 1.5;"/><line style="stroke: #000000; stroke-width: 1.5;" x1="641.99" x2="841.99" y1="167.6094" y2="167.6094"/><text fill="#000000" font-family="sans-serif" font-size="14" font-weight="bold" lengthAdjust="spacingAndGlyphs" textLength="187" x="645.99" y="160.5332">mastermind.views.console</text><!--MD5=[f2bedc297083edee028363469990e0f1]
cluster mastermind.utils--><polygon fill="#FFFFFF" filter="url(#f1421m8cqjzfy7)" points="494.99,1013,616.99,1013,623.99,1036.6094,746.99,1036.6094,746.99,1113,494.99,1113,494.99,1013" style="stroke: #000000; stroke-width: 1.5;"/><line style="stroke: #000000; stroke-width: 1.5;" x1="494.99" x2="623.99" y1="1036.6094" y2="1036.6094"/><text fill="#000000" font-family="sans-serif" font-size="14" font-weight="bold" lengthAdjust="spacingAndGlyphs" textLength="116" x="498.99" y="1029.5332">mastermind.utils</text><!--MD5=[f4a8416df5d5f7c80a7d3a30f9e0f7a6]
cluster mastermind.controllers--><polygon fill="#FFFFFF" filter="url(#f1421m8cqjzfy7)" points="39.99,552.5,208.99,552.5,215.99,576.1094,496.99,576.1094,496.99,666.5,39.99,666.5,39.99,552.5" style="stroke: #000000; stroke-width: 1.5;"/><line style="stroke: #000000; stroke-width: 1.5;" x1="39.99" x2="215.99" y1="576.1094" y2="576.1094"/><text fill="#000000" font-family="sans-serif" font-size="14" font-weight="bold" lengthAdjust="spacingAndGlyphs" textLength="163" x="43.99" y="569.0332">mastermind.controllers</text><!--MD5=[904c44326bfc30ddc4fe4077c1b9164d]
class mastermind.views.View--><rect codeLine="2" fill="#FEFECE" filter="url(#f1421m8cqjzfy7)" height="61.8359" id="mastermind.views.View" style="stroke: #A80036; stroke-width: 1.5;" width="146" x="946.99" y="42"/><ellipse cx="1002.74" cy="58" fill="#A9DCDF" rx="11" ry="11" style="stroke: #A80036; stroke-width: 1.0;"/><path d="M1004.9275,59.7656 L1000.7869,59.7656 L1000.365,60.7969 L1000.7869,60.7969 Q1001.3963,60.7969 1001.6619,61.0313 Q1001.9275,61.2656 1001.9275,61.6563 Q1001.9275,62.0313 1001.6619,62.2656 Q1001.3963,62.5 1000.7869,62.5 L998.49,62.5 Q997.8806,62.5 997.6306,62.2656 Q997.365,62.0313 997.365,61.6406 Q997.365,61.2656 997.6463,61.0313 Q997.9119,60.7813 998.5369,60.7969 L1001.2088,54.1406 L1000.0994,54.1406 Q999.49,54.1406 999.2244,53.9063 Q998.9588,53.6719 998.9588,53.2813 Q998.9588,52.9063 999.2244,52.6719 Q999.49,52.4375 1000.0994,52.4375 L1003.7713,52.4375 L1007.1619,60.7969 Q1007.7556,60.7969 1007.9431,60.9375 Q1008.3338,61.2031 1008.3338,61.6563 Q1008.3338,62.0313 1008.0681,62.2656 Q1007.8181,62.5 1007.2088,62.5 L1004.9119,62.5 Q1004.3025,62.5 1004.0369,62.2656 Q1003.7713,62.0313 1003.7713,61.6406 Q1003.7713,61.2656 1004.0369,61.0313 Q1004.3025,60.7969 1004.9119,60.7969 L1005.3338,60.7969 L1004.9275,59.7656 Z M1004.2088,58.0625 L1002.8494,54.6875 L1001.4744,58.0625 L1004.2088,58.0625 Z "/><text fill="#000000" font-family="sans-serif" font-size="12" font-style="italic" lengthAdjust="spacingAndGlyphs" textLength="26" x="1023.24" y="62.9102">View</text><line style="stroke: #A80036; stroke-width: 1.5;" x1="947.99" x2="1091.99" y1="74" y2="74"/><line style="stroke: #A80036; stroke-width: 1.5;" x1="947.99" x2="1091.99" y1="82" y2="82"/><ellipse cx="957.99" cy="93" fill="#84BE84" rx="3" ry="3" style="stroke: #038048; stroke-width: 1.0;"/><text fill="#000000" font-family="sans-serif" font-size="11" font-style="italic" lengthAdjust="spacingAndGlyphs" textLength="120" x="966.99" y="97.4189">interact(Controller): void</text><!--MD5=[ee236011c866e79872d7eb09821c7fe9]
class mastermind.views.ErrorView--><rect codeLine="6" fill="#FEFECE" filter="url(#f1421m8cqjzfy7)" height="48" id="mastermind.views.ErrorView" style="stroke: #A80036; stroke-width: 1.5;" width="85" x="1128.49" y="49"/><ellipse cx="1143.49" cy="65" fill="#ADD1B2" rx="11" ry="11" style="stroke: #A80036; stroke-width: 1.0;"/><path d="M1146.2556,60.875 Q1146.4119,60.6563 1146.5994,60.5469 Q1146.7869,60.4375 1147.0056,60.4375 Q1147.3806,60.4375 1147.615,60.7031 Q1147.8494,60.9531 1147.8494,61.5625 L1147.8494,63.0156 Q1147.8494,63.625 1147.615,63.8906 Q1147.3806,64.1563 1147.0056,64.1563 Q1146.6619,64.1563 1146.4588,63.9531 Q1146.2556,63.7656 1146.1463,63.25 Q1146.0994,62.8906 1145.9119,62.7031 Q1145.5838,62.3281 1144.9744,62.1094 Q1144.365,61.8906 1143.74,61.8906 Q1142.9744,61.8906 1142.3338,62.2188 Q1141.7088,62.5469 1141.2088,63.2969 Q1140.7244,64.0469 1140.7244,65.0781 L1140.7244,66.1719 Q1140.7244,67.4063 1141.615,68.2344 Q1142.5056,69.0469 1144.0994,69.0469 Q1145.0369,69.0469 1145.6931,68.7969 Q1146.0838,68.6406 1146.5056,68.2031 Q1146.7713,67.9375 1146.9119,67.8594 Q1147.0681,67.7813 1147.2713,67.7813 Q1147.5994,67.7813 1147.8494,68.0469 Q1148.115,68.2969 1148.115,68.6406 Q1148.115,68.9844 1147.7713,69.3906 Q1147.2713,69.9688 1146.4744,70.2969 Q1145.3963,70.75 1144.0994,70.75 Q1142.5838,70.75 1141.3806,70.125 Q1140.3963,69.625 1139.7088,68.5625 Q1139.0213,67.4844 1139.0213,66.2031 L1139.0213,65.0469 Q1139.0213,63.7188 1139.6306,62.5781 Q1140.2556,61.4219 1141.3494,60.8125 Q1142.4431,60.1875 1143.6775,60.1875 Q1144.4119,60.1875 1145.0525,60.3594 Q1145.7088,60.5156 1146.2556,60.875 Z "/><text fill="#000000" font-family="sans-serif" font-size="12" lengthAdjust="spacingAndGlyphs" textLength="53" x="1157.49" y="69.9102">ErrorView</text><line style="stroke: #A80036; stroke-width: 1.5;" x1="1129.49" x2="1212.49" y1="81" y2="81"/><line style="stroke: #A80036; stroke-width: 1.5;" x1="1129.49" x2="1212.49" y1="89" y2="89"/><!--MD5=[1cfa54876a7456bbec3564c67cbef87b]
class mastermind.views.console.ErrorView--><rect codeLine="8" fill="#FEFECE" filter="url(#f1421m8cqjzfy7)" height="89.5078" id="mastermind.views.console.ErrorView" style="stroke: #A80036; stroke-width: 1.5;" width="123" x="1201.49" y="574.5"/><ellipse cx="1233.59" cy="590.5" fill="#ADD1B2" rx="11" ry="11" style="stroke: #A80036; stroke-width: 1.0;"/><path d="M1236.3556,586.375 Q1236.5119,586.1563 1236.6994,586.0469 Q1236.8869,585.9375 1237.1056,585.9375 Q1237.4806,585.9375 1237.715,586.2031 Q1237.9494,586.4531 1237.9494,587.0625 L1237.9494,588.5156 Q1237.9494,589.125 1237.715,589.3906 Q1237.4806,589.6563 1237.1056,589.6563 Q1236.7619,589.6563 1236.5588,589.4531 Q1236.3556,589.2656 1236.2463,588.75 Q1236.1994,588.3906 1236.0119,588.2031 Q1235.6838,587.8281 1235.0744,587.6094 Q1234.465,587.3906 1233.84,587.3906 Q1233.0744,587.3906 1232.4338,587.7188 Q1231.8088,588.0469 1231.3088,588.7969 Q1230.8244,589.5469 1230.8244,590.5781 L1230.8244,591.6719 Q1230.8244,592.9063 1231.715,593.7344 Q1232.6056,594.5469 1234.1994,594.5469 Q1235.1369,594.5469 1235.7931,594.2969 Q1236.1838,594.1406 1236.6056,593.7031 Q1236.8713,593.4375 1237.0119,593.3594 Q1237.1681,593.2813 1237.3713,593.2813 Q1237.6994,593.2813 1237.9494,593.5469 Q1238.215,593.7969 1238.215,594.1406 Q1238.215,594.4844 1237.8713,594.8906 Q1237.3713,595.4688 1236.5744,595.7969 Q1235.4963,596.25 1234.1994,596.25 Q1232.6838,596.25 1231.4806,595.625 Q1230.4963,595.125 1229.8088,594.0625 Q1229.1213,592.9844 1229.1213,591.7031 L1229.1213,590.5469 Q1229.1213,589.2188 1229.7306,588.0781 Q1230.3556,586.9219 1231.4494,586.3125 Q1232.5431,585.6875 1233.7775,585.6875 Q1234.5119,585.6875 1235.1525,585.8594 Q1235.8088,586.0156 1236.3556,586.375 Z "/><text fill="#000000" font-family="sans-serif" font-size="12" lengthAdjust="spacingAndGlyphs" textLength="53" x="1251.39" y="595.4102">ErrorView</text><line style="stroke: #A80036; stroke-width: 1.5;" x1="1202.49" x2="1323.49" y1="606.5" y2="606.5"/><ellipse cx="1212.49" cy="617.5" fill="none" rx="3" ry="3" style="stroke: #038048; stroke-width: 1.0;"/><text fill="#000000" font-family="sans-serif" font-size="11" lengthAdjust="spacingAndGlyphs" text-decoration="underline" textLength="97" x="1221.49" y="621.9189">MESSAGES: String[]</text><polygon fill="none" points="1212.49,626.3359,1216.49,630.3359,1212.49,634.3359,1208.49,630.3359" style="stroke: #B38D22; stroke-width: 1.0;"/><text fill="#000000" font-family="sans-serif" font-size="11" lengthAdjust="spacingAndGlyphs" textLength="54" x="1221.49" y="635.7549">error: Error</text><line style="stroke: #A80036; stroke-width: 1.5;" x1="1202.49" x2="1323.49" y1="642.1719" y2="642.1719"/><ellipse cx="1212.49" cy="653.1719" fill="#84BE84" rx="3" ry="3" style="stroke: #038048; stroke-width: 1.0;"/><text fill="#000000" font-family="sans-serif" font-size="11" lengthAdjust="spacingAndGlyphs" textLength="82" x="1221.49" y="657.5908">ErrorView(Error)</text><!--MD5=[6413af1ac912f6fb79ac9ff8ef682d27]
class mastermind.views.console.ColorView--><rect codeLine="37" fill="#FEFECE" filter="url(#f1421m8cqjzfy7)" height="131.0156" id="mastermind.views.console.ColorView" style="stroke: #A80036; stroke-width: 1.5;" width="193" x="973.49" y="786.5"/><ellipse cx="1037.74" cy="802.5" fill="#ADD1B2" rx="11" ry="11" style="stroke: #A80036; stroke-width: 1.0;"/><path d="M1040.5056,798.375 Q1040.6619,798.1563 1040.8494,798.0469 Q1041.0369,797.9375 1041.2556,797.9375 Q1041.6306,797.9375 1041.865,798.2031 Q1042.0994,798.4531 1042.0994,799.0625 L1042.0994,800.5156 Q1042.0994,801.125 1041.865,801.3906 Q1041.6306,801.6563 1041.2556,801.6563 Q1040.9119,801.6563 1040.7088,801.4531 Q1040.5056,801.2656 1040.3963,800.75 Q1040.3494,800.3906 1040.1619,800.2031 Q1039.8338,799.8281 1039.2244,799.6094 Q1038.615,799.3906 1037.99,799.3906 Q1037.2244,799.3906 1036.5838,799.7188 Q1035.9588,800.0469 1035.4588,800.7969 Q1034.9744,801.5469 1034.9744,802.5781 L1034.9744,803.6719 Q1034.9744,804.9063 1035.865,805.7344 Q1036.7556,806.5469 1038.3494,806.5469 Q1039.2869,806.5469 1039.9431,806.2969 Q1040.3338,806.1406 1040.7556,805.7031 Q1041.0213,805.4375 1041.1619,805.3594 Q1041.3181,805.2813 1041.5213,805.2813 Q1041.8494,805.2813 1042.0994,805.5469 Q1042.365,805.7969 1042.365,806.1406 Q1042.365,806.4844 1042.0213,806.8906 Q1041.5213,807.4688 1040.7244,807.7969 Q1039.6463,808.25 1038.3494,808.25 Q1036.8338,808.25 1035.6306,807.625 Q1034.6463,807.125 1033.9588,806.0625 Q1033.2713,804.9844 1033.2713,803.7031 L1033.2713,802.5469 Q1033.2713,801.2188 1033.8806,800.0781 Q1034.5056,798.9219 1035.5994,798.3125 Q1036.6931,797.6875 1037.9275,797.6875 Q1038.6619,797.6875 1039.3025,797.8594 Q1039.9588,798.0156 1040.5056,798.375 Z "/><text fill="#000000" font-family="sans-serif" font-size="12" lengthAdjust="spacingAndGlyphs" textLength="56" x="1058.24" y="807.4102">ColorView</text><line style="stroke: #A80036; stroke-width: 1.5;" x1="974.49" x2="1165.49" y1="818.5" y2="818.5"/><ellipse cx="984.49" cy="829.5" fill="none" rx="3" ry="3" style="stroke: #038048; stroke-width: 1.0;"/><text fill="#000000" font-family="sans-serif" font-size="11" lengthAdjust="spacingAndGlyphs" text-decoration="underline" textLength="74" x="993.49" y="833.9189">INITIALS: char[]</text><polygon fill="none" points="984.49,838.3359,988.49,842.3359,984.49,846.3359,980.49,842.3359" style="stroke: #B38D22; stroke-width: 1.0;"/><text fill="#000000" font-family="sans-serif" font-size="11" lengthAdjust="spacingAndGlyphs" textLength="55" x="993.49" y="847.7549">color: Color</text><line style="stroke: #A80036; stroke-width: 1.5;" x1="974.49" x2="1165.49" y1="854.1719" y2="854.1719"/><ellipse cx="984.49" cy="865.1719" fill="#84BE84" rx="3" ry="3" style="stroke: #038048; stroke-width: 1.0;"/><text fill="#000000" font-family="sans-serif" font-size="11" lengthAdjust="spacingAndGlyphs" textLength="84" x="993.49" y="869.5908">ColorView(Color)</text><ellipse cx="984.49" cy="879.0078" fill="#84BE84" rx="3" ry="3" style="stroke: #038048; stroke-width: 1.0;"/><text fill="#000000" font-family="sans-serif" font-size="11" lengthAdjust="spacingAndGlyphs" text-decoration="underline" textLength="81" x="993.49" y="883.4268">allInitials(): String</text><ellipse cx="984.49" cy="892.8438" fill="#84BE84" rx="3" ry="3" style="stroke: #038048; stroke-width: 1.0;"/><text fill="#000000" font-family="sans-serif" font-size="11" lengthAdjust="spacingAndGlyphs" text-decoration="underline" textLength="167" x="993.49" y="897.2627">getInstance(char character): Color</text><ellipse cx="984.49" cy="906.6797" fill="#84BE84" rx="3" ry="3" style="stroke: #038048; stroke-width: 1.0;"/><text fill="#000000" font-family="sans-serif" font-size="11" lengthAdjust="spacingAndGlyphs" textLength="33" x="993.49" y="911.0986">write()</text><!--MD5=[61ebca661bfcdbc6ffc0c5e3cb09f6e8]
class mastermind.views.console.Message--><rect codeLine="18" fill="#FEFECE" filter="url(#f1421m8cqjzfy7)" height="241.7031" id="mastermind.views.console.Message" style="stroke: #A80036; stroke-width: 1.5;" width="233" x="660.49" y="731"/><ellipse cx="747.24" cy="747" fill="#EB937F" rx="11" ry="11" style="stroke: #A80036; stroke-width: 1.0;"/><path d="M746.0994,747.7969 L746.0994,750.2969 L750.4275,750.2969 L750.4275,749.375 Q750.4275,748.7656 750.6619,748.5 Q750.9119,748.2344 751.2869,748.2344 Q751.6619,748.2344 751.8963,748.5 Q752.1306,748.7656 752.1306,749.375 L752.1306,752 L744.1306,752 Q743.5056,752 743.24,751.7656 Q742.99,751.5313 742.99,751.1406 Q742.99,750.7656 743.2556,750.5313 Q743.5213,750.2969 744.1306,750.2969 L744.3963,750.2969 L744.3963,743.6406 L744.1306,743.6406 Q743.5056,743.6406 743.24,743.4063 Q742.99,743.1719 742.99,742.7813 Q742.99,742.4063 743.24,742.1719 Q743.5056,741.9375 744.1306,741.9375 L751.7556,741.9375 L751.7556,744.5313 Q751.7556,745.1406 751.5213,745.4063 Q751.3025,745.6563 750.9119,745.6563 Q750.5369,745.6563 750.3025,745.4063 Q750.0681,745.1406 750.0681,744.5313 L750.0681,743.6406 L746.0994,743.6406 L746.0994,746.0938 L747.5838,746.0938 Q747.5838,745.4375 747.7088,745.25 Q747.9744,744.8438 748.4431,744.8438 Q748.8181,744.8438 749.0525,745.1094 Q749.2869,745.3594 749.2869,745.9688 L749.2869,747.9375 Q749.2869,748.4844 749.1619,748.6719 Q748.8963,749.0625 748.4431,749.0625 Q747.9744,749.0625 747.7088,748.6563 Q747.5838,748.4688 747.5838,747.7969 L746.0994,747.7969 Z "/><text fill="#000000" font-family="sans-serif" font-size="12" lengthAdjust="spacingAndGlyphs" textLength="51" x="767.74" y="751.9102">Message</text><line style="stroke: #A80036; stroke-width: 1.5;" x1="661.49" x2="892.49" y1="763" y2="763"/><ellipse cx="671.49" cy="774" fill="none" rx="3" ry="3" style="stroke: #038048; stroke-width: 1.0;"/><text fill="#000000" font-family="sans-serif" font-size="11" lengthAdjust="spacingAndGlyphs" textLength="129" x="680.49" y="778.4189">ATTEMPTS: MessageView</text><ellipse cx="671.49" cy="787.8359" fill="none" rx="3" ry="3" style="stroke: #038048; stroke-width: 1.0;"/><text fill="#000000" font-family="sans-serif" font-size="11" lengthAdjust="spacingAndGlyphs" textLength="122" x="680.49" y="792.2549">SECRECT: MessageView</text><ellipse cx="671.49" cy="801.6719" fill="none" rx="3" ry="3" style="stroke: #038048; stroke-width: 1.0;"/><text fill="#000000" font-family="sans-serif" font-size="11" lengthAdjust="spacingAndGlyphs" textLength="139" x="680.49" y="806.0908">SEPARATOR: MessageView</text><ellipse cx="671.49" cy="815.5078" fill="none" rx="3" ry="3" style="stroke: #038048; stroke-width: 1.0;"/><text fill="#000000" font-family="sans-serif" font-size="11" lengthAdjust="spacingAndGlyphs" textLength="117" x="680.49" y="819.9268">RESUME: MessageView</text><ellipse cx="671.49" cy="829.3438" fill="none" rx="3" ry="3" style="stroke: #038048; stroke-width: 1.0;"/><text fill="#000000" font-family="sans-serif" font-size="11" lengthAdjust="spacingAndGlyphs" textLength="115" x="680.49" y="833.7627">RESULT: MessageView</text><ellipse cx="671.49" cy="843.1797" fill="none" rx="3" ry="3" style="stroke: #038048; stroke-width: 1.0;"/><text fill="#000000" font-family="sans-serif" font-size="11" lengthAdjust="spacingAndGlyphs" textLength="207" x="680.49" y="847.5986">PROPOSED_COMBINATION: MessageView</text><ellipse cx="671.49" cy="857.0156" fill="none" rx="3" ry="3" style="stroke: #038048; stroke-width: 1.0;"/><text fill="#000000" font-family="sans-serif" font-size="11" lengthAdjust="spacingAndGlyphs" textLength="102" x="680.49" y="861.4346">TITLE: MessageView</text><ellipse cx="671.49" cy="870.8516" fill="none" rx="3" ry="3" style="stroke: #038048; stroke-width: 1.0;"/><text fill="#000000" font-family="sans-serif" font-size="11" lengthAdjust="spacingAndGlyphs" textLength="115" x="680.49" y="875.2705">WINNER: MessageView</text><ellipse cx="671.49" cy="884.6875" fill="none" rx="3" ry="3" style="stroke: #038048; stroke-width: 1.0;"/><text fill="#000000" font-family="sans-serif" font-size="11" lengthAdjust="spacingAndGlyphs" textLength="118" x="680.49" y="889.1064">LOOSER: MessageView</text><rect fill="none" height="6" style="stroke: #C82930; stroke-width: 1.0;" width="6" x="668.49" y="895.5234"/><text fill="#000000" font-family="sans-serif" font-size="11" lengthAdjust="spacingAndGlyphs" textLength="78" x="680.49" y="902.9424">message: String</text><line style="stroke: #A80036; stroke-width: 1.5;" x1="661.49" x2="892.49" y1="909.3594" y2="909.3594"/><rect fill="#F24D5C" height="6" style="stroke: #C82930; stroke-width: 1.0;" width="6" x="668.49" y="917.3594"/><text fill="#000000" font-family="sans-serif" font-size="11" lengthAdjust="spacingAndGlyphs" textLength="106" x="680.49" y="924.7783">MessageView(String)</text><ellipse cx="671.49" cy="934.1953" fill="#84BE84" rx="3" ry="3" style="stroke: #038048; stroke-width: 1.0;"/><text fill="#000000" font-family="sans-serif" font-size="11" lengthAdjust="spacingAndGlyphs" textLength="67" x="680.49" y="938.6143">write(): String</text><ellipse cx="671.49" cy="948.0313" fill="#84BE84" rx="3" ry="3" style="stroke: #038048; stroke-width: 1.0;"/><text fill="#000000" font-family="sans-serif" font-size="11" lengthAdjust="spacingAndGlyphs" textLength="75" x="680.49" y="952.4502">writeln(): String</text><ellipse cx="671.49" cy="961.8672" fill="#84BE84" rx="3" ry="3" style="stroke: #038048; stroke-width: 1.0;"/><text fill="#000000" font-family="sans-serif" font-size="11" lengthAdjust="spacingAndGlyphs" textLength="75" x="680.49" y="966.2861">writeln(): String</text><!--MD5=[798b6b0a9a5873b15eb8025642b948f6]
class mastermind.views.console.GameView--><rect codeLine="47" fill="#FEFECE" filter="url(#f1421m8cqjzfy7)" height="75.6719" id="mastermind.views.console.GameView" style="stroke: #A80036; stroke-width: 1.5;" width="116" x="997.99" y="432"/><ellipse cx="1023.79" cy="448" fill="#ADD1B2" rx="11" ry="11" style="stroke: #A80036; stroke-width: 1.0;"/><path d="M1026.5556,443.875 Q1026.7119,443.6563 1026.8994,443.5469 Q1027.0869,443.4375 1027.3056,443.4375 Q1027.6806,443.4375 1027.915,443.7031 Q1028.1494,443.9531 1028.1494,444.5625 L1028.1494,446.0156 Q1028.1494,446.625 1027.915,446.8906 Q1027.6806,447.1563 1027.3056,447.1563 Q1026.9619,447.1563 1026.7588,446.9531 Q1026.5556,446.7656 1026.4463,446.25 Q1026.3994,445.8906 1026.2119,445.7031 Q1025.8838,445.3281 1025.2744,445.1094 Q1024.665,444.8906 1024.04,444.8906 Q1023.2744,444.8906 1022.6338,445.2188 Q1022.0088,445.5469 1021.5088,446.2969 Q1021.0244,447.0469 1021.0244,448.0781 L1021.0244,449.1719 Q1021.0244,450.4063 1021.915,451.2344 Q1022.8056,452.0469 1024.3994,452.0469 Q1025.3369,452.0469 1025.9931,451.7969 Q1026.3838,451.6406 1026.8056,451.2031 Q1027.0713,450.9375 1027.2119,450.8594 Q1027.3681,450.7813 1027.5713,450.7813 Q1027.8994,450.7813 1028.1494,451.0469 Q1028.415,451.2969 1028.415,451.6406 Q1028.415,451.9844 1028.0713,452.3906 Q1027.5713,452.9688 1026.7744,453.2969 Q1025.6963,453.75 1024.3994,453.75 Q1022.8838,453.75 1021.6806,453.125 Q1020.6963,452.625 1020.0088,451.5625 Q1019.3213,450.4844 1019.3213,449.2031 L1019.3213,448.0469 Q1019.3213,446.7188 1019.9306,445.5781 Q1020.5556,444.4219 1021.6494,443.8125 Q1022.7431,443.1875 1023.9775,443.1875 Q1024.7119,443.1875 1025.3525,443.3594 Q1026.0088,443.5156 1026.5556,443.875 Z "/><text fill="#000000" font-family="sans-serif" font-size="12" lengthAdjust="spacingAndGlyphs" textLength="60" x="1040.19" y="452.9102">GameView</text><line style="stroke: #A80036; stroke-width: 1.5;" x1="998.99" x2="1112.99" y1="464" y2="464"/><rect fill="none" height="6" style="stroke: #C82930; stroke-width: 1.0;" width="6" x="1005.99" y="472"/><text fill="#000000" font-family="sans-serif" font-size="11" lengthAdjust="spacingAndGlyphs" textLength="90" x="1017.99" y="479.4189">UseCaseController</text><line style="stroke: #A80036; stroke-width: 1.5;" x1="998.99" x2="1112.99" y1="485.8359" y2="485.8359"/><ellipse cx="1008.99" cy="496.8359" fill="#84BE84" rx="3" ry="3" style="stroke: #038048; stroke-width: 1.0;"/><text fill="#000000" font-family="sans-serif" font-size="11" lengthAdjust="spacingAndGlyphs" textLength="33" x="1017.99" y="501.2549">write()</text><!--MD5=[da32211422d22ede6b00806fa670f927]
class mastermind.views.console.ProposedCombinationView--><rect codeLine="76" fill="#FEFECE" filter="url(#f1421m8cqjzfy7)" height="103.3438" id="mastermind.views.console.ProposedCombinationView" style="stroke: #A80036; stroke-width: 1.5;" width="268" x="860.99" y="568"/><ellipse cx="915.24" cy="584" fill="#ADD1B2" rx="11" ry="11" style="stroke: #A80036; stroke-width: 1.0;"/><path d="M918.0056,579.875 Q918.1619,579.6563 918.3494,579.5469 Q918.5369,579.4375 918.7556,579.4375 Q919.1306,579.4375 919.365,579.7031 Q919.5994,579.9531 919.5994,580.5625 L919.5994,582.0156 Q919.5994,582.625 919.365,582.8906 Q919.1306,583.1563 918.7556,583.1563 Q918.4119,583.1563 918.2088,582.9531 Q918.0056,582.7656 917.8963,582.25 Q917.8494,581.8906 917.6619,581.7031 Q917.3338,581.3281 916.7244,581.1094 Q916.115,580.8906 915.49,580.8906 Q914.7244,580.8906 914.0838,581.2188 Q913.4588,581.5469 912.9588,582.2969 Q912.4744,583.0469 912.4744,584.0781 L912.4744,585.1719 Q912.4744,586.4063 913.365,587.2344 Q914.2556,588.0469 915.8494,588.0469 Q916.7869,588.0469 917.4431,587.7969 Q917.8338,587.6406 918.2556,587.2031 Q918.5213,586.9375 918.6619,586.8594 Q918.8181,586.7813 919.0213,586.7813 Q919.3494,586.7813 919.5994,587.0469 Q919.865,587.2969 919.865,587.6406 Q919.865,587.9844 919.5213,588.3906 Q919.0213,588.9688 918.2244,589.2969 Q917.1463,589.75 915.8494,589.75 Q914.3338,589.75 913.1306,589.125 Q912.1463,588.625 911.4588,587.5625 Q910.7713,586.4844 910.7713,585.2031 L910.7713,584.0469 Q910.7713,582.7188 911.3806,581.5781 Q912.0056,580.4219 913.0994,579.8125 Q914.1931,579.1875 915.4275,579.1875 Q916.1619,579.1875 916.8025,579.3594 Q917.4588,579.5156 918.0056,579.875 Z "/><text fill="#000000" font-family="sans-serif" font-size="12" lengthAdjust="spacingAndGlyphs" textLength="151" x="935.74" y="588.9102">ProposedCombinationView</text><line style="stroke: #A80036; stroke-width: 1.5;" x1="861.99" x2="1127.99" y1="600" y2="600"/><rect fill="none" height="6" style="stroke: #C82930; stroke-width: 1.0;" width="6" x="868.99" y="608"/><text fill="#000000" font-family="sans-serif" font-size="11" lengthAdjust="spacingAndGlyphs" textLength="104" x="880.99" y="615.4189">ProposedCombination</text><line style="stroke: #A80036; stroke-width: 1.5;" x1="861.99" x2="1127.99" y1="621.8359" y2="621.8359"/><ellipse cx="871.99" cy="632.8359" fill="#84BE84" rx="3" ry="3" style="stroke: #038048; stroke-width: 1.0;"/><text fill="#000000" font-family="sans-serif" font-size="11" lengthAdjust="spacingAndGlyphs" textLength="242" x="880.99" y="637.2549">ProposedCombinationView(ProposedCombination)</text><ellipse cx="871.99" cy="646.6719" fill="#84BE84" rx="3" ry="3" style="stroke: #038048; stroke-width: 1.0;"/><text fill="#000000" font-family="sans-serif" font-size="11" lengthAdjust="spacingAndGlyphs" textLength="33" x="880.99" y="651.0908">write()</text><ellipse cx="871.99" cy="660.5078" fill="#84BE84" rx="3" ry="3" style="stroke: #038048; stroke-width: 1.0;"/><text fill="#000000" font-family="sans-serif" font-size="11" lengthAdjust="spacingAndGlyphs" textLength="30" x="880.99" y="664.9268">read()</text><!--MD5=[78e7fa9cf0fb29c9a88059d9b2a132d6]
class mastermind.views.console.ResultView--><rect codeLine="90" fill="#FEFECE" filter="url(#f1421m8cqjzfy7)" height="75.6719" id="mastermind.views.console.ResultView" style="stroke: #A80036; stroke-width: 1.5;" width="94" x="731.99" y="581.5"/><ellipse cx="746.99" cy="597.5" fill="#ADD1B2" rx="11" ry="11" style="stroke: #A80036; stroke-width: 1.0;"/><path d="M749.7556,593.375 Q749.9119,593.1563 750.0994,593.0469 Q750.2869,592.9375 750.5056,592.9375 Q750.8806,592.9375 751.115,593.2031 Q751.3494,593.4531 751.3494,594.0625 L751.3494,595.5156 Q751.3494,596.125 751.115,596.3906 Q750.8806,596.6563 750.5056,596.6563 Q750.1619,596.6563 749.9588,596.4531 Q749.7556,596.2656 749.6463,595.75 Q749.5994,595.3906 749.4119,595.2031 Q749.0838,594.8281 748.4744,594.6094 Q747.865,594.3906 747.24,594.3906 Q746.4744,594.3906 745.8338,594.7188 Q745.2088,595.0469 744.7088,595.7969 Q744.2244,596.5469 744.2244,597.5781 L744.2244,598.6719 Q744.2244,599.9063 745.115,600.7344 Q746.0056,601.5469 747.5994,601.5469 Q748.5369,601.5469 749.1931,601.2969 Q749.5838,601.1406 750.0056,600.7031 Q750.2713,600.4375 750.4119,600.3594 Q750.5681,600.2813 750.7713,600.2813 Q751.0994,600.2813 751.3494,600.5469 Q751.615,600.7969 751.615,601.1406 Q751.615,601.4844 751.2713,601.8906 Q750.7713,602.4688 749.9744,602.7969 Q748.8963,603.25 747.5994,603.25 Q746.0838,603.25 744.8806,602.625 Q743.8963,602.125 743.2088,601.0625 Q742.5213,599.9844 742.5213,598.7031 L742.5213,597.5469 Q742.5213,596.2188 743.1306,595.0781 Q743.7556,593.9219 744.8494,593.3125 Q745.9431,592.6875 747.1775,592.6875 Q747.9119,592.6875 748.5525,592.8594 Q749.2088,593.0156 749.7556,593.375 Z "/><text fill="#000000" font-family="sans-serif" font-size="12" lengthAdjust="spacingAndGlyphs" textLength="62" x="760.99" y="602.4102">ResultView</text><line style="stroke: #A80036; stroke-width: 1.5;" x1="732.99" x2="824.99" y1="613.5" y2="613.5"/><rect fill="none" height="6" style="stroke: #C82930; stroke-width: 1.0;" width="6" x="739.99" y="621.5"/><text fill="#000000" font-family="sans-serif" font-size="11" lengthAdjust="spacingAndGlyphs" textLength="30" x="751.99" y="628.9189">Result</text><line style="stroke: #A80036; stroke-width: 1.5;" x1="732.99" x2="824.99" y1="635.3359" y2="635.3359"/><ellipse cx="742.99" cy="646.3359" fill="#84BE84" rx="3" ry="3" style="stroke: #038048; stroke-width: 1.0;"/><text fill="#000000" font-family="sans-serif" font-size="11" lengthAdjust="spacingAndGlyphs" textLength="41" x="751.99" y="650.7549">writeln()</text><!--MD5=[570cc52382283ce56889e96332af2360]
class mastermind.views.console.View--><rect codeLine="55" fill="#FEFECE" filter="url(#f1421m8cqjzfy7)" height="70.0234" id="mastermind.views.console.View" style="stroke: #A80036; stroke-width: 1.5;" width="76" x="900.99" y="180"/><ellipse cx="915.99" cy="200.0938" fill="#A9DCDF" rx="11" ry="11" style="stroke: #A80036; stroke-width: 1.0;"/><path d="M918.1775,201.8594 L914.0369,201.8594 L913.615,202.8906 L914.0369,202.8906 Q914.6463,202.8906 914.9119,203.125 Q915.1775,203.3594 915.1775,203.75 Q915.1775,204.125 914.9119,204.3594 Q914.6463,204.5938 914.0369,204.5938 L911.74,204.5938 Q911.1306,204.5938 910.8806,204.3594 Q910.615,204.125 910.615,203.7344 Q910.615,203.3594 910.8963,203.125 Q911.1619,202.875 911.7869,202.8906 L914.4588,196.2344 L913.3494,196.2344 Q912.74,196.2344 912.4744,196 Q912.2088,195.7656 912.2088,195.375 Q912.2088,195 912.4744,194.7656 Q912.74,194.5313 913.3494,194.5313 L917.0213,194.5313 L920.4119,202.8906 Q921.0056,202.8906 921.1931,203.0313 Q921.5838,203.2969 921.5838,203.75 Q921.5838,204.125 921.3181,204.3594 Q921.0681,204.5938 920.4588,204.5938 L918.1619,204.5938 Q917.5525,204.5938 917.2869,204.3594 Q917.0213,204.125 917.0213,203.7344 Q917.0213,203.3594 917.2869,203.125 Q917.5525,202.8906 918.1619,202.8906 L918.5838,202.8906 L918.1775,201.8594 Z M917.4588,200.1563 L916.0994,196.7813 L914.7244,200.1563 L917.4588,200.1563 Z "/><text fill="#000000" font-family="sans-serif" font-size="12" font-style="italic" lengthAdjust="spacingAndGlyphs" textLength="48" x="927.99" y="197.457">«Visitor»</text><text fill="#000000" font-family="sans-serif" font-size="12" font-style="italic" lengthAdjust="spacingAndGlyphs" textLength="26" x="938.99" y="212.5508">View</text><line style="stroke: #A80036; stroke-width: 1.5;" x1="901.99" x2="975.99" y1="220.1875" y2="220.1875"/><line style="stroke: #A80036; stroke-width: 1.5;" x1="901.99" x2="975.99" y1="228.1875" y2="228.1875"/><ellipse cx="911.99" cy="239.1875" fill="#84BE84" rx="3" ry="3" style="stroke: #038048; stroke-width: 1.0;"/><text fill="#000000" font-family="sans-serif" font-size="11" lengthAdjust="spacingAndGlyphs" textLength="44" x="920.99" y="243.6064">interact()</text><!--MD5=[c6e9a88f0791e4bd3afd3911f17016b0]
class mastermind.views.console.PlayView--><rect codeLine="59" fill="#FEFECE" filter="url(#f1421m8cqjzfy7)" height="61.8359" id="mastermind.views.console.PlayView" style="stroke: #A80036; stroke-width: 1.5;" width="81" x="957.49" y="310"/><ellipse cx="972.49" cy="326" fill="#ADD1B2" rx="11" ry="11" style="stroke: #A80036; stroke-width: 1.0;"/><path d="M975.2556,321.875 Q975.4119,321.6563 975.5994,321.5469 Q975.7869,321.4375 976.0056,321.4375 Q976.3806,321.4375 976.615,321.7031 Q976.8494,321.9531 976.8494,322.5625 L976.8494,324.0156 Q976.8494,324.625 976.615,324.8906 Q976.3806,325.1563 976.0056,325.1563 Q975.6619,325.1563 975.4588,324.9531 Q975.2556,324.7656 975.1463,324.25 Q975.0994,323.8906 974.9119,323.7031 Q974.5838,323.3281 973.9744,323.1094 Q973.365,322.8906 972.74,322.8906 Q971.9744,322.8906 971.3338,323.2188 Q970.7088,323.5469 970.2088,324.2969 Q969.7244,325.0469 969.7244,326.0781 L969.7244,327.1719 Q969.7244,328.4063 970.615,329.2344 Q971.5056,330.0469 973.0994,330.0469 Q974.0369,330.0469 974.6931,329.7969 Q975.0838,329.6406 975.5056,329.2031 Q975.7713,328.9375 975.9119,328.8594 Q976.0681,328.7813 976.2713,328.7813 Q976.5994,328.7813 976.8494,329.0469 Q977.115,329.2969 977.115,329.6406 Q977.115,329.9844 976.7713,330.3906 Q976.2713,330.9688 975.4744,331.2969 Q974.3963,331.75 973.0994,331.75 Q971.5838,331.75 970.3806,331.125 Q969.3963,330.625 968.7088,329.5625 Q968.0213,328.4844 968.0213,327.2031 L968.0213,326.0469 Q968.0213,324.7188 968.6306,323.5781 Q969.2556,322.4219 970.3494,321.8125 Q971.4431,321.1875 972.6775,321.1875 Q973.4119,321.1875 974.0525,321.3594 Q974.7088,321.5156 975.2556,321.875 Z "/><text fill="#000000" font-family="sans-serif" font-size="12" lengthAdjust="spacingAndGlyphs" textLength="49" x="986.49" y="330.9102">PlayView</text><line style="stroke: #A80036; stroke-width: 1.5;" x1="958.49" x2="1037.49" y1="342" y2="342"/><line style="stroke: #A80036; stroke-width: 1.5;" x1="958.49" x2="1037.49" y1="350" y2="350"/><ellipse cx="968.49" cy="361" fill="#84BE84" rx="3" ry="3" style="stroke: #038048; stroke-width: 1.0;"/><text fill="#000000" font-family="sans-serif" font-size="11" lengthAdjust="spacingAndGlyphs" textLength="44" x="977.49" y="365.4189">interact()</text><!--MD5=[7859f63dd038a0eb900a9f91a1a21db9]
class mastermind.views.console.ResumeView--><rect codeLine="63" fill="#FEFECE" filter="url(#f1421m8cqjzfy7)" height="61.8359" id="mastermind.views.console.ResumeView" style="stroke: #A80036; stroke-width: 1.5;" width="106" x="657.99" y="439"/><ellipse cx="672.99" cy="455" fill="#ADD1B2" rx="11" ry="11" style="stroke: #A80036; stroke-width: 1.0;"/><path d="M675.7556,450.875 Q675.9119,450.6563 676.0994,450.5469 Q676.2869,450.4375 676.5056,450.4375 Q676.8806,450.4375 677.115,450.7031 Q677.3494,450.9531 677.3494,451.5625 L677.3494,453.0156 Q677.3494,453.625 677.115,453.8906 Q676.8806,454.1563 676.5056,454.1563 Q676.1619,454.1563 675.9588,453.9531 Q675.7556,453.7656 675.6463,453.25 Q675.5994,452.8906 675.4119,452.7031 Q675.0838,452.3281 674.4744,452.1094 Q673.865,451.8906 673.24,451.8906 Q672.4744,451.8906 671.8338,452.2188 Q671.2088,452.5469 670.7088,453.2969 Q670.2244,454.0469 670.2244,455.0781 L670.2244,456.1719 Q670.2244,457.4063 671.115,458.2344 Q672.0056,459.0469 673.5994,459.0469 Q674.5369,459.0469 675.1931,458.7969 Q675.5838,458.6406 676.0056,458.2031 Q676.2713,457.9375 676.4119,457.8594 Q676.5681,457.7813 676.7713,457.7813 Q677.0994,457.7813 677.3494,458.0469 Q677.615,458.2969 677.615,458.6406 Q677.615,458.9844 677.2713,459.3906 Q676.7713,459.9688 675.9744,460.2969 Q674.8963,460.75 673.5994,460.75 Q672.0838,460.75 670.8806,460.125 Q669.8963,459.625 669.2088,458.5625 Q668.5213,457.4844 668.5213,456.2031 L668.5213,455.0469 Q668.5213,453.7188 669.1306,452.5781 Q669.7556,451.4219 670.8494,450.8125 Q671.9431,450.1875 673.1775,450.1875 Q673.9119,450.1875 674.5525,450.3594 Q675.2088,450.5156 675.7556,450.875 Z "/><text fill="#000000" font-family="sans-serif" font-size="12" lengthAdjust="spacingAndGlyphs" textLength="74" x="686.99" y="459.9102">ResumeView</text><line style="stroke: #A80036; stroke-width: 1.5;" x1="658.99" x2="762.99" y1="471" y2="471"/><line style="stroke: #A80036; stroke-width: 1.5;" x1="658.99" x2="762.99" y1="479" y2="479"/><ellipse cx="668.99" cy="490" fill="#84BE84" rx="3" ry="3" style="stroke: #038048; stroke-width: 1.0;"/><text fill="#000000" font-family="sans-serif" font-size="11" lengthAdjust="spacingAndGlyphs" textLength="44" x="677.99" y="494.4189">interact()</text><!--MD5=[0008b2d94159fbb4fa82708674d44211]
class mastermind.views.console.StartView--><rect codeLine="67" fill="#FEFECE" filter="url(#f1421m8cqjzfy7)" height="61.8359" id="mastermind.views.console.StartView" style="stroke: #A80036; stroke-width: 1.5;" width="83" x="839.49" y="310"/><ellipse cx="854.49" cy="326" fill="#ADD1B2" rx="11" ry="11" style="stroke: #A80036; stroke-width: 1.0;"/><path d="M857.2556,321.875 Q857.4119,321.6563 857.5994,321.5469 Q857.7869,321.4375 858.0056,321.4375 Q858.3806,321.4375 858.615,321.7031 Q858.8494,321.9531 858.8494,322.5625 L858.8494,324.0156 Q858.8494,324.625 858.615,324.8906 Q858.3806,325.1563 858.0056,325.1563 Q857.6619,325.1563 857.4588,324.9531 Q857.2556,324.7656 857.1463,324.25 Q857.0994,323.8906 856.9119,323.7031 Q856.5838,323.3281 855.9744,323.1094 Q855.365,322.8906 854.74,322.8906 Q853.9744,322.8906 853.3338,323.2188 Q852.7088,323.5469 852.2088,324.2969 Q851.7244,325.0469 851.7244,326.0781 L851.7244,327.1719 Q851.7244,328.4063 852.615,329.2344 Q853.5056,330.0469 855.0994,330.0469 Q856.0369,330.0469 856.6931,329.7969 Q857.0838,329.6406 857.5056,329.2031 Q857.7713,328.9375 857.9119,328.8594 Q858.0681,328.7813 858.2713,328.7813 Q858.5994,328.7813 858.8494,329.0469 Q859.115,329.2969 859.115,329.6406 Q859.115,329.9844 858.7713,330.3906 Q858.2713,330.9688 857.4744,331.2969 Q856.3963,331.75 855.0994,331.75 Q853.5838,331.75 852.3806,331.125 Q851.3963,330.625 850.7088,329.5625 Q850.0213,328.4844 850.0213,327.2031 L850.0213,326.0469 Q850.0213,324.7188 850.6306,323.5781 Q851.2556,322.4219 852.3494,321.8125 Q853.4431,321.1875 854.6775,321.1875 Q855.4119,321.1875 856.0525,321.3594 Q856.7088,321.5156 857.2556,321.875 Z "/><text fill="#000000" font-family="sans-serif" font-size="12" lengthAdjust="spacingAndGlyphs" textLength="51" x="868.49" y="330.9102">StartView</text><line style="stroke: #A80036; stroke-width: 1.5;" x1="840.49" x2="921.49" y1="342" y2="342"/><line style="stroke: #A80036; stroke-width: 1.5;" x1="840.49" x2="921.49" y1="350" y2="350"/><ellipse cx="850.49" cy="361" fill="#84BE84" rx="3" ry="3" style="stroke: #038048; stroke-width: 1.0;"/><text fill="#000000" font-family="sans-serif" font-size="11" lengthAdjust="spacingAndGlyphs" textLength="44" x="859.49" y="365.4189">interact()</text><!--MD5=[8e3658da2a1783a4435f2cbdc5d5f6e6]
class mastermind.views.console.SecretCombinationView--><rect codeLine="83" fill="#FEFECE" filter="url(#f1421m8cqjzfy7)" height="61.8359" id="mastermind.views.console.SecretCombinationView" style="stroke: #A80036; stroke-width: 1.5;" width="164" x="798.99" y="439"/><ellipse cx="813.99" cy="455" fill="#ADD1B2" rx="11" ry="11" style="stroke: #A80036; stroke-width: 1.0;"/><path d="M816.7556,450.875 Q816.9119,450.6563 817.0994,450.5469 Q817.2869,450.4375 817.5056,450.4375 Q817.8806,450.4375 818.115,450.7031 Q818.3494,450.9531 818.3494,451.5625 L818.3494,453.0156 Q818.3494,453.625 818.115,453.8906 Q817.8806,454.1563 817.5056,454.1563 Q817.1619,454.1563 816.9588,453.9531 Q816.7556,453.7656 816.6463,453.25 Q816.5994,452.8906 816.4119,452.7031 Q816.0838,452.3281 815.4744,452.1094 Q814.865,451.8906 814.24,451.8906 Q813.4744,451.8906 812.8338,452.2188 Q812.2088,452.5469 811.7088,453.2969 Q811.2244,454.0469 811.2244,455.0781 L811.2244,456.1719 Q811.2244,457.4063 812.115,458.2344 Q813.0056,459.0469 814.5994,459.0469 Q815.5369,459.0469 816.1931,458.7969 Q816.5838,458.6406 817.0056,458.2031 Q817.2713,457.9375 817.4119,457.8594 Q817.5681,457.7813 817.7713,457.7813 Q818.0994,457.7813 818.3494,458.0469 Q818.615,458.2969 818.615,458.6406 Q818.615,458.9844 818.2713,459.3906 Q817.7713,459.9688 816.9744,460.2969 Q815.8963,460.75 814.5994,460.75 Q813.0838,460.75 811.8806,460.125 Q810.8963,459.625 810.2088,458.5625 Q809.5213,457.4844 809.5213,456.2031 L809.5213,455.0469 Q809.5213,453.7188 810.1306,452.5781 Q810.7556,451.4219 811.8494,450.8125 Q812.9431,450.1875 814.1775,450.1875 Q814.9119,450.1875 815.5525,450.3594 Q816.2088,450.5156 816.7556,450.875 Z "/><text fill="#000000" font-family="sans-serif" font-size="12" lengthAdjust="spacingAndGlyphs" textLength="132" x="827.99" y="459.9102">SecretCombinationView</text><line style="stroke: #A80036; stroke-width: 1.5;" x1="799.99" x2="961.99" y1="471" y2="471"/><line style="stroke: #A80036; stroke-width: 1.5;" x1="799.99" x2="961.99" y1="479" y2="479"/><ellipse cx="809.99" cy="490" fill="#84BE84" rx="3" ry="3" style="stroke: #038048; stroke-width: 1.0;"/><text fill="#000000" font-family="sans-serif" font-size="11" lengthAdjust="spacingAndGlyphs" textLength="41" x="818.99" y="494.4189">writeln()</text><!--MD5=[ff88fef78a03b99ee0a0b34d5c9e19a9]
class mastermind.utils.Console--><rect codeLine="119" fill="#FEFECE" filter="url(#f1421m8cqjzfy7)" height="48" id="mastermind.utils.Console" style="stroke: #A80036; stroke-width: 1.5;" width="79" x="651.49" y="1049"/><ellipse cx="666.49" cy="1065" fill="#ADD1B2" rx="11" ry="11" style="stroke: #A80036; stroke-width: 1.0;"/><path d="M669.2556,1060.875 Q669.4119,1060.6563 669.5994,1060.5469 Q669.7869,1060.4375 670.0056,1060.4375 Q670.3806,1060.4375 670.615,1060.7031 Q670.8494,1060.9531 670.8494,1061.5625 L670.8494,1063.0156 Q670.8494,1063.625 670.615,1063.8906 Q670.3806,1064.1563 670.0056,1064.1563 Q669.6619,1064.1563 669.4588,1063.9531 Q669.2556,1063.7656 669.1463,1063.25 Q669.0994,1062.8906 668.9119,1062.7031 Q668.5838,1062.3281 667.9744,1062.1094 Q667.365,1061.8906 666.74,1061.8906 Q665.9744,1061.8906 665.3338,1062.2188 Q664.7088,1062.5469 664.2088,1063.2969 Q663.7244,1064.0469 663.7244,1065.0781 L663.7244,1066.1719 Q663.7244,1067.4063 664.615,1068.2344 Q665.5056,1069.0469 667.0994,1069.0469 Q668.0369,1069.0469 668.6931,1068.7969 Q669.0838,1068.6406 669.5056,1068.2031 Q669.7713,1067.9375 669.9119,1067.8594 Q670.0681,1067.7813 670.2713,1067.7813 Q670.5994,1067.7813 670.8494,1068.0469 Q671.115,1068.2969 671.115,1068.6406 Q671.115,1068.9844 670.7713,1069.3906 Q670.2713,1069.9688 669.4744,1070.2969 Q668.3963,1070.75 667.0994,1070.75 Q665.5838,1070.75 664.3806,1070.125 Q663.3963,1069.625 662.7088,1068.5625 Q662.0213,1067.4844 662.0213,1066.2031 L662.0213,1065.0469 Q662.0213,1063.7188 662.6306,1062.5781 Q663.2556,1061.4219 664.3494,1060.8125 Q665.4431,1060.1875 666.6775,1060.1875 Q667.4119,1060.1875 668.0525,1060.3594 Q668.7088,1060.5156 669.2556,1060.875 Z "/><text fill="#000000" font-family="sans-serif" font-size="12" lengthAdjust="spacingAndGlyphs" textLength="47" x="680.49" y="1069.9102">Console</text><line style="stroke: #A80036; stroke-width: 1.5;" x1="652.49" x2="729.49" y1="1081" y2="1081"/><line style="stroke: #A80036; stroke-width: 1.5;" x1="652.49" x2="729.49" y1="1089" y2="1089"/><!--MD5=[8fefce232ba7ae99aa926d324ff560e5]
class mastermind.utils.YesNoDialog--><rect codeLine="120" fill="#FEFECE" filter="url(#f1421m8cqjzfy7)" height="48" id="mastermind.utils.YesNoDialog" style="stroke: #A80036; stroke-width: 1.5;" width="105" x="511.49" y="1049"/><ellipse cx="526.49" cy="1065" fill="#ADD1B2" rx="11" ry="11" style="stroke: #A80036; stroke-width: 1.0;"/><path d="M529.2556,1060.875 Q529.4119,1060.6563 529.5994,1060.5469 Q529.7869,1060.4375 530.0056,1060.4375 Q530.3806,1060.4375 530.615,1060.7031 Q530.8494,1060.9531 530.8494,1061.5625 L530.8494,1063.0156 Q530.8494,1063.625 530.615,1063.8906 Q530.3806,1064.1563 530.0056,1064.1563 Q529.6619,1064.1563 529.4588,1063.9531 Q529.2556,1063.7656 529.1463,1063.25 Q529.0994,1062.8906 528.9119,1062.7031 Q528.5838,1062.3281 527.9744,1062.1094 Q527.365,1061.8906 526.74,1061.8906 Q525.9744,1061.8906 525.3338,1062.2188 Q524.7088,1062.5469 524.2088,1063.2969 Q523.7244,1064.0469 523.7244,1065.0781 L523.7244,1066.1719 Q523.7244,1067.4063 524.615,1068.2344 Q525.5056,1069.0469 527.0994,1069.0469 Q528.0369,1069.0469 528.6931,1068.7969 Q529.0838,1068.6406 529.5056,1068.2031 Q529.7713,1067.9375 529.9119,1067.8594 Q530.0681,1067.7813 530.2713,1067.7813 Q530.5994,1067.7813 530.8494,1068.0469 Q531.115,1068.2969 531.115,1068.6406 Q531.115,1068.9844 530.7713,1069.3906 Q530.2713,1069.9688 529.4744,1070.2969 Q528.3963,1070.75 527.0994,1070.75 Q525.5838,1070.75 524.3806,1070.125 Q523.3963,1069.625 522.7088,1068.5625 Q522.0213,1067.4844 522.0213,1066.2031 L522.0213,1065.0469 Q522.0213,1063.7188 522.6306,1062.5781 Q523.2556,1061.4219 524.3494,1060.8125 Q525.4431,1060.1875 526.6775,1060.1875 Q527.4119,1060.1875 528.0525,1060.3594 Q528.7088,1060.5156 529.2556,1060.875 Z "/><text fill="#000000" font-family="sans-serif" font-size="12" lengthAdjust="spacingAndGlyphs" textLength="73" x="540.49" y="1069.9102">YesNoDialog</text><line style="stroke: #A80036; stroke-width: 1.5;" x1="512.49" x2="615.49" y1="1081" y2="1081"/><line style="stroke: #A80036; stroke-width: 1.5;" x1="512.49" x2="615.49" y1="1089" y2="1089"/><!--MD5=[ef6fc8a83c8eb455c00aa47991605c31]
class mastermind.controllers.StartController--><rect codeLine="97" fill="#FEFECE" filter="url(#f1421m8cqjzfy7)" height="61.8359" id="mastermind.controllers.StartController" style="stroke: #A80036; stroke-width: 1.5;" width="111" x="56.49" y="588.5"/><ellipse cx="71.49" cy="604.5" fill="#ADD1B2" rx="11" ry="11" style="stroke: #A80036; stroke-width: 1.0;"/><path d="M74.2556,600.375 Q74.4119,600.1563 74.5994,600.0469 Q74.7869,599.9375 75.0056,599.9375 Q75.3806,599.9375 75.615,600.2031 Q75.8494,600.4531 75.8494,601.0625 L75.8494,602.5156 Q75.8494,603.125 75.615,603.3906 Q75.3806,603.6563 75.0056,603.6563 Q74.6619,603.6563 74.4588,603.4531 Q74.2556,603.2656 74.1463,602.75 Q74.0994,602.3906 73.9119,602.2031 Q73.5838,601.8281 72.9744,601.6094 Q72.365,601.3906 71.74,601.3906 Q70.9744,601.3906 70.3338,601.7188 Q69.7088,602.0469 69.2088,602.7969 Q68.7244,603.5469 68.7244,604.5781 L68.7244,605.6719 Q68.7244,606.9063 69.615,607.7344 Q70.5056,608.5469 72.0994,608.5469 Q73.0369,608.5469 73.6931,608.2969 Q74.0838,608.1406 74.5056,607.7031 Q74.7713,607.4375 74.9119,607.3594 Q75.0681,607.2813 75.2713,607.2813 Q75.5994,607.2813 75.8494,607.5469 Q76.115,607.7969 76.115,608.1406 Q76.115,608.4844 75.7713,608.8906 Q75.2713,609.4688 74.4744,609.7969 Q73.3963,610.25 72.0994,610.25 Q70.5838,610.25 69.3806,609.625 Q68.3963,609.125 67.7088,608.0625 Q67.0213,606.9844 67.0213,605.7031 L67.0213,604.5469 Q67.0213,603.2188 67.6306,602.0781 Q68.2556,600.9219 69.3494,600.3125 Q70.4431,599.6875 71.6775,599.6875 Q72.4119,599.6875 73.0525,599.8594 Q73.7088,600.0156 74.2556,600.375 Z "/><text fill="#000000" font-family="sans-serif" font-size="12" lengthAdjust="spacingAndGlyphs" textLength="79" x="85.49" y="609.4102">StartController</text><line style="stroke: #A80036; stroke-width: 1.5;" x1="57.49" x2="166.49" y1="620.5" y2="620.5"/><line style="stroke: #A80036; stroke-width: 1.5;" x1="57.49" x2="166.49" y1="628.5" y2="628.5"/><ellipse cx="67.49" cy="639.5" fill="#84BE84" rx="3" ry="3" style="stroke: #038048; stroke-width: 1.0;"/><text fill="#000000" font-family="sans-serif" font-size="11" lengthAdjust="spacingAndGlyphs" textLength="41" x="76.49" y="643.9189">accept()</text><!--MD5=[ff345c89f878e0f573ea2dc92593b33d]
class mastermind.controllers.PlayController--><rect codeLine="100" fill="#FEFECE" filter="url(#f1421m8cqjzfy7)" height="61.8359" id="mastermind.controllers.PlayController" style="stroke: #A80036; stroke-width: 1.5;" width="109" x="202.49" y="588.5"/><ellipse cx="217.49" cy="604.5" fill="#ADD1B2" rx="11" ry="11" style="stroke: #A80036; stroke-width: 1.0;"/><path d="M220.2556,600.375 Q220.4119,600.1563 220.5994,600.0469 Q220.7869,599.9375 221.0056,599.9375 Q221.3806,599.9375 221.615,600.2031 Q221.8494,600.4531 221.8494,601.0625 L221.8494,602.5156 Q221.8494,603.125 221.615,603.3906 Q221.3806,603.6563 221.0056,603.6563 Q220.6619,603.6563 220.4587,603.4531 Q220.2556,603.2656 220.1462,602.75 Q220.0994,602.3906 219.9119,602.2031 Q219.5837,601.8281 218.9744,601.6094 Q218.365,601.3906 217.74,601.3906 Q216.9744,601.3906 216.3337,601.7188 Q215.7087,602.0469 215.2087,602.7969 Q214.7244,603.5469 214.7244,604.5781 L214.7244,605.6719 Q214.7244,606.9063 215.615,607.7344 Q216.5056,608.5469 218.0994,608.5469 Q219.0369,608.5469 219.6931,608.2969 Q220.0837,608.1406 220.5056,607.7031 Q220.7712,607.4375 220.9119,607.3594 Q221.0681,607.2813 221.2712,607.2813 Q221.5994,607.2813 221.8494,607.5469 Q222.115,607.7969 222.115,608.1406 Q222.115,608.4844 221.7712,608.8906 Q221.2712,609.4688 220.4744,609.7969 Q219.3962,610.25 218.0994,610.25 Q216.5837,610.25 215.3806,609.625 Q214.3962,609.125 213.7087,608.0625 Q213.0212,606.9844 213.0212,605.7031 L213.0212,604.5469 Q213.0212,603.2188 213.6306,602.0781 Q214.2556,600.9219 215.3494,600.3125 Q216.4431,599.6875 217.6775,599.6875 Q218.4119,599.6875 219.0525,599.8594 Q219.7087,600.0156 220.2556,600.375 Z "/><text fill="#000000" font-family="sans-serif" font-size="12" lengthAdjust="spacingAndGlyphs" textLength="77" x="231.49" y="609.4102">PlayController</text><line style="stroke: #A80036; stroke-width: 1.5;" x1="203.49" x2="310.49" y1="620.5" y2="620.5"/><line style="stroke: #A80036; stroke-width: 1.5;" x1="203.49" x2="310.49" y1="628.5" y2="628.5"/><ellipse cx="213.49" cy="639.5" fill="#84BE84" rx="3" ry="3" style="stroke: #038048; stroke-width: 1.0;"/><text fill="#000000" font-family="sans-serif" font-size="11" lengthAdjust="spacingAndGlyphs" textLength="41" x="222.49" y="643.9189">accept()</text><!--MD5=[d9d5430157ad572c27b2bdfc27cdb4ea]
class mastermind.controllers.ResumeController--><rect codeLine="103" fill="#FEFECE" filter="url(#f1421m8cqjzfy7)" height="61.8359" id="mastermind.controllers.ResumeController" style="stroke: #A80036; stroke-width: 1.5;" width="134" x="346.99" y="588.5"/><ellipse cx="361.99" cy="604.5" fill="#ADD1B2" rx="11" ry="11" style="stroke: #A80036; stroke-width: 1.0;"/><path d="M364.7556,600.375 Q364.9119,600.1563 365.0994,600.0469 Q365.2869,599.9375 365.5056,599.9375 Q365.8806,599.9375 366.115,600.2031 Q366.3494,600.4531 366.3494,601.0625 L366.3494,602.5156 Q366.3494,603.125 366.115,603.3906 Q365.8806,603.6563 365.5056,603.6563 Q365.1619,603.6563 364.9588,603.4531 Q364.7556,603.2656 364.6463,602.75 Q364.5994,602.3906 364.4119,602.2031 Q364.0838,601.8281 363.4744,601.6094 Q362.865,601.3906 362.24,601.3906 Q361.4744,601.3906 360.8338,601.7188 Q360.2088,602.0469 359.7088,602.7969 Q359.2244,603.5469 359.2244,604.5781 L359.2244,605.6719 Q359.2244,606.9063 360.115,607.7344 Q361.0056,608.5469 362.5994,608.5469 Q363.5369,608.5469 364.1931,608.2969 Q364.5838,608.1406 365.0056,607.7031 Q365.2713,607.4375 365.4119,607.3594 Q365.5681,607.2813 365.7713,607.2813 Q366.0994,607.2813 366.3494,607.5469 Q366.615,607.7969 366.615,608.1406 Q366.615,608.4844 366.2713,608.8906 Q365.7713,609.4688 364.9744,609.7969 Q363.8963,610.25 362.5994,610.25 Q361.0838,610.25 359.8806,609.625 Q358.8963,609.125 358.2088,608.0625 Q357.5213,606.9844 357.5213,605.7031 L357.5213,604.5469 Q357.5213,603.2188 358.1306,602.0781 Q358.7556,600.9219 359.8494,600.3125 Q360.9431,599.6875 362.1775,599.6875 Q362.9119,599.6875 363.5525,599.8594 Q364.2088,600.0156 364.7556,600.375 Z "/><text fill="#000000" font-family="sans-serif" font-size="12" lengthAdjust="spacingAndGlyphs" textLength="102" x="375.99" y="609.4102">ResumeController</text><line style="stroke: #A80036; stroke-width: 1.5;" x1="347.99" x2="479.99" y1="620.5" y2="620.5"/><line style="stroke: #A80036; stroke-width: 1.5;" x1="347.99" x2="479.99" y1="628.5" y2="628.5"/><ellipse cx="357.99" cy="639.5" fill="#84BE84" rx="3" ry="3" style="stroke: #038048; stroke-width: 1.0;"/><text fill="#000000" font-family="sans-serif" font-size="11" lengthAdjust="spacingAndGlyphs" textLength="41" x="366.99" y="643.9189">accept()</text><!--MD5=[93196630c62c7bf5ad6210e354f2ffb9]
reverse link mastermind.views.ErrorView to mastermind.views.console.ErrorView--><path codeLine="14" d="M1178.27,117.06 C1195.4,218.47 1238.15,471.45 1255.5,574.14 " fill="none" id="mastermind.views.ErrorView-backto-mastermind.views.console.ErrorView" style="stroke: #A80036; stroke-width: 1.0;"/><polygon fill="none" points="1171.32,117.94,1174.89,97.05,1185.12,115.6,1171.32,117.94" style="stroke: #A80036; stroke-width: 1.0;"/><!--MD5=[d37428506622b0c9d6de9bc1dd0b5366]
link mastermind.views.console.ErrorView to mastermind.views.console.ColorView--><path codeLine="15" d="M1226.01,664.67 C1198.13,697.97 1159.37,744.25 1127.47,782.36 " fill="none" id="mastermind.views.console.ErrorView-to-mastermind.views.console.ColorView" style="stroke: #A80036; stroke-width: 1.0; stroke-dasharray: 7.0,7.0;"/><polygon fill="#A80036" points="1124.01,786.49,1132.8525,782.1529,1127.2179,782.6547,1126.7161,777.0202,1124.01,786.49" style="stroke: #A80036; stroke-width: 1.0;"/><!--MD5=[d1ca1a37c6324bc5a38854bad3d80757]
link mastermind.views.console.ErrorView to mastermind.utils.Console--><path codeLine="16" d="M1268.28,664.66 C1275.04,743.78 1276.44,909.58 1183.99,997 C1119.83,1057.68 844.83,1069.28 735.79,1071.48 " fill="none" id="mastermind.views.console.ErrorView-to-mastermind.utils.Console" style="stroke: #A80036; stroke-width: 1.0; stroke-dasharray: 7.0,7.0;"/><polygon fill="#A80036" points="730.73,1071.58,739.8082,1075.3992,735.729,1071.48,739.6482,1067.4008,730.73,1071.58" style="stroke: #A80036; stroke-width: 1.0;"/><!--MD5=[31fa26c68577a37da1dd74059617aa08]
link mastermind.views.console.Message to mastermind.utils.Console--><path codeLine="35" d="M729.84,973.07 C719.47,999.48 709.42,1025.06 702.15,1043.59 " fill="none" id="mastermind.views.console.Message-to-mastermind.utils.Console" style="stroke: #A80036; stroke-width: 1.0; stroke-dasharray: 7.0,7.0;"/><polygon fill="#A80036" points="700.17,1048.63,707.1826,1041.7145,701.9974,1043.9759,699.736,1038.7907,700.17,1048.63" style="stroke: #A80036; stroke-width: 1.0;"/><!--MD5=[e11f0e9a3def0929d4523b5d9974c1ba]
link mastermind.views.console.ColorView to mastermind.utils.Console--><path codeLine="45" d="M1010.53,917.61 C982.48,945.08 947.25,975.64 910.99,997 C854.8,1030.09 781.88,1051.29 735.74,1062.43 " fill="none" id="mastermind.views.console.ColorView-to-mastermind.utils.Console" style="stroke: #A80036; stroke-width: 1.0; stroke-dasharray: 7.0,7.0;"/><polygon fill="#A80036" points="730.81,1063.61,740.4908,1065.4218,735.6746,1062.4545,738.6419,1057.6383,730.81,1063.61" style="stroke: #A80036; stroke-width: 1.0;"/><!--MD5=[97e92174cff5a799cba2b6b10703efa3]
link mastermind.views.console.GameView to mastermind.views.console.ProposedCombinationView--><path codeLine="52" d="M1036.0118,519.3082 C1036.0118,519.3082 1025.78,544.06 1020.91,555.84 " fill="none" id="mastermind.views.console.GameView-mastermind.views.console.ProposedCombinationView" style="stroke: #A80036; stroke-width: 1.0;"/><polygon fill="#A80036" points="1015.91,567.92,1023.0472,561.1333,1017.8218,563.2999,1015.6551,558.0744,1015.91,567.92" style="stroke: #A80036; stroke-width: 1.0;"/><line style="stroke: #A80036; stroke-width: 1.0;" x1="1017.8218" x2="1020.875" y1="563.2999" y2="555.91"/><polygon fill="#A80036" points="1040.6,508.22,1034.6098,512.2347,1036.0118,519.3082,1042.002,515.2935,1040.6,508.22" style="stroke: #A80036; stroke-width: 1.0;"/><!--MD5=[51b03fc2ac92029731f7a9969a692a10]
link mastermind.views.console.GameView to mastermind.views.console.ResultView--><path codeLine="53" d="M986.8791,505.6837 C986.8791,505.6837 982.56,507.41 980.99,508 C922,530.16 897.54,511.28 843.99,544.5 C832.66,551.53 822.2,561.15 813.13,571.12 " fill="none" id="mastermind.views.console.GameView-mastermind.views.console.ResultView" style="stroke: #A80036; stroke-width: 1.0;"/><polygon fill="#A80036" points="804.54,581.13,813.4331,576.8977,807.7931,577.3329,807.3578,571.6929,804.54,581.13" style="stroke: #A80036; stroke-width: 1.0;"/><line style="stroke: #A80036; stroke-width: 1.0;" x1="807.7931" x2="813.005" y1="577.3329" y2="571.26"/><polygon fill="#A80036" points="997.94,501.03,990.8583,499.6699,986.8791,505.6837,993.9608,507.0438,997.94,501.03" style="stroke: #A80036; stroke-width: 1.0;"/><!--MD5=[39602f028aa870f5ccf36594acfae3ac]
reverse link mastermind.views.View to mastermind.views.console.View--><path codeLine="71" d="M992.56,121.41 C981.47,140.57 968.92,162.26 958.76,179.83 " fill="none" id="mastermind.views.View-backto-mastermind.views.console.View" style="stroke: #A80036; stroke-width: 1.0;"/><polygon fill="none" points="986.54,117.84,1002.62,104.03,998.66,124.85,986.54,117.84" style="stroke: #A80036; stroke-width: 1.0;"/><!--MD5=[8e724eb5786a9549b273d934efc02a2d]
reverse link mastermind.views.console.View to mastermind.views.console.StartView--><path codeLine="72" d="M914.37,268.65 C907.81,282.66 900.95,297.33 895.16,309.7 " fill="none" id="mastermind.views.console.View-backto-mastermind.views.console.StartView" style="stroke: #A80036; stroke-width: 1.0;"/><polygon fill="none" points="908.18,265.36,922.99,250.21,920.86,271.29,908.18,265.36" style="stroke: #A80036; stroke-width: 1.0;"/><!--MD5=[42738094199796b05450eb1b1d35c83f]
reverse link mastermind.views.console.View to mastermind.views.console.PlayView--><path codeLine="73" d="M964.04,268.65 C970.71,282.66 977.69,297.33 983.58,309.7 " fill="none" id="mastermind.views.console.View-backto-mastermind.views.console.PlayView" style="stroke: #A80036; stroke-width: 1.0;"/><polygon fill="none" points="957.54,271.28,955.27,250.21,970.18,265.26,957.54,271.28" style="stroke: #A80036; stroke-width: 1.0;"/><!--MD5=[ad19d6f9269aca647e98bcfa5ba96323]
reverse link mastermind.views.console.View to mastermind.views.console.ResumeView--><path codeLine="74" d="M884.83,254.34 C864.04,270.34 840.81,289.87 821.99,310 C783.83,350.82 748.49,405.56 728.35,439 " fill="none" id="mastermind.views.console.View-backto-mastermind.views.console.ResumeView" style="stroke: #A80036; stroke-width: 1.0;"/><polygon fill="none" points="880.65,248.72,900.85,242.32,889.05,259.92,880.65,248.72" style="stroke: #A80036; stroke-width: 1.0;"/><!--MD5=[211633735e894ed8561a579b0bc6657c]
link mastermind.views.console.SecretCombinationView to mastermind.views.console.Message--><path codeLine="87" d="M803.06,501.03 C762.64,517.38 720.54,535.98 714.99,544.5 C680.21,597.94 690.39,666.86 711.6,725.8 " fill="none" id="mastermind.views.console.SecretCombinationView-to-mastermind.views.console.Message" style="stroke: #A80036; stroke-width: 1.0; stroke-dasharray: 7.0,7.0;"/><polygon fill="#A80036" points="713.42,730.75,714.0676,720.9225,711.6941,726.0573,706.5593,723.6839,713.42,730.75" style="stroke: #A80036; stroke-width: 1.0;"/><!--MD5=[7b8ed37ac486ec01e477f20cc01b0353]
link mastermind.views.console.SecretCombinationView to mastermind.utils.Console--><path codeLine="88" d="M800.49,501.1 C794.23,503.43 788.01,505.76 781.99,508 C738.45,524.25 714.48,509.41 683.99,544.5 C551.55,696.94 586.28,803.19 642.99,997 C648.03,1014.21 658.36,1031.22 668.15,1044.68 " fill="none" id="mastermind.views.console.SecretCombinationView-to-mastermind.utils.Console" style="stroke: #A80036; stroke-width: 1.0; stroke-dasharray: 7.0,7.0;"/><polygon fill="#A80036" points="671.16,1048.74,669.0205,1039.1263,668.1852,1044.7212,662.5904,1043.886,671.16,1048.74" style="stroke: #A80036; stroke-width: 1.0;"/><!--MD5=[06d39c6d55de61507934642cb4d5bb9c]
link mastermind.views.console.ResultView to mastermind.views.console.Message--><path codeLine="95" d="M778.67,657.53 C778.51,676.42 778.3,700.62 778.08,725.46 " fill="none" id="mastermind.views.console.ResultView-to-mastermind.views.console.Message" style="stroke: #A80036; stroke-width: 1.0; stroke-dasharray: 7.0,7.0;"/><polygon fill="#A80036" points="778.04,730.77,782.117,721.8046,778.0829,725.7702,774.1173,721.736,778.04,730.77" style="stroke: #A80036; stroke-width: 1.0;"/><!--MD5=[8f245a8d78810f0c57f289191747470b]
link mastermind.views.console.StartView to mastermind.controllers.StartController--><path codeLine="107" d="M839.24,345.03 C752.77,352.28 548.78,374.53 387.99,432 C290.86,466.72 267.16,482.15 184.99,544.5 C169.49,556.27 154.09,571.25 141.46,584.66 " fill="none" id="mastermind.views.console.StartView-to-mastermind.controllers.StartController" style="stroke: #A80036; stroke-width: 1.0; stroke-dasharray: 7.0,7.0;"/><polygon fill="#A80036" points="137.97,588.39,147.0276,584.5221,141.3744,584.7281,141.1685,579.075,137.97,588.39" style="stroke: #A80036; stroke-width: 1.0;"/><!--MD5=[0de075a1a934131a669e9f14028274ff]
link mastermind.views.console.StartView to mastermind.views.console.GameView--><path codeLine="108" d="M922.46,372.1 C945.78,389.02 975.19,410.36 1000.46,428.7 " fill="none" id="mastermind.views.console.StartView-to-mastermind.views.console.GameView" style="stroke: #A80036; stroke-width: 1.0; stroke-dasharray: 7.0,7.0;"/><polygon fill="#A80036" points="1004.81,431.86,999.8733,423.3377,1000.7626,428.9242,995.1761,429.8135,1004.81,431.86" style="stroke: #A80036; stroke-width: 1.0;"/><!--MD5=[41e7c5722a549567edcd18e0df347507]
link mastermind.views.console.PlayView to mastermind.controllers.PlayController--><path codeLine="109" d="M957.43,364.77 C951.69,367.46 945.77,369.97 939.99,372 C812.11,416.91 771.53,395.51 640.99,432 C499.43,471.57 453.77,465.22 329.99,544.5 C313.18,555.26 297.27,570.54 284.62,584.42 " fill="none" id="mastermind.views.console.PlayView-to-mastermind.controllers.PlayController" style="stroke: #A80036; stroke-width: 1.0; stroke-dasharray: 7.0,7.0;"/><polygon fill="#A80036" points="281.14,588.29,290.1262,584.2591,284.4777,584.5672,284.1696,578.9187,281.14,588.29" style="stroke: #A80036; stroke-width: 1.0;"/><!--MD5=[4d0b123d5590f8baa5e9433c8cfac69f]
link mastermind.views.console.ResumeView to mastermind.controllers.ResumeController--><path codeLine="110" d="M657.69,485.2 C615.53,497.61 555.99,517.83 507.99,544.5 C487.91,555.66 467.63,570.99 451.07,584.81 " fill="none" id="mastermind.views.console.ResumeView-to-mastermind.controllers.ResumeController" style="stroke: #A80036; stroke-width: 1.0; stroke-dasharray: 7.0,7.0;"/><polygon fill="#A80036" points="446.95,588.28,456.4089,585.5359,450.7723,585.0567,451.2516,579.4202,446.95,588.28" style="stroke: #A80036; stroke-width: 1.0;"/><!--MD5=[6cabbdfbd1c0d957f13f65aa4fa2d580]
link mastermind.views.console.PlayView to mastermind.views.console.Message--><path codeLine="111" d="M1038.52,354.17 C1073.89,367.19 1123.04,391.6 1145.99,432 C1151.47,441.64 1151.19,668.89 1146.99,674.5 C1094.01,745.42 1036.12,693.37 955.99,731 C936.63,740.09 916.99,751.11 898.16,762.74 " fill="none" id="mastermind.views.console.PlayView-to-mastermind.views.console.Message" style="stroke: #A80036; stroke-width: 1.0; stroke-dasharray: 7.0,7.0;"/><polygon fill="#A80036" points="893.9,765.39,903.6541,764.0268,898.144,762.7464,899.4243,757.2364,893.9,765.39" style="stroke: #A80036; stroke-width: 1.0;"/><!--MD5=[f94ec796f92011a2cdc6453e6dc066cd]
link mastermind.views.console.PlayView to mastermind.views.console.ProposedCombinationView--><path codeLine="112" d="M1049.5592,361.9138 C1049.5592,361.9138 1114.79,399.72 1131.99,432 C1147.88,461.81 1146.56,477.53 1131.99,508 C1122.71,527.41 1108.18,544.49 1091.98,559.07 " fill="none" id="mastermind.views.console.PlayView-mastermind.views.console.ProposedCombinationView" style="stroke: #A80036; stroke-width: 1.0;"/><polygon fill="#A80036" points="1081.71,567.82,1091.1538,565.0247,1085.5148,564.576,1085.9635,558.937,1081.71,567.82" style="stroke: #A80036; stroke-width: 1.0;"/><line style="stroke: #A80036; stroke-width: 1.0;" x1="1085.5148" x2="1091.61" y1="564.576" y2="559.39"/><polygon fill="#A80036" points="1038.68,356.85,1042.4317,363.0083,1049.5592,361.9138,1045.8076,355.7555,1038.68,356.85" style="stroke: #A80036; stroke-width: 1.0;"/><!--MD5=[3dcd4e30514b95b8d1f649813e9aca27]
link mastermind.views.console.PlayView to mastermind.views.console.SecretCombinationView--><path codeLine="113" d="M970.26,372.1 C952.91,390.94 930.49,415.27 912.47,434.83 " fill="none" id="mastermind.views.console.PlayView-to-mastermind.views.console.SecretCombinationView" style="stroke: #A80036; stroke-width: 1.0; stroke-dasharray: 7.0,7.0;"/><polygon fill="#A80036" points="908.93,438.68,917.9718,434.7755,912.3196,435.0043,912.0908,429.3521,908.93,438.68" style="stroke: #A80036; stroke-width: 1.0;"/><!--MD5=[113657d5a9d9129aca0ead55eddcf8af]
link mastermind.views.console.PlayView to mastermind.views.console.GameView--><path codeLine="114" d="M1011.74,372.1 C1019.21,388.46 1028.57,408.95 1036.75,426.87 " fill="none" id="mastermind.views.console.PlayView-to-mastermind.views.console.GameView" style="stroke: #A80036; stroke-width: 1.0; stroke-dasharray: 7.0,7.0;"/><polygon fill="#A80036" points="1039.03,431.86,1038.9356,422.0116,1036.9556,427.3106,1031.6566,425.3306,1039.03,431.86" style="stroke: #A80036; stroke-width: 1.0;"/><!--MD5=[4d3dccfe2a8ca8a8eb413027e572496d]
link mastermind.views.console.StartView to mastermind.views.console.SecretCombinationView--><path codeLine="115" d="M880.99,372.1 C880.99,390.47 880.99,414.05 880.99,433.36 " fill="none" id="mastermind.views.console.StartView-to-mastermind.views.console.SecretCombinationView" style="stroke: #A80036; stroke-width: 1.0; stroke-dasharray: 7.0,7.0;"/><polygon fill="#A80036" points="880.99,438.68,884.99,429.68,880.99,433.68,876.99,429.68,880.99,438.68" style="stroke: #A80036; stroke-width: 1.0;"/><!--MD5=[af74daba062daa314b40548cd17a0322]
link mastermind.views.console.ErrorView to mastermind.views.console.Message--><path codeLine="116" d="M1201.49,660.94 C1192.48,665.94 1183.15,670.63 1173.99,674.5 C1081.78,713.43 1047.3,690 955.99,731 C936.48,739.76 916.75,750.6 897.88,762.14 " fill="none" id="mastermind.views.console.ErrorView-to-mastermind.views.console.Message" style="stroke: #A80036; stroke-width: 1.0; stroke-dasharray: 7.0,7.0;"/><polygon fill="#A80036" points="893.61,764.77,903.3693,763.4452,897.8644,762.1431,899.1664,756.6382,893.61,764.77" style="stroke: #A80036; stroke-width: 1.0;"/><!--MD5=[014169ccde0a8d102d7c482798a7cb71]
link mastermind.views.console.ResumeView to mastermind.views.console.Message--><path codeLine="117" d="M698.74,501.22 C694.07,514.3 689.31,529.92 686.99,544.5 C677.91,601.56 673.5,618.32 686.99,674.5 C691.14,691.77 697.28,709.26 704.44,726.17 " fill="none" id="mastermind.views.console.ResumeView-to-mastermind.views.console.Message" style="stroke: #A80036; stroke-width: 1.0; stroke-dasharray: 7.0,7.0;"/><polygon fill="#A80036" points="706.48,730.92,706.6002,721.0719,704.5052,726.3265,699.2506,724.2315,706.48,730.92" style="stroke: #A80036; stroke-width: 1.0;"/><!--MD5=[56f83853ee30c1594e585bca3e1b1bfa]
link mastermind.views.console.ResumeView to mastermind.utils.YesNoDialog--><path codeLine="122" d="M657.72,486.36 C629.16,497.57 596.35,515.91 578.99,544.5 C478.86,709.45 533.34,960.05 555.8,1043.71 " fill="none" id="mastermind.views.console.ResumeView-to-mastermind.utils.YesNoDialog" style="stroke: #A80036; stroke-width: 1.0; stroke-dasharray: 7.0,7.0;"/><polygon fill="#A80036" points="557.23,1048.97,558.7259,1039.2354,555.9168,1044.1455,551.0067,1041.3365,557.23,1048.97" style="stroke: #A80036; stroke-width: 1.0;"/><!--MD5=[62f25a85311f62b3c8b829fe212161e3]
link mastermind.views.console.PlayView to mastermind.utils.Console--><path codeLine="123" d="M957.27,365.4 C951.6,367.96 945.74,370.27 939.99,372 C550.05,489.56 279.63,215.18 39.99,544.5 C6,591.22 11.39,624.3 39.99,674.5 C179.12,918.72 319.66,901.44 583.99,997 C605.16,1004.65 614.38,993.97 633.99,1005 C650.52,1014.29 664.42,1030.33 674.36,1044.39 " fill="none" id="mastermind.views.console.PlayView-to-mastermind.utils.Console" style="stroke: #A80036; stroke-width: 1.0; stroke-dasharray: 7.0,7.0;"/><polygon fill="#A80036" points="677.31,1048.68,675.4846,1039.0018,674.4677,1044.5665,668.903,1043.5495,677.31,1048.68" style="stroke: #A80036; stroke-width: 1.0;"/><!--MD5=[c21e6e8e0f3de38fcefbae126762519c]
@startuml mastermind.views

abstract class mastermind.views.View{
+ {abstract} interact(Controller): void
}

class mastermind.views.ErrorView{}

class  mastermind.views.console.ErrorView{
    + {static} MESSAGES: String[]
    # error: Error
    + ErrorView(Error)
}

mastermind.views.console.ErrorView -up-|> mastermind.views.ErrorView
mastermind.views.console.ErrorView ..> mastermind.views.console.ColorView
mastermind.views.console.ErrorView ..> mastermind.utils.Console

enum  mastermind.views.console.Message{
    + ATTEMPTS: MessageView
    + SECRECT: MessageView
    + SEPARATOR: MessageView
    + RESUME: MessageView
    + RESULT: MessageView
    + PROPOSED_COMBINATION: MessageView
    + TITLE: MessageView
    + WINNER: MessageView
    + LOOSER: MessageView
    - message: String
    - MessageView(String)
    + write(): String
    + writeln(): String
    + writeln(): String
}

mastermind.views.console.Message ..> mastermind.utils.Console

class mastermind.views.console.ColorView{
    + {static} INITIALS: char[]
    # color: Color
    + ColorView(Color)
    + {static} allInitials(): String
    + {static} getInstance(char character): Color
    + write()
}
mastermind.views.console.ColorView ..> mastermind.utils.Console

class mastermind.views.console.GameView{
    - UseCaseController  
    + write() 
}

mastermind.views.console.GameView *- -> mastermind.views.console.ProposedCombinationView
mastermind.views.console.GameView *- -> mastermind.views.console.ResultView

abstract class mastermind.views.console.View << Visitor >>{
    + interact()
}

class mastermind.views.console.PlayView{
    + interact()
}

class mastermind.views.console.ResumeView{
    + interact()
}

class mastermind.views.console.StartView{
    + interact()
}

mastermind.views.console.View -up-|> mastermind.views.View
mastermind.views.console.StartView -up-|> mastermind.views.console.View
mastermind.views.console.PlayView -up-|> mastermind.views.console.View
mastermind.views.console.ResumeView -up-|> mastermind.views.console.View

class mastermind.views.console.ProposedCombinationView{
    - ProposedCombination
    + ProposedCombinationView(ProposedCombination)
    + write()
    + read() 
}

class mastermind.views.console.SecretCombinationView{
    + writeln()
}

mastermind.views.console.SecretCombinationView ..> mastermind.views.console.Message
mastermind.views.console.SecretCombinationView ..> mastermind.utils.Console

class mastermind.views.console.ResultView{
    - Result
    + writeln()
}

mastermind.views.console.ResultView ..> mastermind.views.console.Message

class mastermind.controllers.StartController{
    + accept()
}
class mastermind.controllers.PlayController{
    + accept()
}
class mastermind.controllers.ResumeController{
    + accept()
}

mastermind.views.console.StartView ..> mastermind.controllers.StartController
mastermind.views.console.StartView ..> mastermind.views.console.GameView
mastermind.views.console.PlayView ..> mastermind.controllers.PlayController
mastermind.views.console.ResumeView ..> mastermind.controllers.ResumeController
mastermind.views.console.PlayView ..> mastermind.views.console.Message
mastermind.views.console.PlayView *- -> mastermind.views.console.ProposedCombinationView
mastermind.views.console.PlayView ..> mastermind.views.console.SecretCombinationView
mastermind.views.console.PlayView ..> mastermind.views.console.GameView
mastermind.views.console.StartView ..> mastermind.views.console.SecretCombinationView
mastermind.views.console.ErrorView ..> mastermind.views.console.Message
mastermind.views.console.ResumeView ..> mastermind.views.console.Message

class mastermind.utils.Console{}
class mastermind.utils.YesNoDialog{}

mastermind.views.console.ResumeView ..> mastermind.utils.YesNoDialog
mastermind.views.console.PlayView..> mastermind.utils.Console



@enduml

PlantUML version 1.2020.18(Wed Sep 30 21:40:44 CEST 2020)
(GPL source distribution)
Java Runtime: OpenJDK Runtime Environment
JVM: OpenJDK 64-Bit Server VM
Default Encoding: Cp1252
Language: es
Country: ES
--></g></svg>