<?xml version="1.0" encoding="UTF-8" standalone="no"?><svg xmlns="http://www.w3.org/2000/svg" xmlns:xlink="http://www.w3.org/1999/xlink" contentScriptType="application/ecmascript" contentStyleType="text/css" height="769px" preserveAspectRatio="none" style="width:711px;height:769px;" version="1.1" viewBox="0 0 711 769" width="711px" zoomAndPan="magnify"><defs><filter height="300%" id="f1hyuskxvbtbsy" width="300%" x="-1" y="-1"><feGaussianBlur result="blurOut" stdDeviation="2.0"/><feColorMatrix in="blurOut" result="blurOut2" type="matrix" values="0 0 0 0 0 0 0 0 0 0 0 0 0 0 0 0 0 0 .4 0"/><feOffset dx="4.0" dy="4.0" in="blurOut2" result="blurOut3"/><feBlend in="SourceGraphic" in2="blurOut3" mode="normal"/></filter></defs><g><!--MD5=[8e0b9655f0966c29230933410523611d]
cluster mastermind.models--><polygon fill="#FFFFFF" filter="url(#f1hyuskxvbtbsy)" points="16,6,159,6,166,29.6094,694,29.6094,694,762,16,762,16,6" style="stroke: #000000; stroke-width: 1.5;"/><line style="stroke: #000000; stroke-width: 1.5;" x1="16" x2="166" y1="29.6094" y2="29.6094"/><text fill="#000000" font-family="sans-serif" font-size="14" font-weight="bold" lengthAdjust="spacingAndGlyphs" textLength="137" x="20" y="22.5332">mastermind.models</text><!--MD5=[5e669b60aaac1a014a32b452096260f0]
class mastermind.models.Game--><rect codeLine="2" fill="#FEFECE" filter="url(#f1hyuskxvbtbsy)" height="144.8516" id="mastermind.models.Game" style="stroke: #A80036; stroke-width: 1.5;" width="228" x="150" y="247"/><ellipse cx="242.75" cy="263" fill="#ADD1B2" rx="11" ry="11" style="stroke: #A80036; stroke-width: 1.0;"/><path d="M245.5156,258.875 Q245.6719,258.6563 245.8594,258.5469 Q246.0469,258.4375 246.2656,258.4375 Q246.6406,258.4375 246.875,258.7031 Q247.1094,258.9531 247.1094,259.5625 L247.1094,261.0156 Q247.1094,261.625 246.875,261.8906 Q246.6406,262.1563 246.2656,262.1563 Q245.9219,262.1563 245.7188,261.9531 Q245.5156,261.7656 245.4063,261.25 Q245.3594,260.8906 245.1719,260.7031 Q244.8438,260.3281 244.2344,260.1094 Q243.625,259.8906 243,259.8906 Q242.2344,259.8906 241.5938,260.2188 Q240.9688,260.5469 240.4688,261.2969 Q239.9844,262.0469 239.9844,263.0781 L239.9844,264.1719 Q239.9844,265.4063 240.875,266.2344 Q241.7656,267.0469 243.3594,267.0469 Q244.2969,267.0469 244.9531,266.7969 Q245.3438,266.6406 245.7656,266.2031 Q246.0313,265.9375 246.1719,265.8594 Q246.3281,265.7813 246.5313,265.7813 Q246.8594,265.7813 247.1094,266.0469 Q247.375,266.2969 247.375,266.6406 Q247.375,266.9844 247.0313,267.3906 Q246.5313,267.9688 245.7344,268.2969 Q244.6563,268.75 243.3594,268.75 Q241.8438,268.75 240.6406,268.125 Q239.6563,267.625 238.9688,266.5625 Q238.2813,265.4844 238.2813,264.2031 L238.2813,263.0469 Q238.2813,261.7188 238.8906,260.5781 Q239.5156,259.4219 240.6094,258.8125 Q241.7031,258.1875 242.9375,258.1875 Q243.6719,258.1875 244.3125,258.3594 Q244.9688,258.5156 245.5156,258.875 Z "/><text fill="#000000" font-family="sans-serif" font-size="12" lengthAdjust="spacingAndGlyphs" textLength="34" x="263.25" y="267.9102">Game</text><line style="stroke: #A80036; stroke-width: 1.5;" x1="151" x2="377" y1="279" y2="279"/><rect fill="none" height="6" style="stroke: #C82930; stroke-width: 1.0;" width="6" x="158" y="287"/><text fill="#000000" font-family="sans-serif" font-size="11" lengthAdjust="spacingAndGlyphs" textLength="62" x="170" y="294.4189">board: Game</text><line style="stroke: #A80036; stroke-width: 1.5;" x1="151" x2="377" y1="300.8359" y2="300.8359"/><ellipse cx="161" cy="311.8359" fill="#84BE84" rx="3" ry="3" style="stroke: #038048; stroke-width: 1.0;"/><text fill="#000000" font-family="sans-serif" font-size="11" lengthAdjust="spacingAndGlyphs" textLength="36" x="170" y="316.2549">Game()</text><ellipse cx="161" cy="325.6719" fill="#84BE84" rx="3" ry="3" style="stroke: #038048; stroke-width: 1.0;"/><text fill="#000000" font-family="sans-serif" font-size="11" lengthAdjust="spacingAndGlyphs" textLength="95" x="170" y="330.0908">isWinner(): Boolean</text><ellipse cx="161" cy="339.5078" fill="#84BE84" rx="3" ry="3" style="stroke: #038048; stroke-width: 1.0;"/><text fill="#000000" font-family="sans-serif" font-size="11" lengthAdjust="spacingAndGlyphs" textLength="95" x="170" y="343.9268">isLooser(): Boolean</text><ellipse cx="161" cy="353.3438" fill="#84BE84" rx="3" ry="3" style="stroke: #038048; stroke-width: 1.0;"/><text fill="#000000" font-family="sans-serif" font-size="11" lengthAdjust="spacingAndGlyphs" textLength="188" x="170" y="357.7627">addProposedCombination(Combination)</text><ellipse cx="161" cy="367.1797" fill="#84BE84" rx="3" ry="3" style="stroke: #038048; stroke-width: 1.0;"/><text fill="#000000" font-family="sans-serif" font-size="11" lengthAdjust="spacingAndGlyphs" textLength="202" x="170" y="371.5986">getProposedCombination(int): Combination</text><ellipse cx="161" cy="381.0156" fill="#84BE84" rx="3" ry="3" style="stroke: #038048; stroke-width: 1.0;"/><text fill="#000000" font-family="sans-serif" font-size="11" lengthAdjust="spacingAndGlyphs" textLength="100" x="170" y="385.4346">getResult(int): Result</text><!--MD5=[ce8dc00f64766c3d9ddc5c23d11e019b]
class mastermind.models.ProposedCombination--><rect codeLine="42" fill="#FEFECE" filter="url(#f1hyuskxvbtbsy)" height="89.5078" id="mastermind.models.ProposedCombination" style="stroke: #A80036; stroke-width: 1.5;" width="157" x="266.5" y="465.5"/><ellipse cx="281.5" cy="481.5" fill="#ADD1B2" rx="11" ry="11" style="stroke: #A80036; stroke-width: 1.0;"/><path d="M284.2656,477.375 Q284.4219,477.1563 284.6094,477.0469 Q284.7969,476.9375 285.0156,476.9375 Q285.3906,476.9375 285.625,477.2031 Q285.8594,477.4531 285.8594,478.0625 L285.8594,479.5156 Q285.8594,480.125 285.625,480.3906 Q285.3906,480.6563 285.0156,480.6563 Q284.6719,480.6563 284.4688,480.4531 Q284.2656,480.2656 284.1563,479.75 Q284.1094,479.3906 283.9219,479.2031 Q283.5938,478.8281 282.9844,478.6094 Q282.375,478.3906 281.75,478.3906 Q280.9844,478.3906 280.3438,478.7188 Q279.7188,479.0469 279.2188,479.7969 Q278.7344,480.5469 278.7344,481.5781 L278.7344,482.6719 Q278.7344,483.9063 279.625,484.7344 Q280.5156,485.5469 282.1094,485.5469 Q283.0469,485.5469 283.7031,485.2969 Q284.0938,485.1406 284.5156,484.7031 Q284.7813,484.4375 284.9219,484.3594 Q285.0781,484.2813 285.2813,484.2813 Q285.6094,484.2813 285.8594,484.5469 Q286.125,484.7969 286.125,485.1406 Q286.125,485.4844 285.7813,485.8906 Q285.2813,486.4688 284.4844,486.7969 Q283.4063,487.25 282.1094,487.25 Q280.5938,487.25 279.3906,486.625 Q278.4063,486.125 277.7188,485.0625 Q277.0313,483.9844 277.0313,482.7031 L277.0313,481.5469 Q277.0313,480.2188 277.6406,479.0781 Q278.2656,477.9219 279.3594,477.3125 Q280.4531,476.6875 281.6875,476.6875 Q282.4219,476.6875 283.0625,476.8594 Q283.7188,477.0156 284.2656,477.375 Z "/><text fill="#000000" font-family="sans-serif" font-size="12" lengthAdjust="spacingAndGlyphs" textLength="125" x="295.5" y="486.4102">ProposedCombination</text><line style="stroke: #A80036; stroke-width: 1.5;" x1="267.5" x2="422.5" y1="497.5" y2="497.5"/><line style="stroke: #A80036; stroke-width: 1.5;" x1="267.5" x2="422.5" y1="505.5" y2="505.5"/><polygon fill="#FFFF44" points="277.5,511.5,281.5,515.5,277.5,519.5,273.5,515.5" style="stroke: #B38D22; stroke-width: 1.0;"/><text fill="#000000" font-family="sans-serif" font-size="11" lengthAdjust="spacingAndGlyphs" textLength="117" x="286.5" y="520.9189">contains(Color, position)</text><polygon fill="#FFFF44" points="277.5,525.3359,281.5,529.3359,277.5,533.3359,273.5,529.3359" style="stroke: #B38D22; stroke-width: 1.0;"/><text fill="#000000" font-family="sans-serif" font-size="11" lengthAdjust="spacingAndGlyphs" textLength="74" x="286.5" y="534.7549">contains(Color)</text><ellipse cx="277.5" cy="544.1719" fill="#84BE84" rx="3" ry="3" style="stroke: #038048; stroke-width: 1.0;"/><text fill="#000000" font-family="sans-serif" font-size="11" lengthAdjust="spacingAndGlyphs" textLength="91" x="286.5" y="548.5908">getColors(): Color[]</text><!--MD5=[603f91c77aeeb81b8bb339fe7f288f7b]
class mastermind.models.Result--><rect codeLine="53" fill="#FEFECE" filter="url(#f1hyuskxvbtbsy)" height="117.1797" id="mastermind.models.Result" style="stroke: #A80036; stroke-width: 1.5;" width="99" x="355.5" y="629"/><ellipse cx="384.45" cy="645" fill="#ADD1B2" rx="11" ry="11" style="stroke: #A80036; stroke-width: 1.0;"/><path d="M387.2156,640.875 Q387.3719,640.6563 387.5594,640.5469 Q387.7469,640.4375 387.9656,640.4375 Q388.3406,640.4375 388.575,640.7031 Q388.8094,640.9531 388.8094,641.5625 L388.8094,643.0156 Q388.8094,643.625 388.575,643.8906 Q388.3406,644.1563 387.9656,644.1563 Q387.6219,644.1563 387.4188,643.9531 Q387.2156,643.7656 387.1063,643.25 Q387.0594,642.8906 386.8719,642.7031 Q386.5438,642.3281 385.9344,642.1094 Q385.325,641.8906 384.7,641.8906 Q383.9344,641.8906 383.2938,642.2188 Q382.6688,642.5469 382.1688,643.2969 Q381.6844,644.0469 381.6844,645.0781 L381.6844,646.1719 Q381.6844,647.4063 382.575,648.2344 Q383.4656,649.0469 385.0594,649.0469 Q385.9969,649.0469 386.6531,648.7969 Q387.0438,648.6406 387.4656,648.2031 Q387.7313,647.9375 387.8719,647.8594 Q388.0281,647.7813 388.2313,647.7813 Q388.5594,647.7813 388.8094,648.0469 Q389.075,648.2969 389.075,648.6406 Q389.075,648.9844 388.7313,649.3906 Q388.2313,649.9688 387.4344,650.2969 Q386.3563,650.75 385.0594,650.75 Q383.5438,650.75 382.3406,650.125 Q381.3563,649.625 380.6688,648.5625 Q379.9813,647.4844 379.9813,646.2031 L379.9813,645.0469 Q379.9813,643.7188 380.5906,642.5781 Q381.2156,641.4219 382.3094,640.8125 Q383.4031,640.1875 384.6375,640.1875 Q385.3719,640.1875 386.0125,640.3594 Q386.6688,640.5156 387.2156,640.875 Z "/><text fill="#000000" font-family="sans-serif" font-size="12" lengthAdjust="spacingAndGlyphs" textLength="36" x="401.55" y="649.9102">Result</text><line style="stroke: #A80036; stroke-width: 1.5;" x1="356.5" x2="453.5" y1="661" y2="661"/><rect fill="none" height="6" style="stroke: #C82930; stroke-width: 1.0;" width="6" x="363.5" y="669"/><text fill="#000000" font-family="sans-serif" font-size="11" lengthAdjust="spacingAndGlyphs" textLength="31" x="375.5" y="676.4189">blacks</text><rect fill="none" height="6" style="stroke: #C82930; stroke-width: 1.0;" width="6" x="363.5" y="682.8359"/><text fill="#000000" font-family="sans-serif" font-size="11" lengthAdjust="spacingAndGlyphs" textLength="33" x="375.5" y="690.2549">whites</text><line style="stroke: #A80036; stroke-width: 1.5;" x1="356.5" x2="453.5" y1="696.6719" y2="696.6719"/><polygon fill="#4177AF" points="366.5,703.6719,362.5,709.6719,370.5,709.6719" style="stroke: #1963A0; stroke-width: 1.0;"/><text fill="#000000" font-family="sans-serif" font-size="11" lengthAdjust="spacingAndGlyphs" textLength="50" x="375.5" y="712.0908">isWinner()</text><ellipse cx="366.5" cy="721.5078" fill="#84BE84" rx="3" ry="3" style="stroke: #038048; stroke-width: 1.0;"/><text fill="#000000" font-family="sans-serif" font-size="11" lengthAdjust="spacingAndGlyphs" textLength="72" x="375.5" y="725.9268">getBlacks(): int</text><ellipse cx="366.5" cy="735.3438" fill="#84BE84" rx="3" ry="3" style="stroke: #038048; stroke-width: 1.0;"/><text fill="#000000" font-family="sans-serif" font-size="11" lengthAdjust="spacingAndGlyphs" textLength="73" x="375.5" y="739.7627">getWhites(): int</text><!--MD5=[18e11a8af630f25f1c94857378af7d3d]
class mastermind.models.SecretCombination--><rect codeLine="48" fill="#FEFECE" filter="url(#f1hyuskxvbtbsy)" height="75.6719" id="mastermind.models.SecretCombination" style="stroke: #A80036; stroke-width: 1.5;" width="219" x="458.5" y="472.5"/><ellipse cx="510.75" cy="488.5" fill="#ADD1B2" rx="11" ry="11" style="stroke: #A80036; stroke-width: 1.0;"/><path d="M513.5156,484.375 Q513.6719,484.1563 513.8594,484.0469 Q514.0469,483.9375 514.2656,483.9375 Q514.6406,483.9375 514.875,484.2031 Q515.1094,484.4531 515.1094,485.0625 L515.1094,486.5156 Q515.1094,487.125 514.875,487.3906 Q514.6406,487.6563 514.2656,487.6563 Q513.9219,487.6563 513.7188,487.4531 Q513.5156,487.2656 513.4063,486.75 Q513.3594,486.3906 513.1719,486.2031 Q512.8438,485.8281 512.2344,485.6094 Q511.625,485.3906 511,485.3906 Q510.2344,485.3906 509.5938,485.7188 Q508.9688,486.0469 508.4688,486.7969 Q507.9844,487.5469 507.9844,488.5781 L507.9844,489.6719 Q507.9844,490.9063 508.875,491.7344 Q509.7656,492.5469 511.3594,492.5469 Q512.2969,492.5469 512.9531,492.2969 Q513.3438,492.1406 513.7656,491.7031 Q514.0313,491.4375 514.1719,491.3594 Q514.3281,491.2813 514.5313,491.2813 Q514.8594,491.2813 515.1094,491.5469 Q515.375,491.7969 515.375,492.1406 Q515.375,492.4844 515.0313,492.8906 Q514.5313,493.4688 513.7344,493.7969 Q512.6563,494.25 511.3594,494.25 Q509.8438,494.25 508.6406,493.625 Q507.6563,493.125 506.9688,492.0625 Q506.2813,490.9844 506.2813,489.7031 L506.2813,488.5469 Q506.2813,487.2188 506.8906,486.0781 Q507.5156,484.9219 508.6094,484.3125 Q509.7031,483.6875 510.9375,483.6875 Q511.6719,483.6875 512.3125,483.8594 Q512.9688,484.0156 513.5156,484.375 Z "/><text fill="#000000" font-family="sans-serif" font-size="12" lengthAdjust="spacingAndGlyphs" textLength="106" x="531.25" y="493.4102">SecretCombination</text><line style="stroke: #A80036; stroke-width: 1.5;" x1="459.5" x2="676.5" y1="504.5" y2="504.5"/><line style="stroke: #A80036; stroke-width: 1.5;" x1="459.5" x2="676.5" y1="512.5" y2="512.5"/><polygon fill="#FFFF44" points="469.5,518.5,473.5,522.5,469.5,526.5,465.5,522.5" style="stroke: #B38D22; stroke-width: 1.0;"/><text fill="#000000" font-family="sans-serif" font-size="11" lengthAdjust="spacingAndGlyphs" textLength="98" x="478.5" y="527.9189">SecretCombination()</text><polygon fill="#FFFF44" points="469.5,532.3359,473.5,536.3359,469.5,540.3359,465.5,536.3359" style="stroke: #B38D22; stroke-width: 1.0;"/><text fill="#000000" font-family="sans-serif" font-size="11" lengthAdjust="spacingAndGlyphs" textLength="193" x="478.5" y="541.7549">getResult(ProposedCombination): Result</text><!--MD5=[3fa5b68df7c2e74eea52f74658e5066a]
class mastermind.models.State--><rect codeLine="17" fill="#FEFECE" filter="url(#f1hyuskxvbtbsy)" height="117.1797" id="mastermind.models.State" style="stroke: #A80036; stroke-width: 1.5;" width="161" x="32.5" y="452"/><ellipse cx="94.75" cy="468" fill="#ADD1B2" rx="11" ry="11" style="stroke: #A80036; stroke-width: 1.0;"/><path d="M97.5156,463.875 Q97.6719,463.6563 97.8594,463.5469 Q98.0469,463.4375 98.2656,463.4375 Q98.6406,463.4375 98.875,463.7031 Q99.1094,463.9531 99.1094,464.5625 L99.1094,466.0156 Q99.1094,466.625 98.875,466.8906 Q98.6406,467.1563 98.2656,467.1563 Q97.9219,467.1563 97.7188,466.9531 Q97.5156,466.7656 97.4063,466.25 Q97.3594,465.8906 97.1719,465.7031 Q96.8438,465.3281 96.2344,465.1094 Q95.625,464.8906 95,464.8906 Q94.2344,464.8906 93.5938,465.2188 Q92.9688,465.5469 92.4688,466.2969 Q91.9844,467.0469 91.9844,468.0781 L91.9844,469.1719 Q91.9844,470.4063 92.875,471.2344 Q93.7656,472.0469 95.3594,472.0469 Q96.2969,472.0469 96.9531,471.7969 Q97.3438,471.6406 97.7656,471.2031 Q98.0313,470.9375 98.1719,470.8594 Q98.3281,470.7813 98.5313,470.7813 Q98.8594,470.7813 99.1094,471.0469 Q99.375,471.2969 99.375,471.6406 Q99.375,471.9844 99.0313,472.3906 Q98.5313,472.9688 97.7344,473.2969 Q96.6563,473.75 95.3594,473.75 Q93.8438,473.75 92.6406,473.125 Q91.6563,472.625 90.9688,471.5625 Q90.2813,470.4844 90.2813,469.2031 L90.2813,468.0469 Q90.2813,466.7188 90.8906,465.5781 Q91.5156,464.4219 92.6094,463.8125 Q93.7031,463.1875 94.9375,463.1875 Q95.6719,463.1875 96.3125,463.3594 Q96.9688,463.5156 97.5156,463.875 Z "/><text fill="#000000" font-family="sans-serif" font-size="12" lengthAdjust="spacingAndGlyphs" textLength="28" x="115.25" y="472.9102">State</text><line style="stroke: #A80036; stroke-width: 1.5;" x1="33.5" x2="192.5" y1="484" y2="484"/><rect fill="none" height="6" style="stroke: #C82930; stroke-width: 1.0;" width="6" x="40.5" y="492"/><text fill="#000000" font-family="sans-serif" font-size="11" lengthAdjust="spacingAndGlyphs" textLength="111" x="52.5" y="499.4189">stateValue: StateValue</text><line style="stroke: #A80036; stroke-width: 1.5;" x1="33.5" x2="192.5" y1="505.8359" y2="505.8359"/><ellipse cx="43.5" cy="516.8359" fill="#84BE84" rx="3" ry="3" style="stroke: #038048; stroke-width: 1.0;"/><text fill="#000000" font-family="sans-serif" font-size="11" lengthAdjust="spacingAndGlyphs" textLength="33" x="52.5" y="521.2549">State()</text><ellipse cx="43.5" cy="530.6719" fill="#84BE84" rx="3" ry="3" style="stroke: #038048; stroke-width: 1.0;"/><text fill="#000000" font-family="sans-serif" font-size="11" lengthAdjust="spacingAndGlyphs" textLength="55" x="52.5" y="535.0908">next(): void</text><ellipse cx="43.5" cy="544.5078" fill="#84BE84" rx="3" ry="3" style="stroke: #038048; stroke-width: 1.0;"/><text fill="#000000" font-family="sans-serif" font-size="11" lengthAdjust="spacingAndGlyphs" textLength="59" x="52.5" y="548.9268">reset(): void</text><ellipse cx="43.5" cy="558.3438" fill="#84BE84" rx="3" ry="3" style="stroke: #038048; stroke-width: 1.0;"/><text fill="#000000" font-family="sans-serif" font-size="11" lengthAdjust="spacingAndGlyphs" textLength="135" x="52.5" y="562.7627">getValueState(): StateValue</text><!--MD5=[d5dd2c70e89db13b97018ba79382d349]
class mastermind.models.Color--><rect codeLine="25" fill="#FEFECE" filter="url(#f1hyuskxvbtbsy)" height="144.8516" id="mastermind.models.Color" style="stroke: #A80036; stroke-width: 1.5;" width="70" x="498" y="42"/><ellipse cx="516.6" cy="58" fill="#EB937F" rx="11" ry="11" style="stroke: #A80036; stroke-width: 1.0;"/><path d="M515.4594,58.7969 L515.4594,61.2969 L519.7875,61.2969 L519.7875,60.375 Q519.7875,59.7656 520.0219,59.5 Q520.2719,59.2344 520.6469,59.2344 Q521.0219,59.2344 521.2563,59.5 Q521.4906,59.7656 521.4906,60.375 L521.4906,63 L513.4906,63 Q512.8656,63 512.6,62.7656 Q512.35,62.5313 512.35,62.1406 Q512.35,61.7656 512.6156,61.5313 Q512.8813,61.2969 513.4906,61.2969 L513.7563,61.2969 L513.7563,54.6406 L513.4906,54.6406 Q512.8656,54.6406 512.6,54.4063 Q512.35,54.1719 512.35,53.7813 Q512.35,53.4063 512.6,53.1719 Q512.8656,52.9375 513.4906,52.9375 L521.1156,52.9375 L521.1156,55.5313 Q521.1156,56.1406 520.8813,56.4063 Q520.6625,56.6563 520.2719,56.6563 Q519.8969,56.6563 519.6625,56.4063 Q519.4281,56.1406 519.4281,55.5313 L519.4281,54.6406 L515.4594,54.6406 L515.4594,57.0938 L516.9438,57.0938 Q516.9438,56.4375 517.0688,56.25 Q517.3344,55.8438 517.8031,55.8438 Q518.1781,55.8438 518.4125,56.1094 Q518.6469,56.3594 518.6469,56.9688 L518.6469,58.9375 Q518.6469,59.4844 518.5219,59.6719 Q518.2563,60.0625 517.8031,60.0625 Q517.3344,60.0625 517.0688,59.6563 Q516.9438,59.4688 516.9438,58.7969 L515.4594,58.7969 Z "/><text fill="#000000" font-family="sans-serif" font-size="12" lengthAdjust="spacingAndGlyphs" textLength="30" x="531.4" y="62.9102">Color</text><line style="stroke: #A80036; stroke-width: 1.5;" x1="499" x2="567" y1="74" y2="74"/><ellipse cx="509" cy="85" fill="none" rx="3" ry="3" style="stroke: #038048; stroke-width: 1.0;"/><text fill="#000000" font-family="sans-serif" font-size="11" lengthAdjust="spacingAndGlyphs" textLength="20" x="518" y="89.4189">RED</text><ellipse cx="509" cy="98.8359" fill="none" rx="3" ry="3" style="stroke: #038048; stroke-width: 1.0;"/><text fill="#000000" font-family="sans-serif" font-size="11" lengthAdjust="spacingAndGlyphs" textLength="26" x="518" y="103.2549">BLUE</text><ellipse cx="509" cy="112.6719" fill="none" rx="3" ry="3" style="stroke: #038048; stroke-width: 1.0;"/><text fill="#000000" font-family="sans-serif" font-size="11" lengthAdjust="spacingAndGlyphs" textLength="44" x="518" y="117.0908">YELLOW</text><ellipse cx="509" cy="126.5078" fill="none" rx="3" ry="3" style="stroke: #038048; stroke-width: 1.0;"/><text fill="#000000" font-family="sans-serif" font-size="11" lengthAdjust="spacingAndGlyphs" textLength="34" x="518" y="130.9268">GREEN</text><ellipse cx="509" cy="140.3438" fill="none" rx="3" ry="3" style="stroke: #038048; stroke-width: 1.0;"/><text fill="#000000" font-family="sans-serif" font-size="11" lengthAdjust="spacingAndGlyphs" textLength="44" x="518" y="144.7627">ORANGE</text><ellipse cx="509" cy="154.1797" fill="none" rx="3" ry="3" style="stroke: #038048; stroke-width: 1.0;"/><text fill="#000000" font-family="sans-serif" font-size="11" lengthAdjust="spacingAndGlyphs" textLength="38" x="518" y="158.5986">PURPLE</text><line style="stroke: #A80036; stroke-width: 1.5;" x1="499" x2="567" y1="165.0156" y2="165.0156"/><polygon fill="#FFFF44" points="509,171.0156,513,175.0156,509,179.0156,505,175.0156" style="stroke: #B38D22; stroke-width: 1.0;"/><text fill="#000000" font-family="sans-serif" font-size="11" lengthAdjust="spacingAndGlyphs" textLength="37" x="518" y="180.4346">length()</text><!--MD5=[9c5442b9d48adcb788f4fd60193e9fcb]
class mastermind.models.Combination--><rect codeLine="35" fill="#FEFECE" filter="url(#f1hyuskxvbtbsy)" height="103.3438" id="mastermind.models.Combination" style="stroke: #A80036; stroke-width: 1.5;" width="104" x="481" y="268"/><ellipse cx="496" cy="284" fill="#A9DCDF" rx="11" ry="11" style="stroke: #A80036; stroke-width: 1.0;"/><path d="M498.1875,285.7656 L494.0469,285.7656 L493.625,286.7969 L494.0469,286.7969 Q494.6563,286.7969 494.9219,287.0313 Q495.1875,287.2656 495.1875,287.6563 Q495.1875,288.0313 494.9219,288.2656 Q494.6563,288.5 494.0469,288.5 L491.75,288.5 Q491.1406,288.5 490.8906,288.2656 Q490.625,288.0313 490.625,287.6406 Q490.625,287.2656 490.9063,287.0313 Q491.1719,286.7813 491.7969,286.7969 L494.4688,280.1406 L493.3594,280.1406 Q492.75,280.1406 492.4844,279.9063 Q492.2188,279.6719 492.2188,279.2813 Q492.2188,278.9063 492.4844,278.6719 Q492.75,278.4375 493.3594,278.4375 L497.0313,278.4375 L500.4219,286.7969 Q501.0156,286.7969 501.2031,286.9375 Q501.5938,287.2031 501.5938,287.6563 Q501.5938,288.0313 501.3281,288.2656 Q501.0781,288.5 500.4688,288.5 L498.1719,288.5 Q497.5625,288.5 497.2969,288.2656 Q497.0313,288.0313 497.0313,287.6406 Q497.0313,287.2656 497.2969,287.0313 Q497.5625,286.7969 498.1719,286.7969 L498.5938,286.7969 L498.1875,285.7656 Z M497.4688,284.0625 L496.1094,280.6875 L494.7344,284.0625 L497.4688,284.0625 Z "/><text fill="#000000" font-family="sans-serif" font-size="12" font-style="italic" lengthAdjust="spacingAndGlyphs" textLength="72" x="510" y="288.9102">Combination</text><line style="stroke: #A80036; stroke-width: 1.5;" x1="482" x2="584" y1="300" y2="300"/><rect fill="none" height="6" style="stroke: #C82930; stroke-width: 1.0;" width="6" x="489" y="308"/><text fill="#000000" font-family="sans-serif" font-size="11" lengthAdjust="spacingAndGlyphs" textLength="32" x="501" y="315.4189">WIDTH</text><polygon fill="none" points="492,319.8359,496,323.8359,492,327.8359,488,323.8359" style="stroke: #B38D22; stroke-width: 1.0;"/><text fill="#000000" font-family="sans-serif" font-size="11" lengthAdjust="spacingAndGlyphs" textLength="67" x="501" y="329.2549">colors: Color[]</text><line style="stroke: #A80036; stroke-width: 1.5;" x1="482" x2="584" y1="335.6719" y2="335.6719"/><polygon fill="#FFFF44" points="492,341.6719,496,345.6719,492,349.6719,488,345.6719" style="stroke: #B38D22; stroke-width: 1.0;"/><text fill="#000000" font-family="sans-serif" font-size="11" lengthAdjust="spacingAndGlyphs" textLength="66" x="501" y="351.0908">Combination()</text><ellipse cx="492" cy="360.5078" fill="#84BE84" rx="3" ry="3" style="stroke: #038048; stroke-width: 1.0;"/><text fill="#000000" font-family="sans-serif" font-size="11" lengthAdjust="spacingAndGlyphs" textLength="67" x="501" y="364.9268">getWidth(): int</text><!--MD5=[ec0d7954693320b8f20d2ff1330d13b4]
class mastermind.models.StateValue--><rect fill="#FEFECE" filter="url(#f1hyuskxvbtbsy)" height="48" id="mastermind.models.StateValue" style="stroke: #A80036; stroke-width: 1.5;" width="91" x="67.5" y="663.5"/><ellipse cx="82.5" cy="679.5" fill="#ADD1B2" rx="11" ry="11" style="stroke: #A80036; stroke-width: 1.0;"/><path d="M85.2656,675.375 Q85.4219,675.1563 85.6094,675.0469 Q85.7969,674.9375 86.0156,674.9375 Q86.3906,674.9375 86.625,675.2031 Q86.8594,675.4531 86.8594,676.0625 L86.8594,677.5156 Q86.8594,678.125 86.625,678.3906 Q86.3906,678.6563 86.0156,678.6563 Q85.6719,678.6563 85.4688,678.4531 Q85.2656,678.2656 85.1563,677.75 Q85.1094,677.3906 84.9219,677.2031 Q84.5938,676.8281 83.9844,676.6094 Q83.375,676.3906 82.75,676.3906 Q81.9844,676.3906 81.3438,676.7188 Q80.7188,677.0469 80.2188,677.7969 Q79.7344,678.5469 79.7344,679.5781 L79.7344,680.6719 Q79.7344,681.9063 80.625,682.7344 Q81.5156,683.5469 83.1094,683.5469 Q84.0469,683.5469 84.7031,683.2969 Q85.0938,683.1406 85.5156,682.7031 Q85.7813,682.4375 85.9219,682.3594 Q86.0781,682.2813 86.2813,682.2813 Q86.6094,682.2813 86.8594,682.5469 Q87.125,682.7969 87.125,683.1406 Q87.125,683.4844 86.7813,683.8906 Q86.2813,684.4688 85.4844,684.7969 Q84.4063,685.25 83.1094,685.25 Q81.5938,685.25 80.3906,684.625 Q79.4063,684.125 78.7188,683.0625 Q78.0313,681.9844 78.0313,680.7031 L78.0313,679.5469 Q78.0313,678.2188 78.6406,677.0781 Q79.2656,675.9219 80.3594,675.3125 Q81.4531,674.6875 82.6875,674.6875 Q83.4219,674.6875 84.0625,674.8594 Q84.7188,675.0156 85.2656,675.375 Z "/><text fill="#000000" font-family="sans-serif" font-size="12" lengthAdjust="spacingAndGlyphs" textLength="59" x="96.5" y="684.4102">StateValue</text><line style="stroke: #A80036; stroke-width: 1.5;" x1="68.5" x2="157.5" y1="695.5" y2="695.5"/><line style="stroke: #A80036; stroke-width: 1.5;" x1="68.5" x2="157.5" y1="703.5" y2="703.5"/><!--MD5=[0bfb87d985ab5751d2f1c815e30e0bc2]
link mastermind.models.Game to mastermind.models.ProposedCombination--><path codeLine="12" d="M299.4638,403.2511 C299.4638,403.2511 314.36,438.01 320.99,453.48 " fill="none" id="mastermind.models.Game-mastermind.models.ProposedCombination" style="stroke: #A80036; stroke-width: 1.0;"/><polygon fill="#A80036" points="326.14,465.49,326.2784,455.6421,324.1737,460.8929,318.923,458.7882,326.14,465.49" style="stroke: #A80036; stroke-width: 1.0;"/><line style="stroke: #A80036; stroke-width: 1.0;" x1="324.1737" x2="321.015" y1="460.8929" y2="453.54"/><polygon fill="#A80036" points="294.74,392.22,293.4249,399.3102,299.4638,403.2511,300.779,396.1609,294.74,392.22" style="stroke: #A80036; stroke-width: 1.0;"/><text fill="#000000" font-family="sans-serif" font-size="13" lengthAdjust="spacingAndGlyphs" textLength="7" x="315.5764" y="454.6039">n</text><!--MD5=[f3dfce6ee53d74daeb4523d26c9127c0]
link mastermind.models.Game to mastermind.models.Result--><path codeLine="13" d="M238.7864,403.7686 C238.7864,403.7686 223.85,518.56 249,569 C268.78,608.66 309.04,638.46 343.7,658.12 " fill="none" id="mastermind.models.Game-mastermind.models.Result" style="stroke: #A80036; stroke-width: 1.0;"/><polygon fill="#A80036" points="355.2,664.4,349.2198,656.5745,350.8122,662.0027,345.3841,663.595,355.2,664.4" style="stroke: #A80036; stroke-width: 1.0;"/><line style="stroke: #A80036; stroke-width: 1.0;" x1="350.8122" x2="343.79" y1="662.0027" y2="658.17"/><polygon fill="#A80036" points="241.37,392.05,236.172,397.0481,238.7864,403.7686,243.9844,398.7705,241.37,392.05" style="stroke: #A80036; stroke-width: 1.0;"/><text fill="#000000" font-family="sans-serif" font-size="13" lengthAdjust="spacingAndGlyphs" textLength="7" x="340.3716" y="657.3399">n</text><!--MD5=[51d817dc75f97c6f89eda65baf901e9a]
link mastermind.models.Game to mastermind.models.SecretCombination--><path codeLine="14" d="M388.2485,397.7498 C388.2485,397.7498 465.17,445.57 497.3,465.55 " fill="none" id="mastermind.models.Game-mastermind.models.SecretCombination" style="stroke: #A80036; stroke-width: 1.0;"/><polygon fill="#A80036" points="508.37,472.42,502.8466,464.2657,504.1263,469.7759,498.6161,471.0556,508.37,472.42" style="stroke: #A80036; stroke-width: 1.0;"/><line style="stroke: #A80036; stroke-width: 1.0;" x1="504.1263" x2="497.325" y1="469.7759" y2="465.56"/><polygon fill="#A80036" points="378.06,391.41,381.041,397.9761,388.2485,397.7498,385.2676,391.1837,378.06,391.41" style="stroke: #A80036; stroke-width: 1.0;"/><!--MD5=[bb061d998947ca519d5f6e71a12689eb]
link mastermind.models.Game to mastermind.models.State--><path codeLine="15" d="M206.7,392.22 C192.04,410.57 176.41,430.14 162.19,447.93 " fill="none" id="mastermind.models.Game-to-mastermind.models.State" style="stroke: #A80036; stroke-width: 1.0;"/><polygon fill="#A80036" points="158.99,451.93,167.7418,447.4127,162.1187,448.0298,161.5015,442.4068,158.99,451.93" style="stroke: #A80036; stroke-width: 1.0;"/><!--MD5=[7b29684056909414a3cc5ff3d855d9cb]
reverse link mastermind.models.Combination to mastermind.models.ProposedCombination--><path codeLine="61" d="M468.43,385.41 C442.16,411.82 412.48,441.67 388.8,465.47 " fill="none" id="mastermind.models.Combination-backto-mastermind.models.ProposedCombination" style="stroke: #A80036; stroke-width: 1.0;"/><polygon fill="none" points="463.55,380.39,482.62,371.15,473.48,390.26,463.55,380.39" style="stroke: #A80036; stroke-width: 1.0;"/><!--MD5=[8b7fe5937727b3f2af2b7e0c077d6894]
reverse link mastermind.models.Combination to mastermind.models.SecretCombination--><path codeLine="62" d="M546.06,391.02 C551.16,418.59 556.81,449.07 561.09,472.21 " fill="none" id="mastermind.models.Combination-backto-mastermind.models.SecretCombination" style="stroke: #A80036; stroke-width: 1.0;"/><polygon fill="none" points="539.14,392.09,542.38,371.15,552.9,389.54,539.14,392.09" style="stroke: #A80036; stroke-width: 1.0;"/><!--MD5=[ad6162ac55de9b3994b8e1f18f5e46fb]
link mastermind.models.Color to mastermind.models.Combination--><path codeLine="63" d="M533,200.1 C533,218.4 533,255.96 533,255.96 " fill="none" id="mastermind.models.Color-mastermind.models.Combination" style="stroke: #A80036; stroke-width: 1.0;"/><polygon fill="#A80036" points="533,267.96,537,261.96,533,255.96,529,261.96,533,267.96" style="stroke: #A80036; stroke-width: 1.0;"/><polygon fill="#A80036" points="533,187.07,529,196.07,533,192.07,537,196.07,533,187.07" style="stroke: #A80036; stroke-width: 1.0;"/><line style="stroke: #A80036; stroke-width: 1.0;" x1="533" x2="533" y1="192.07" y2="200.07"/><!--MD5=[58baf95923b1a149ded150720b1bbb0d]
link mastermind.models.State to mastermind.models.StateValue--><path codeLine="64" d="M113,581.29 C113,581.29 113,630.44 113,650.05 " fill="none" id="mastermind.models.State-mastermind.models.StateValue" style="stroke: #A80036; stroke-width: 1.0;"/><polygon fill="#A80036" points="113,663.3,117,654.3,113,658.3,109,654.3,113,663.3" style="stroke: #A80036; stroke-width: 1.0;"/><line style="stroke: #A80036; stroke-width: 1.0;" x1="113" x2="113" y1="658.3" y2="650.3"/><polygon fill="#A80036" points="113,569.29,109,575.29,113,581.29,117,575.29,113,569.29" style="stroke: #A80036; stroke-width: 1.0;"/><!--MD5=[608050f9e03cd77b6b0a92b040850965]
link mastermind.models.SecretCombination to mastermind.models.Result--><path codeLine="65" d="M533.43,548.61 C511.61,572.04 482.98,602.78 458.29,629.29 " fill="none" id="mastermind.models.SecretCombination-to-mastermind.models.Result" style="stroke: #A80036; stroke-width: 1.0; stroke-dasharray: 7.0,7.0;"/><polygon fill="#A80036" points="454.67,633.17,463.7276,629.3021,458.0744,629.5081,457.8685,623.855,454.67,633.17" style="stroke: #A80036; stroke-width: 1.0;"/><!--MD5=[7b265bcdaf1f2331cfdd9bbe3034080e]
@startuml mastermind.models

class  mastermind.models.Game{
    - board: Game
    + Game()
    + isWinner(): Boolean
    + isLooser(): Boolean
    + addProposedCombination(Combination)
    + getProposedCombination(int): Combination
    + getResult(int): Result
}

mastermind.models.Game *- -> "n" mastermind.models.ProposedCombination
mastermind.models.Game *- -> "n" mastermind.models.Result
mastermind.models.Game *- -> mastermind.models.SecretCombination
mastermind.models.Game - -> mastermind.models.State

class  mastermind.models.State{
    - stateValue: StateValue
    + State()
    + next(): void
    + reset(): void
    + getValueState(): StateValue
}

enum mastermind.models.Color{
    + RED 
	+ BLUE 
	+ YELLOW 
	+ GREEN 
	+ ORANGE 
	+ PURPLE
    # length()
}

abstract class mastermind.models.Combination{
    - WIDTH
    # colors: Color[]
    # Combination()
    + getWidth(): int
}

class mastermind.models.ProposedCombination{
    # contains(Color, position)
    # contains(Color)
    + getColors(): Color[]
}

class mastermind.models.SecretCombination{
    # SecretCombination()
    # getResult(ProposedCombination): Result 
}

class mastermind.models.Result{
    - blacks
    - whites
    ~ isWinner()
    + getBlacks(): int
    + getWhites(): int
}

mastermind.models.ProposedCombination -up-|> mastermind.models.Combination
mastermind.models.SecretCombination -up-|> mastermind.models.Combination
mastermind.models.Combination *-up-> mastermind.models.Color
mastermind.models.State *-down-> mastermind.models.StateValue
mastermind.models.SecretCombination ..> mastermind.models.Result

@enduml

PlantUML version 1.2020.18(Wed Sep 30 21:40:44 CEST 2020)
(GPL source distribution)
Java Runtime: OpenJDK Runtime Environment
JVM: OpenJDK 64-Bit Server VM
Default Encoding: Cp1252
Language: es
Country: ES
--></g></svg>